<svg width="180" height="102" viewBox="0 0 180 102" fill="none" xmlns="http://www.w3.org/2000/svg">
<path d="M148.707 13.6017H58.1534V85.437H148.707V13.6017Z" fill="#F2F2F2"/>
<path d="M136.067 77.0972H45.1362V4.88281H136.067V77.0972ZM45.5135 76.7181H135.69V5.26189H45.5135V76.7181Z" fill="#3F3D56"/>
<path d="M108.976 99.33H4.06378V99.7775H108.976V99.33Z" fill="#3F3D56"/>
<path d="M77.9621 62.3832L77.9091 24.8545L120.194 43.5588L77.9621 62.3832Z" fill="#D0CDE1"/>
<path d="M69.3736 26.4871C69.3736 26.4871 73.3573 21.9894 74.1845 23.7034C75.0117 25.4174 70.1358 28.0231 70.1358 28.0231L69.3736 26.4871Z" fill="#A0616A"/>
<path d="M71.4592 28.3421C71.4592 28.3421 69.6877 28.996 69.1746 29.7902C68.6614 30.5862 66.9541 31.4164 66.9541 31.4164L66.8051 31.5055L65.194 32.4702L63.0829 33.7326L56.4008 37.7318L47.5812 41.28C47.5133 40.0423 47.4473 38.8046 47.385 37.6333C47.3661 37.2826 47.3624 36.9339 47.3699 36.5851C47.4812 36.551 47.5944 36.5207 47.7095 36.496C50.3186 35.9369 51.4279 35.1238 51.4279 35.1238L56.5291 32.0324C56.5291 32.0324 60.5342 29.4679 63.0754 28.2644C63.4319 28.0938 63.7602 27.9516 64.0432 27.8474C66.3447 26.9982 70.065 25.626 70.065 25.626L70.1084 25.7113L71.029 27.5024L71.4592 28.3421Z" fill="#D0CDE1"/>
<path opacity="0.1" d="M71.4592 28.3421C71.4592 28.3421 69.6877 28.996 69.1746 29.7902C68.6614 30.5862 66.9541 31.4164 66.9541 31.4164L66.8051 31.5055L65.194 32.4702L63.0829 33.7326L56.4008 37.7318L47.5812 41.28C47.5133 40.0423 47.4473 38.8046 47.385 37.6333C47.3661 37.2826 47.3624 36.9339 47.3699 36.5851C47.4812 36.551 47.5944 36.5207 47.7095 36.496C50.3186 35.9369 51.4279 35.1238 51.4279 35.1238L56.5291 32.0324C56.5291 32.0324 60.5342 29.4679 63.0754 28.2644C63.4319 28.0938 63.7602 27.9516 64.0432 27.8474C66.3447 26.9982 70.065 25.626 70.065 25.626L70.1084 25.7113L71.029 27.5024L71.4592 28.3421Z" fill="black"/>
<path d="M70.065 62.3433L70.0122 24.8146L112.297 43.5187L70.065 62.3433Z" fill="#6C63FF"/>
<path opacity="0.2" d="M109.595 42.3236L70.0616 59.9453L70.065 62.3433L112.297 43.5187L109.595 42.3236Z" fill="black"/>
<path d="M58.2477 93.3028V97.2831H61.2662L60.8889 93.1133L58.2477 93.3028Z" fill="#A0616A"/>
<path d="M46.5512 93.1133L45.6079 97.6622L49.381 97.8518V93.1133H46.5512Z" fill="#A0616A"/>
<path d="M48.0604 57.1009C48.0604 57.1009 47.1171 56.7218 46.9285 60.1335C46.7398 63.5453 46.5512 75.2967 46.5512 75.2967C46.5512 75.2967 44.6646 85.7213 45.4192 88.754C46.1738 91.7866 46.1738 93.8715 46.1738 93.8715H49.5696L49.7583 91.9761L49.9469 86.8586C49.9469 86.8586 51.8335 82.1201 51.2675 77.7607L55.7952 63.9243L58.0591 78.7084C58.0591 78.7084 57.1158 82.3096 57.3044 86.1004C57.4931 89.8912 57.4931 94.8192 57.4931 94.8192L61.2662 94.4401L64.2846 76.6235C64.2846 76.6235 65.9825 58.8068 64.2846 57.8591C62.5868 56.9114 48.0604 57.1009 48.0604 57.1009Z" fill="#2F2E41"/>
<path d="M59.3796 95.9563C59.3796 95.9563 57.6817 93.6818 56.9271 95.3877C56.1725 97.0935 54.4746 99.368 55.7952 100.505C57.1158 101.642 58.8137 102.022 59.3796 101.642C59.9456 101.263 65.7939 98.2308 65.7939 98.2308C65.7939 98.2308 66.9258 95.0086 64.6619 94.8191C62.3981 94.6295 61.6435 94.0609 61.6435 94.0609L59.3796 95.9563Z" fill="#2F2E41"/>
<path d="M46.3625 96.525C46.3625 96.525 46.3625 94.6296 45.6079 95.1982C44.8533 95.7668 44.2873 98.2308 44.2873 98.2308C44.2873 98.2308 39.7596 101.832 44.0986 101.832C48.4377 101.832 51.2675 102.59 50.8902 100.884C50.5129 99.1785 49.9469 96.3355 49.9469 96.3355C49.9469 96.3355 48.0604 93.8714 46.3625 96.525Z" fill="#2F2E41"/>
<path d="M58.2477 24.3107C60.8525 24.3107 62.9641 22.1892 62.9641 19.5722C62.9641 16.9552 60.8525 14.8337 58.2477 14.8337C55.643 14.8337 53.5314 16.9552 53.5314 19.5722C53.5314 22.1892 55.643 24.3107 58.2477 24.3107Z" fill="#A0616A"/>
<path d="M54.5689 21.1832C54.5689 21.1832 53.8143 26.6799 52.6824 27.438C51.5505 28.1962 60.2286 28.3857 60.2286 28.3857C60.2286 28.3857 59.6626 24.0263 60.2286 22.8891L54.5689 21.1832Z" fill="#A0616A"/>
<path d="M69.3783 58.8068C69.3783 58.8068 72.2081 64.1139 70.3216 64.3034C68.435 64.4929 67.6804 58.9963 67.6804 58.9963L69.3783 58.8068Z" fill="#A0616A"/>
<path d="M53.8902 23.0129C54.6059 23.3634 55.4188 23.4598 56.196 23.2862C56.9732 23.1126 57.6689 22.6793 58.1693 22.0571C58.8039 21.2239 59.1718 20.0106 60.1837 19.7515C60.8443 19.5824 61.6062 19.9016 62.1961 19.5582C63.2968 18.9173 62.5238 16.8859 63.5458 16.1248C63.1062 16.1187 62.6848 15.9469 62.3653 15.6434C62.0457 15.3399 61.8513 14.9269 61.8206 14.4862C61.7945 14.841 61.3302 15 60.9915 14.8962C60.6528 14.7924 60.3868 14.5307 60.0706 14.3706C59.518 14.091 58.8641 14.1419 58.2481 14.1995C56.674 14.3466 54.9756 14.5474 53.8192 15.6305C52.7326 16.6483 52.3714 18.2757 52.583 19.753C52.7946 21.2303 53.1683 21.7152 53.9592 22.9786L53.8902 23.0129Z" fill="#2F2E41"/>
<path d="M65.6052 29.4282L65.5788 29.6177L65.194 32.4703L63.6149 44.1573L63.53 44.7809C63.53 44.7809 63.7168 45.2376 63.9507 45.9655C64.3469 47.1918 64.8827 49.1876 64.9034 51.0679C64.9098 51.437 64.8921 51.8061 64.8506 52.1729C64.5676 54.5895 64.4959 57.0061 64.479 58.0638C64.4733 58.4163 64.4733 58.6172 64.4733 58.6172L47.3058 58.0486C47.413 57.8059 47.5081 57.5579 47.5906 57.3056C48.2109 55.4738 48.4354 53.5301 48.2491 51.6043C48.0812 50.0008 47.8189 45.6319 47.5812 41.2801C47.5133 40.0424 47.4473 38.8047 47.385 37.6333C47.3662 37.2827 47.3624 36.9339 47.3699 36.5852C47.416 34.5471 47.9073 32.544 48.809 30.7177C49.7107 28.8914 51.0008 27.2865 52.5881 26.0165C52.5881 26.0165 52.9352 26.0316 53.4823 26.0639C55.2028 26.1643 58.908 26.4259 60.072 26.8561C60.1255 26.875 60.1778 26.8972 60.2286 26.9225C60.7908 27.2011 61.9661 27.7527 63.0754 28.2644C64.3865 28.8709 65.6052 29.4282 65.6052 29.4282Z" fill="#D0CDE1"/>
<path d="M62.9641 29.6177H65.6052C65.6052 29.6177 67.8691 32.2712 67.4917 34.9248C67.1144 37.5783 67.4917 38.9051 67.4917 38.9051L68.6237 44.7808C68.6237 44.7808 69.9443 50.8461 69.9443 53.3101V59.7544L66.9258 60.1335C66.9258 60.1335 66.9258 58.2381 66.3598 57.4799C65.7939 56.7218 65.6052 54.8264 65.6052 54.8264L63.3414 42.6959L62.9641 29.6177Z" fill="#D0CDE1"/>
<path d="M24.3905 26.2137L18.9513 28.3271L20.9821 33.6026L26.4213 31.4891L24.3905 26.2137Z" fill="#6C63FF"/>
<path d="M25.4384 31.0731L19.7129 33.2979L17.5753 27.7447L23.3007 25.52L25.4384 31.0731ZM19.8923 32.909L25.0452 30.9067L23.1213 25.9089L17.9684 27.9112L19.8923 32.909Z" fill="#3F3D56"/>
<path d="M15.9401 99.6155L15.701 99.5254C15.6485 99.5055 10.4201 97.493 7.97091 92.9296C5.52162 88.366 6.72092 82.8714 6.73332 82.8165L6.78977 82.5663L7.02871 82.6563C7.08125 82.6762 12.3095 84.6888 14.7588 89.2521C17.2081 93.8158 16.0088 99.3104 15.9964 99.3652L15.9401 99.6155ZM8.36311 92.7171C10.4338 96.5755 14.5654 98.5533 15.6123 99.0048C15.8113 97.8776 16.4355 93.3192 14.3666 89.4646C12.298 85.6104 8.16473 83.6295 7.11747 83.1769C6.91833 84.3048 6.29437 88.8627 8.36311 92.7171Z" fill="#3F3D56"/>
<path d="M9.84265 91.3287C14.2442 93.9893 15.9393 99.2738 15.9393 99.2738C15.9393 99.2738 10.4982 100.245 6.0967 97.5843C1.69516 94.9237 0 89.6392 0 89.6392C0 89.6392 5.44112 88.6682 9.84265 91.3287Z" fill="#6C63FF"/>
</svg>
