<svg width="175" height="98" viewBox="0 0 175 98" fill="none" xmlns="http://www.w3.org/2000/svg">
<path d="M63.3278 67.3462C66.1176 67.3462 68.3792 65.0842 68.3792 62.294C68.3792 59.5038 66.1176 57.2418 63.3278 57.2418C60.538 57.2418 58.2764 59.5038 58.2764 62.294C58.2764 65.0842 60.538 67.3462 63.3278 67.3462Z" fill="#6C63FF"/>
<path d="M62.8464 64.4266L61.3346 62.4824L62.2137 61.7985L62.9297 62.719L65.348 60.1656L66.1568 60.932L62.8464 64.4266Z" fill="white"/>
<path d="M159.855 16.053H84.7614V0H159.855V16.053Z" fill="white"/>
<path d="M94.4919 12.1045C96.7437 12.1045 98.5692 10.2787 98.5692 8.02655C98.5692 5.77436 96.7437 3.94861 94.4919 3.94861C92.24 3.94861 90.4146 5.77436 90.4146 8.02655C90.4146 10.2787 92.24 12.1045 94.4919 12.1045Z" fill="#6C63FF"/>
<path d="M103.908 5.30798C103.728 5.30798 103.555 5.37959 103.428 5.50705C103.3 5.63451 103.229 5.80738 103.229 5.98764C103.229 6.1679 103.3 6.34077 103.428 6.46823C103.555 6.59569 103.728 6.66729 103.908 6.66729H153.523C153.703 6.66687 153.876 6.59508 154.003 6.46766C154.13 6.34025 154.201 6.16762 154.201 5.98764C154.201 5.80766 154.13 5.63503 154.003 5.50762C153.876 5.38021 153.703 5.30841 153.523 5.30798H103.908Z" fill="#3F3D56"/>
<path d="M103.908 9.38574C103.728 9.38536 103.555 9.45661 103.427 9.5838C103.3 9.71099 103.228 9.88371 103.227 10.064C103.227 10.2442 103.298 10.4172 103.425 10.545C103.553 10.6727 103.725 10.7447 103.906 10.745H135.273C135.362 10.7452 135.45 10.7277 135.533 10.6936C135.616 10.6596 135.691 10.6095 135.754 10.5464C135.817 10.4833 135.867 10.4083 135.901 10.3258C135.936 10.2432 135.953 10.1547 135.953 10.0654C135.953 9.97605 135.936 9.88757 135.901 9.80504C135.867 9.72251 135.817 9.64753 135.754 9.58441C135.691 9.52128 135.616 9.47124 135.533 9.43715C135.45 9.40306 135.362 9.38559 135.273 9.38574H103.908Z" fill="#3F3D56"/>
<path d="M159.855 16.053H84.7614V0H159.855V16.053ZM85.9078 14.9064H158.708V1.14664H85.9078V14.9064Z" fill="#CCCCCC"/>
<path d="M159.855 36.1193H84.7614V20.0663H159.855V36.1193Z" fill="white"/>
<path d="M94.4919 32.1708C96.7437 32.1708 98.5692 30.345 98.5692 28.0928C98.5692 25.8406 96.7437 24.0149 94.4919 24.0149C92.24 24.0149 90.4146 25.8406 90.4146 28.0928C90.4146 30.345 92.24 32.1708 94.4919 32.1708Z" fill="#E6E6E6"/>
<path d="M103.908 25.374C103.728 25.374 103.555 25.4456 103.428 25.5731C103.3 25.7005 103.229 25.8734 103.229 26.0537C103.229 26.2339 103.3 26.4068 103.428 26.5343C103.555 26.6617 103.728 26.7333 103.908 26.7333H153.523C153.703 26.7329 153.876 26.6611 154.003 26.5337C154.13 26.4063 154.201 26.2337 154.201 26.0537C154.201 25.8737 154.13 25.7011 154.003 25.5737C153.876 25.4462 153.703 25.3745 153.523 25.374H103.908Z" fill="#E6E6E6"/>
<path d="M103.908 29.452C103.728 29.4516 103.555 29.5229 103.427 29.6501C103.3 29.7773 103.228 29.95 103.227 30.1303C103.227 30.3105 103.298 30.4835 103.425 30.6113C103.553 30.739 103.725 30.811 103.906 30.8113H135.273C135.362 30.8115 135.45 30.794 135.533 30.7599C135.616 30.7258 135.691 30.6758 135.754 30.6127C135.817 30.5495 135.867 30.4746 135.901 30.392C135.936 30.3095 135.953 30.221 135.953 30.1317C135.953 30.0423 135.936 29.9539 135.901 29.8713C135.867 29.7888 135.817 29.7138 135.754 29.6507C135.691 29.5876 135.616 29.5375 135.533 29.5034C135.45 29.4693 135.362 29.4519 135.273 29.452H103.908Z" fill="#E6E6E6"/>
<path d="M159.855 36.1193H84.7614V20.0663H159.855V36.1193ZM85.9078 34.9727H158.708V21.2129H85.9078V34.9727Z" fill="#E6E6E6"/>
<path d="M159.855 56.1856H84.7614V40.1326H159.855V56.1856Z" fill="white"/>
<path d="M94.4919 52.237C96.7437 52.237 98.5692 50.4113 98.5692 48.1591C98.5692 45.9069 96.7437 44.0812 94.4919 44.0812C92.24 44.0812 90.4146 45.9069 90.4146 48.1591C90.4146 50.4113 92.24 52.237 94.4919 52.237Z" fill="#E6E6E6"/>
<path d="M103.908 45.4403C103.728 45.4403 103.555 45.5119 103.428 45.6394C103.3 45.7668 103.229 45.9397 103.229 46.12C103.229 46.3002 103.3 46.4731 103.428 46.6006C103.555 46.728 103.728 46.7996 103.908 46.7996H153.523C153.703 46.7992 153.876 46.7274 154.003 46.6C154.13 46.4726 154.201 46.2999 154.201 46.12C154.201 45.94 154.13 45.7674 154.003 45.6399C153.876 45.5125 153.703 45.4407 153.523 45.4403H103.908Z" fill="#E6E6E6"/>
<path d="M103.908 49.5183C103.728 49.5179 103.555 49.5892 103.427 49.7164C103.3 49.8436 103.228 50.0163 103.227 50.1965C103.227 50.3768 103.298 50.5498 103.425 50.6775C103.553 50.8053 103.725 50.8772 103.906 50.8776H135.273C135.362 50.8778 135.45 50.8603 135.533 50.8262C135.616 50.7921 135.691 50.7421 135.754 50.6789C135.817 50.6158 135.867 50.5408 135.901 50.4583C135.936 50.3758 135.953 50.2873 135.953 50.198C135.953 50.1086 135.936 50.0201 135.901 49.9376C135.867 49.8551 135.817 49.7801 135.754 49.717C135.691 49.6538 135.616 49.6038 135.533 49.5697C135.45 49.5356 135.362 49.5182 135.273 49.5183H103.908Z" fill="#E6E6E6"/>
<path d="M159.855 56.1856H84.7614V40.1326H159.855V56.1856ZM85.9078 55.0389H158.708V41.2792H85.9078V55.0389Z" fill="#E6E6E6"/>
<path d="M35.3602 59.9942C35.189 59.7742 35.0681 59.5193 35.0061 59.2474C34.944 58.9756 34.9423 58.6935 35.0011 58.421C35.0598 58.1484 35.1776 57.8921 35.3462 57.67C35.5147 57.4479 35.7299 57.2655 35.9765 57.1355L35.5783 52.7957L38.1562 51.9104L38.6325 58.0471C38.8232 58.4759 38.8501 58.9599 38.7079 59.4073C38.5657 59.8546 38.2644 60.2343 37.8611 60.4743C37.4577 60.7143 36.9804 60.798 36.5194 60.7095C36.0585 60.621 35.6461 60.3665 35.3602 59.9942Z" fill="#FFB8B8"/>
<path d="M38.1276 35.0858C38.1276 35.0858 39.8967 31.3727 41.4686 32.6788C43.0406 33.985 39.3135 44.9641 39.3135 44.9641L38.7467 55.6223L35.7591 55.3236L34.9144 44.9396L38.1276 35.0858Z" fill="#CCCCCC"/>
<path d="M14.3987 90.0205L16.6163 91.816L24.5959 84.1151L21.3229 81.4652L14.3987 90.0205Z" fill="#FFB8B8"/>
<path d="M14.419 88.8384L18.7865 92.3743L18.7867 92.3745C19.5248 92.9722 19.9953 93.8386 20.0947 94.7832C20.1941 95.7278 19.9143 96.6733 19.3168 97.4116L19.2436 97.502L12.0928 91.7126L14.419 88.8384Z" fill="#2F2E41"/>
<path d="M45.2196 95.0045H48.0727L49.4301 83.9973L45.219 83.9975L45.2196 95.0045Z" fill="#FFB8B8"/>
<path d="M44.4917 94.073L50.1107 94.0728H50.111C51.0607 94.0728 51.9714 94.4501 52.643 95.1218C53.3145 95.7934 53.6918 96.7043 53.6919 97.6542V97.7705L44.4919 97.7709L44.4917 94.073Z" fill="#2F2E41"/>
<path d="M50.2262 43.4023C50.2262 43.4023 55.5789 49.9198 54.4153 56.4373C53.2516 62.9548 52.3207 67.8429 52.3207 67.8429L50.4589 82.5073C50.4589 82.5073 51.1571 86.501 50.2262 87.5301C50.2262 87.5301 51.6225 89.9558 49.0625 90.8869C46.5024 91.818 45.1212 90.5652 45.1212 90.5652C45.1212 90.5652 43.2442 87.8609 44.4079 87.1626L44.8981 58.3842L26.2549 82.74C26.2549 82.74 25.9123 85.7027 23.5236 85.7343L20.6694 87.8609L17.4112 85.9988L19.0403 83.9039C19.0403 83.9039 18.1094 81.5762 20.204 81.1106L32.3059 65.2825L35.3314 57.1356C35.3314 57.1356 36.9605 50.8509 41.3824 48.2905V45.566L50.2262 43.4023Z" fill="#2F2E41"/>
<path d="M41.0333 32.1131C41.7379 31.2802 42.7243 30.7356 43.8045 30.5831C44.8847 30.4306 45.9832 30.6807 46.8909 31.2859L47.0842 31.4148C49.15 33.7546 50.5384 36.6137 51.1 39.6842L51.9716 44.4498L41.0333 46.8196L38.469 37.9744C38.1435 36.8517 38.2218 35.6505 38.6903 34.5796C39.1588 33.5087 39.9879 32.6359 41.0333 32.1131V32.1131Z" fill="#CCCCCC"/>
<path d="M59.0043 61.0074C58.701 60.9082 58.4232 60.7438 58.1903 60.5256C57.9575 60.3075 57.7753 60.0409 57.6566 59.7447C57.5379 59.4485 57.4856 59.1299 57.5034 58.8113C57.5211 58.4927 57.6085 58.1819 57.7593 57.9007L54.6039 54.0384L56.4831 51.5481L60.8625 57.0651C61.3179 57.3499 61.6532 57.7918 61.8046 58.3073C61.956 58.8227 61.9132 59.3758 61.6841 59.8617C61.4551 60.3476 61.0557 60.7327 60.5618 60.9438C60.0679 61.155 59.5137 61.1776 59.0042 61.0074H59.0043Z" fill="#FFB8B8"/>
<path d="M45.6878 35.6047C45.6878 35.6047 44.9897 30.9494 47.317 31.1822C49.6443 31.4149 53.1352 44.2171 53.1352 44.2171L59.4189 54.6916L56.3934 56.321L48.9461 47.0103L45.6878 35.6047Z" fill="#CCCCCC"/>
<path d="M49.9497 28.7987H38.8672C38.6393 28.7984 38.4207 28.7077 38.2595 28.5465C38.0983 28.3853 38.0076 28.1667 38.0074 27.9387V23.161C38.0074 21.4631 38.6818 19.8347 39.8822 18.634C41.0826 17.4334 42.7108 16.7589 44.4085 16.7589C46.1061 16.7589 47.7343 17.4334 48.9347 18.634C50.1351 19.8347 50.8095 21.4631 50.8095 23.161V27.9387C50.8093 28.1667 50.7186 28.3853 50.5574 28.5465C50.3962 28.7077 50.1776 28.7984 49.9497 28.7987Z" fill="#2F2E41"/>
<path d="M45.7238 28.6876C48.3157 28.6876 50.4168 26.5862 50.4168 23.9938C50.4168 21.4015 48.3157 19.3 45.7238 19.3C43.1319 19.3 41.0308 21.4015 41.0308 23.9938C41.0308 26.5862 43.1319 28.6876 45.7238 28.6876Z" fill="#FFB8B8"/>
<path d="M52.3238 23.6388H46.4177L46.3571 22.6657L46.0543 23.6388H45.1449L45.0249 21.7102L44.4247 23.6388H42.665V23.5432C42.665 20.7507 44.6447 18.4789 47.0781 18.4789H47.9108C50.3441 18.4789 52.3238 20.7507 52.3238 23.5432V23.6388Z" fill="#2F2E41"/>
<path d="M46.6622 29.6906C46.5901 29.6906 46.518 29.685 46.4467 29.674L39.4168 28.5911V21.2679C39.4168 20.5198 39.7139 19.8023 40.2428 19.2733C40.7718 18.7443 41.4891 18.4471 42.2371 18.4471H47.1553L46.9637 18.6422C44.2981 21.3565 46.3063 25.7577 47.7407 28.1396C47.8459 28.3108 47.8935 28.5113 47.8763 28.7116C47.8592 28.9118 47.7782 29.1013 47.6453 29.2521C47.5232 29.3923 47.372 29.5043 47.2022 29.58C47.0324 29.6557 46.8481 29.6935 46.6622 29.6906Z" fill="#2F2E41"/>
<path d="M169.949 13.0718C172.738 13.0718 175 10.8098 175 8.01958C175 5.22934 172.738 2.96741 169.949 2.96741C167.159 2.96741 164.897 5.22934 164.897 8.01958C164.897 10.8098 167.159 13.0718 169.949 13.0718Z" fill="#6C63FF"/>
<path d="M169.467 10.1522L167.955 8.20803L168.835 7.52406L169.55 8.44462L171.969 5.89124L172.778 6.65758L169.467 10.1522Z" fill="white"/>
<path d="M69.9913 98H-2.80892C-2.8596 98 -2.9082 97.9799 -2.94404 97.944C-2.97987 97.9082 -3 97.8596 -3 97.8089C-3 97.7582 -2.97987 97.7096 -2.94404 97.6738C-2.9082 97.6379 -2.8596 97.6178 -2.80892 97.6178H69.9913C70.042 97.6178 70.0906 97.6379 70.1264 97.6738C70.1622 97.7096 70.1824 97.7582 70.1824 97.8089C70.1824 97.8596 70.1622 97.9082 70.1264 97.944C70.0906 97.9799 70.042 98 69.9913 98Z" fill="#CCCCCC"/>
</svg>
