<svg width="164" height="117" viewBox="0 0 164 117" fill="none" xmlns="http://www.w3.org/2000/svg">
<g clip-path="url(#clip0_23:5)">
<path d="M13.9375 117C21.6311 117 27.868 116.25 27.868 115.325C27.868 114.4 21.6311 113.65 13.9375 113.65C6.24395 113.65 0.00704956 114.4 0.00704956 115.325C0.00704956 116.25 6.24395 117 13.9375 117Z" fill="#E6E6E6"/>
<path d="M164 0.0726318H36.3777V82.1304H164V0.0726318Z" fill="#E6E6E6"/>
<path d="M160.351 10.3647H40.027V77.2759H160.351V10.3647Z" fill="white"/>
<path d="M163.946 0H36.3232V5.44327H163.946V0Z" fill="#660099"/>
<path d="M40.3523 3.79178C40.9073 3.79178 41.3572 3.3401 41.3572 2.78292C41.3572 2.22573 40.9073 1.77405 40.3523 1.77405C39.7973 1.77405 39.3474 2.22573 39.3474 2.78292C39.3474 3.3401 39.7973 3.79178 40.3523 3.79178Z" fill="white"/>
<path d="M44.1666 3.79178C44.7216 3.79178 45.1715 3.3401 45.1715 2.78292C45.1715 2.22573 44.7216 1.77405 44.1666 1.77405C43.6117 1.77405 43.1617 2.22573 43.1617 2.78292C43.1617 3.3401 43.6117 3.79178 44.1666 3.79178Z" fill="white"/>
<path d="M47.981 3.79178C48.536 3.79178 48.9859 3.3401 48.9859 2.78292C48.9859 2.22573 48.536 1.77405 47.981 1.77405C47.426 1.77405 46.9761 2.22573 46.9761 2.78292C46.9761 3.3401 47.426 3.79178 47.981 3.79178Z" fill="white"/>
<path d="M108.409 27.2108C108.388 27.2856 108.376 27.3627 108.374 27.4404L108.409 27.2108Z" fill="#7F77FF"/>
<path d="M93.0213 34.2803C93.0142 34.1121 92.9841 34.0419 92.9567 34.0334C92.9765 34.1895 92.9951 34.3177 93.0213 34.2803Z" fill="#7F77FF"/>
<path d="M92.7104 37.8296C92.7049 37.9024 92.6994 37.9698 92.6903 38.0518C92.6725 37.9775 92.6796 37.8995 92.7104 37.8296Z" fill="#7F77FF"/>
<path d="M108.374 27.4404L108.279 28.0305C108.378 28.0718 108.352 27.7281 108.374 27.4404Z" fill="#7F77FF"/>
<path d="M113.68 21.9425L113.859 21.9421C113.913 21.9065 113.963 21.8655 114.008 21.8196L113.68 21.9425Z" fill="#7F77FF"/>
<path d="M120.683 22.2528C120.689 22.2107 120.708 22.1715 120.737 22.1403C120.765 22.109 120.803 22.0871 120.844 22.0774C120.797 22.0116 120.743 21.9508 120.684 21.8962C120.597 21.8851 120.688 22.141 120.683 22.2528Z" fill="#7F77FF"/>
<path d="M128.009 17.2393C128.033 17.2357 128.055 17.2322 128.073 17.2286L128.009 17.2393Z" fill="#7F77FF"/>
<path d="M127.863 17.264L128.011 17.2393C127.962 17.2467 127.906 17.2544 127.863 17.264Z" fill="#7F77FF"/>
<path d="M108.076 22.5471C108.058 22.5434 108.04 22.5456 108.023 22.5531C108.007 22.5607 107.993 22.5733 107.984 22.5892C108.016 22.6102 108.047 22.5887 108.076 22.5471Z" fill="#7F77FF"/>
<path d="M136.938 17.5264L136.951 17.6465C136.998 17.6612 137.046 17.6699 137.095 17.6724L136.938 17.5264Z" fill="#7F77FF"/>
<path d="M92.147 42.1401C92.1489 42.1401 92.1489 42.1419 92.1452 42.1456C92.1452 42.1474 92.1433 42.1492 92.1415 42.1511C92.1415 42.1548 92.114 42.1584 92.0938 42.1621C92.0836 42.1592 92.0732 42.1574 92.0626 42.1566C92.0901 42.1529 92.1177 42.1474 92.1397 42.1456C92.1433 42.1419 92.1452 42.1401 92.147 42.1401Z" fill="#7F77FF"/>
<path d="M71.724 70.3403C71.0091 70.1115 72.8875 70.0466 71.8112 69.7923C71.9114 69.8925 70.8329 70.1916 71.724 70.3403Z" fill="#7F77FF"/>
<path d="M77.4396 45.4435C77.4144 45.5052 77.3757 45.5606 77.3264 45.6055C77.3812 45.4854 77.4122 45.4489 77.4396 45.4435Z" fill="#7F77FF"/>
<path d="M88.0231 42.6736C87.925 42.6708 87.8273 42.6598 87.731 42.6409L88.0231 42.6736Z" fill="#7F77FF"/>
<path d="M73.6509 46.3475C73.5514 46.3281 73.449 46.3282 73.3494 46.3476C73.3701 46.3606 73.3922 46.3711 73.4153 46.3787C73.4898 46.3477 73.571 46.3369 73.6509 46.3475Z" fill="#7F77FF"/>
<path d="M73.6509 46.3475C73.6893 46.3542 73.7293 46.362 73.7804 46.3683C73.7377 46.3585 73.6945 46.3516 73.6509 46.3475Z" fill="#7F77FF"/>
<path d="M67.4018 46.3696C67.4356 46.3892 67.4803 46.4039 67.5195 46.4212C67.5827 46.4169 67.6565 46.4118 67.7216 46.4074L67.4018 46.3696Z" fill="#7F77FF"/>
<path d="M72.697 46.5416C72.6964 46.5463 72.6946 46.5508 72.6918 46.5546C72.689 46.5585 72.6853 46.5615 72.681 46.5635C72.689 46.5516 72.697 46.5416 72.697 46.5416Z" fill="#7F77FF"/>
<path d="M135.898 69.969C135.856 69.9654 135.815 69.9619 135.77 69.957C135.818 69.9632 135.859 69.9667 135.898 69.969Z" fill="#7F77FF"/>
<path d="M137.617 64.0928C137.615 64.0929 137.614 64.0942 137.612 64.0942C137.614 64.1033 137.615 64.1006 137.617 64.0928Z" fill="#7F77FF"/>
<path d="M87.4789 42.8393C87.5441 42.8269 87.6079 42.808 87.6693 42.7829C87.8017 42.8175 87.6204 42.8157 87.4789 42.8393Z" fill="#7F77FF"/>
<path d="M137.431 41.6529C137.441 41.6098 137.451 41.5612 137.463 41.502C137.451 41.553 137.441 41.6027 137.431 41.6529Z" fill="#7F77FF"/>
<path d="M137.759 61.0482C137.778 61.0046 137.806 60.9651 137.84 60.9317L137.866 61.0227C137.885 60.8357 137.873 60.6466 137.829 60.4637C137.869 60.2209 137.892 59.9757 137.898 59.7298C138.091 59.626 138.002 58.6881 138.013 58.2365C137.759 58.2729 137.799 57.692 137.594 58.2219C137.608 58.191 137.617 58.3458 137.628 58.6226C137.632 58.6875 137.641 58.7521 137.655 58.8156C137.648 58.8065 137.641 58.7956 137.632 58.7846C137.637 59.0815 137.643 59.4694 137.65 59.9101C137.477 59.5227 137.442 59.0872 137.552 58.6772C137.389 58.4459 137.22 58.1892 137.142 58.0453C137.497 57.4261 137.69 56.2315 137.907 56.0658C137.766 54.6836 137.813 52.8097 137.334 51.9392C137.273 51.5459 137.472 51.4876 137.548 51.3401C137.595 51.5677 137.588 51.8372 137.657 51.9611C137.534 51.1744 137.61 49.6319 137.274 49.4444C137.425 48.4537 137.583 50.0016 137.528 48.6394L137.63 48.8234C138.156 46.1919 136.824 44.5275 137.43 41.652C137.407 41.7594 137.385 41.8232 137.345 41.8523C137.648 38.4687 137.06 34.8776 137.541 31.5377C137.637 30.589 137.425 30.4852 137.262 29.9061L137.536 29.7003L137.22 28.7096C136.988 27.3056 137.891 26.2785 137.454 24.4993L137.269 24.7288C137.305 24.0896 137.16 22.7055 137.372 22.813C137.316 22.7523 137.278 22.6775 137.262 22.5967C137.245 22.5158 137.251 22.4319 137.278 22.3541L137.421 22.334L137.175 20.7643C137.278 19.5496 137.744 20.9555 137.771 19.1799C137.717 18.5207 137.354 17.3024 137.258 17.5501C137.253 17.816 137.169 18.2294 137.026 18.2494L136.951 17.6466C136.924 17.6393 136.899 17.632 136.872 17.6229V17.5264H136.612C136.558 17.5034 136.5 17.4916 136.442 17.4916C136.383 17.4916 136.325 17.5034 136.271 17.5264H129.768L129.839 17.4554L129.625 17.5264H128.707C128.734 17.4718 128.822 17.4263 129.003 17.4044C128.335 17.2168 128.412 17.5392 127.84 17.3297C127.777 17.297 127.804 17.2787 127.864 17.2642L127.211 17.3771C127.34 17.297 127.104 17.1094 127.503 17.164C126.335 16.9455 125.618 17.4481 125.177 17.1604L125.275 17.1385C124.062 17.2332 124.575 17.3407 124.401 17.5264H123.643L123.49 17.3989L123.285 17.2278C123.216 17.1634 123.14 17.106 123.059 17.0566C122.996 17.1445 122.94 17.237 122.892 17.3334C122.703 17.3243 122.315 17.3042 122.333 17.1913C122.001 17.2878 122.07 17.317 122.15 17.3461C122.237 17.3753 122.342 17.4026 122.208 17.4936C121.995 17.4432 121.779 17.4133 121.56 17.4044C121.537 17.8087 121.566 18.2986 121.557 18.6719C121.548 19.0616 121.502 19.3129 121.325 19.3912C121.535 19.6807 121.488 18.6172 121.635 19.4804C121.16 19.7226 121.715 20.4893 121.497 21.2086C121.252 21.001 121.383 20.2872 121.163 21.0302C121.232 21.1036 121.283 21.1921 121.312 21.2888C121.333 21.3864 121.335 21.487 121.319 21.5856C121.287 21.7606 121.238 21.9319 121.172 22.0973C121.065 22.0703 120.954 22.0635 120.844 22.0773C120.953 22.243 120.71 22.2776 120.345 22.2849C120.126 22.2849 119.873 22.2867 119.616 22.2867C119.346 22.2903 119.068 22.2976 118.807 22.3249C118.872 22.2139 116.846 22.1447 115.877 22.0245L115.905 21.968C115.718 22.3031 114.718 22.2393 113.989 22.3085C114.018 22.1082 114.149 22.0299 114.544 21.9407L113.859 21.9425C113.697 22.05 113.485 22.1064 113.04 22.1447L113.213 21.8934C112.758 21.9006 112.299 21.9753 111.807 22.0263C111.56 22.0518 111.308 22.07 111.042 22.0736C110.909 22.0755 110.773 22.0718 110.633 22.0645C110.564 22.0609 110.494 22.0554 110.423 22.0481C110.343 22.039 110.263 22.0299 110.184 22.0208C110.158 22.0791 110.247 22.1501 110.303 22.223C110.373 22.2936 110.436 22.3703 110.492 22.4524C110.508 22.4748 110.518 22.5011 110.521 22.5285C110.524 22.556 110.519 22.5838 110.508 22.609H109.873C109.875 22.5398 109.917 22.4779 110.051 22.4451C109.864 22.4987 109.668 22.5117 109.476 22.4834C109.621 22.4142 109.79 22.3431 109.98 22.2721C109.291 22.1793 109.697 22.4488 109.213 22.4287C109.113 22.2503 108.749 22.3013 108.709 22.1592C108.845 22.141 109.237 22.2321 109.411 22.1629C109.05 22.1447 108.624 22.1028 108.232 22.0445C108.209 22.2197 108.156 22.3897 108.076 22.5471C108.177 22.5562 108.317 22.7274 108.339 23.1954C108.346 23.7946 108.292 23.8911 108.225 23.9293C108.192 23.9475 108.156 23.9493 108.121 23.9967C108.1 24.0289 108.084 24.0638 108.072 24.1005C108.054 24.1493 108.04 24.2 108.032 24.2516C108.156 24.4738 108.027 25.0565 108.295 25.0729C108.293 25.3406 108.168 25.3898 108.096 25.4936C108.214 25.9671 108.13 27.7044 108.415 27.1708L108.433 27.0488C108.439 27.0725 108.44 27.098 108.446 27.1271C108.52 27.5973 108.549 28.0736 108.533 28.5494C108.522 28.9464 108.484 29.3233 108.448 29.6548C108.181 29.6311 107.934 29.611 107.704 29.6001C107.588 29.5965 107.475 29.5928 107.363 29.5965L107.145 29.6019C107.069 29.6074 106.991 29.6111 106.915 29.6147L106.919 29.5255C106.003 29.6274 104.88 29.5855 104.227 29.7804C103.956 29.7786 103.588 29.6147 103.704 29.5091C103.004 29.5764 102.926 29.6766 101.916 29.5291C102.618 29.3725 101.673 29.3889 102.636 29.4144C101.727 29.3361 101.52 29.1922 100.544 29.438C100.876 29.2068 99.8606 29.1485 99.4289 29.2159L100.066 29.3816C99.6184 29.4057 99.1702 29.4033 98.7233 29.3743L98.9555 29.072C98.0267 28.8881 97.1869 29.0447 96.4033 29.1703C96.0278 29.2392 95.6476 29.2787 95.266 29.2887L95.1281 29.2869L94.9522 29.2778C94.8161 29.2705 94.6783 29.2596 94.5386 29.2432C94.233 29.2066 93.9296 29.1531 93.6298 29.0829C93.3033 29.1886 93.7387 29.225 94.1395 29.2669C94.5513 29.3087 94.925 29.3561 94.642 29.4799C94.0422 29.4401 93.4455 29.3628 92.8553 29.2486C92.7382 29.6455 92.6562 30.052 92.6104 30.4633C92.5887 30.7019 92.5814 30.9186 92.5814 31.1098C92.5814 31.2045 92.5832 31.2956 92.5887 31.3793C92.5905 31.4176 92.5923 31.474 92.5959 31.4922C92.5995 31.5141 92.6032 31.5377 92.6068 31.5596C92.6377 31.7172 92.687 31.8707 92.7537 32.0167C92.9268 32.386 92.9904 32.7976 92.9369 33.2022C93.0439 33.0438 93.3323 32.8963 93.4321 33.8159C93.4104 34.3258 93.2544 34.6044 93.1147 34.6299C93.0367 34.6463 92.9641 34.5826 92.9224 34.4405C92.9097 34.4045 92.9006 34.3673 92.8952 34.3294C92.8861 34.1237 92.9206 34.0253 92.9569 34.0326C92.917 33.7558 92.8716 33.3916 92.7555 33.7321L92.8626 33.8432C92.8285 33.9992 92.8054 34.1574 92.7936 34.3167C92.7446 34.8066 92.7156 35.3766 92.5868 35.1744C92.6757 35.7299 92.7428 35.5386 92.7954 35.169C92.6812 36.1523 92.8081 36.7642 92.7102 37.8296C92.77 37.6493 92.897 37.4817 92.8952 37.662C92.761 39.3265 93.1002 38.3959 93.1473 39.5231C92.9823 40.1642 92.7555 39.2937 92.8916 40.4282C92.7809 41.122 92.6068 40.5757 92.5197 40.3007C92.6053 40.7727 92.6066 41.2561 92.5234 41.7285C92.5179 41.7594 92.5143 41.7904 92.5088 41.8195C92.5052 41.8414 92.5016 41.865 92.498 41.8869L92.4907 41.9251C92.4889 41.9361 92.4871 41.9342 92.4853 41.9379L92.4708 41.9561C92.4545 41.9745 92.4362 41.9909 92.4163 42.0053C92.3908 42.0202 92.3665 42.0373 92.3438 42.0563C92.3257 42.0273 92.3037 42.0009 92.2785 41.9779C92.2895 41.9906 92.2977 42.0053 92.3027 42.0213C92.3077 42.0373 92.3094 42.0542 92.3075 42.0708C92.3297 42.0855 92.3527 42.0989 92.3764 42.1109C92.4231 42.1352 92.4724 42.1542 92.5234 42.1673C92.4871 42.2202 92.4853 42.273 92.4145 42.2074C92.4065 42.2017 92.3992 42.1949 92.3928 42.1874C92.4561 42.2826 92.5318 42.3689 92.6177 42.4441C92.712 42.5407 92.8245 42.6445 92.7174 42.741C92.5685 42.704 92.4136 42.6978 92.2621 42.7228C92.2241 42.7246 92.186 42.7246 92.1497 42.7228C92.0925 42.7195 92.0356 42.7128 91.9792 42.7027C91.9337 42.6995 91.8896 42.686 91.85 42.6633C91.8105 42.6406 91.7765 42.6093 91.7506 42.5716C91.9193 42.5844 92.0408 42.588 92.1315 42.5862C92.1805 42.5862 92.1987 42.5789 92.2132 42.5662C92.2386 42.5443 92.2204 42.5024 92.2041 42.4587C92.1733 42.3841 92.1624 42.3003 92.2168 42.2584C92.2085 42.2606 92.2 42.2618 92.1914 42.262C92.1753 42.2615 92.1594 42.2584 92.1442 42.2529C92.0753 42.2475 92.0046 42.2402 91.9302 42.2329C91.883 42.2001 91.9756 42.1728 92.0626 42.1564C91.9647 42.1364 91.8776 42.1218 91.8014 42.1109C91.6509 42.0835 91.4967 42.0835 91.3461 42.1109C91.016 42.1892 91.0867 42.4787 90.1508 42.4733C90.3176 42.313 89.8424 42.1673 89.6265 42.2019C90.1616 42.2056 89.8823 42.4715 89.3925 42.5953C88.5418 42.4696 88.4693 42.6882 88.023 42.6736L88.5309 42.7337C88.3586 42.8958 87.9342 42.8739 87.3428 42.9249C87.3265 42.8848 87.3718 42.863 87.4371 42.8466C86.8259 42.9413 86.093 42.5188 85.2895 42.6754C85.2815 42.6757 85.2736 42.677 85.2659 42.6791C84.8414 42.5698 85.2242 42.3768 84.8505 42.3021C83.8238 42.5115 83.7386 42.0799 82.6575 42.2529C82.9695 42.4715 83.0239 42.4186 82.2621 42.6299L84.0397 42.4769L82.8987 42.792C83.4356 42.7956 84.0306 42.6554 84.3517 42.6936C83.8075 42.8703 83.8637 42.8156 84.1213 42.9959C83.3867 42.67 82.6666 43.1871 81.8195 42.9668L81.8449 42.4278C81.3057 42.3418 80.7562 42.3442 80.2178 42.435L80.011 42.4624L79.9076 42.4751L79.8804 42.4787L79.8387 42.4824L79.7534 42.4897C79.5303 42.5061 79.3036 42.5243 79.0696 42.5425C78.6107 42.5734 78.1427 42.5953 77.6076 42.5917C77.6058 42.832 77.5985 43.0815 77.5858 43.3419L77.6711 42.6554L77.7382 42.6627C77.7302 42.6748 77.7189 42.6843 77.7055 42.69C77.7828 43.0277 77.8085 43.3753 77.7817 43.7207C77.7817 43.7517 77.7799 43.7845 77.7799 43.8172V43.8191C77.7763 43.9902 77.7708 44.1687 77.769 44.3472C77.769 44.4528 77.7708 44.5566 77.7745 44.6586C77.7763 44.7096 77.7799 44.7587 77.7817 44.8079L77.7872 44.8789L77.7944 44.9281C77.6148 44.8771 77.5495 45.214 77.4389 45.4435C77.4715 45.4362 77.4879 45.509 77.4987 45.6237C77.5096 45.6711 77.5151 45.7294 77.5278 45.7986C77.5611 45.988 77.6502 46.163 77.7835 46.3012C77.7559 46.3288 77.7248 46.3527 77.691 46.3722C77.5796 46.3304 77.4706 46.2824 77.3645 46.2283C77.2533 46.2048 77.1374 46.2182 77.0344 46.2666C77.0108 46.2775 76.9872 46.2902 76.9636 46.303C76.945 46.3131 76.9247 46.3199 76.9038 46.323C76.8784 46.3303 76.853 46.3376 76.8294 46.3449C76.7296 46.3758 76.6353 46.4086 76.5428 46.4414C76.1043 46.6234 75.6309 46.7049 75.157 46.68C75.5434 46.4851 74.9593 46.3576 75.8209 46.2174C75.391 46.2156 75.0064 46.1828 74.9992 46.3066C74.9522 46.2894 74.9022 46.282 74.8522 46.2848C74.6364 46.2866 74.2899 46.3704 73.9725 46.4086C73.8204 46.4324 73.6656 46.4324 73.5136 46.4086C73.4798 46.4033 73.4468 46.3935 73.4156 46.3795C73.3963 46.3881 73.3776 46.3978 73.3594 46.4086C73.27 46.4902 73.1646 46.5521 73.0499 46.5903C72.9353 46.6286 72.8139 46.6424 72.6937 46.6308C72.688 46.6274 72.683 46.6228 72.6792 46.6174C72.6754 46.6119 72.6728 46.6057 72.6716 46.5991C72.6704 46.5925 72.6706 46.5858 72.6722 46.5793C72.6739 46.5729 72.6768 46.5668 72.681 46.5616C72.5849 46.6363 71.9736 46.6781 72.3636 46.8621C71.7922 46.6199 71.0249 46.5944 70.2431 46.6053C69.2182 46.6181 68.1716 46.6945 67.5186 46.4214C67.0506 46.4505 66.5355 46.4815 66.0294 46.5051C65.7773 46.5142 65.5269 46.5252 65.2875 46.5343C65.1678 46.5379 65.0499 46.5416 64.9374 46.5452C64.8104 46.547 64.6889 46.5507 64.5728 46.5525C64.6091 46.5252 64.6091 46.5033 64.629 46.4906C64.6735 46.4729 64.7224 46.4697 64.7687 46.4815C64.7361 46.4778 64.7143 46.4724 64.6744 46.4705C64.6345 46.4669 64.5946 46.4651 64.5565 46.4614C64.4803 46.4578 64.4096 46.456 64.3443 46.4541C64.2327 46.4536 64.1213 46.4597 64.0105 46.4724C63.8749 46.4855 63.7434 46.5264 63.6241 46.5925C63.4391 46.7467 63.2079 46.834 62.9675 46.8402C62.9759 47.0361 62.9662 47.2325 62.9385 47.4266C62.8659 47.585 62.8206 47.6214 62.7897 47.5686C62.7546 47.4605 62.7369 47.3473 62.7371 47.2336C62.7208 46.944 62.7262 46.6162 62.6718 46.8602C62.378 46.7291 62.3979 47.4248 62.4487 48.186C62.4741 48.6285 62.5068 48.8215 62.5122 49.1002C62.5252 49.354 62.4901 49.6079 62.4088 49.8486L62.3744 49.6301C62.173 50.3185 62.5975 51.3109 62.5557 52.4364C62.5557 52.4364 62.5031 52.3817 62.4669 52.4291C62.7662 53.1994 62.8659 54.6563 62.9494 55.738C62.719 55.4011 62.8278 55.2463 62.5938 55.4521C62.6265 55.9383 62.9693 55.31 63.0346 56.2788C62.9095 56.5939 62.7988 57.2932 62.5485 57.386L62.534 56.4719C62.2111 56.9399 62.5467 57.6537 62.4904 58.1363L62.349 58.0744C62.3943 59.4748 62.7498 59.4949 62.7244 60.9991L62.8315 60.8443C63.1852 61.6674 62.6337 61.5345 62.8968 62.3539L62.5376 62.6034C62.6247 63.1461 62.8841 64.5028 62.9512 65.4771C62.6863 64.9253 62.5503 63.7871 62.3925 63.0824C62.3907 63.6196 62.4197 64.9107 62.5957 65.1912C62.5612 64.9745 62.4741 64.7013 62.5285 64.4864C62.8097 65.1456 62.9476 66.0143 62.9421 67.0869C62.7154 67.025 62.6174 67.3018 62.5703 67.7316C62.5684 67.7589 62.5648 67.7862 62.563 67.8153C62.5612 67.8554 62.5576 67.8973 62.5557 67.9392C62.5521 68.0248 62.5485 68.1122 62.543 68.2032C62.5394 68.3853 62.534 68.5784 62.5285 68.775C62.5195 69.1775 62.5104 69.6 62.5013 70.0097C63.3303 70.037 64.0921 70.0971 64.5347 70.2847L64.6835 70.272L64.776 70.261L64.9537 70.2428C65.0716 70.2319 65.1895 70.2228 65.3074 70.2155C65.5433 70.1991 65.7791 70.1937 66.0167 70.1918C66.4901 70.19 66.969 70.21 67.4569 70.2374C68.4328 70.292 69.4468 70.3739 70.5478 70.3521C69.7679 69.8112 71.19 70.3375 71.0557 69.7803C71.5636 69.7457 71.7595 69.7548 71.8067 69.7894L71.7323 69.773C71.7595 69.7803 71.7813 69.7857 71.8103 69.793V69.7912L73.363 70.1226C73.7312 70.2847 72.8751 70.2447 72.9222 70.3703C74.0451 70.414 73.3939 70.607 74.1357 70.7546C73.9834 70.556 74.5257 70.4687 75.166 70.5451L74.2645 70.2884C75.8336 69.9915 75.6213 70.7564 77.2012 70.4613L76.7006 70.638C77.5132 70.5342 79.6936 70.6417 80.4899 70.1937C80.6332 70.2574 80.8236 70.4104 80.4663 70.4504C82.4054 70.5178 84.7816 69.9751 86.2889 70.2501L86.142 70.3867C86.503 70.3466 86.7714 70.1299 87.2249 70.2665C87.2013 70.323 87.078 70.4031 87.2467 70.4104C87.4371 70.3648 88.2062 70.1718 88.6869 70.2519L88.277 70.4049C89.4669 70.5178 90.3086 70.3412 91.1647 70.17C91.6919 70.0549 92.2265 69.9776 92.7646 69.9387C92.761 70.3393 94.2484 70.4705 94.9921 70.5342L94.9649 70.5907C95.8477 70.607 96.7307 70.5638 97.6077 70.4613C98.2807 70.3867 98.9337 70.292 99.6248 70.2137H99.6266C99.6701 70.2082 99.7137 70.2028 99.759 70.1973C99.9187 70.1791 100.082 70.1627 100.247 70.1463C100.298 70.1409 100.35 70.1354 100.403 70.1299C100.515 70.1208 100.63 70.1117 100.746 70.1026C101.323 70.2611 101.918 70.3455 102.516 70.3539C103.935 70.4231 105.72 70.3667 107.069 70.5288C106.757 70.4559 107.12 70.2155 107.481 70.1755C107.929 70.2519 108.698 69.9405 108.729 70.2046C108.731 70.2247 108.73 70.245 108.725 70.2647L108.564 70.2574H108.555L108.556 70.2592C108.917 70.618 109.897 70.5233 110.662 70.5324L110.788 70.0516C112.792 70.7509 116.039 69.7948 117.133 70.4213C117.617 70.3011 118.216 70.3029 118.694 70.1827L118.669 70.4395C119.889 70.5172 121.112 70.5294 122.333 70.4759L121.996 70.6617C122.93 70.6781 123.175 69.9169 124.038 69.9023L124.296 70.2865C125.927 70.2811 127.575 70.6198 129.186 70.2701C129.161 70.3266 129.112 70.4377 128.849 70.4541C129.591 70.4632 131.673 70.6981 131.557 70.2356C131.735 70.496 133.266 70.2119 134.098 70.068L133.962 70.3212C134.334 70.1591 134.524 70.0553 134.753 69.9824C134.883 69.9412 135.016 69.9102 135.15 69.8896C135.234 69.8768 135.313 69.8641 135.428 69.8531C135.566 69.8422 135.722 69.8313 135.898 69.8185C136.21 69.8495 136.262 69.9897 135.896 69.9697C136.168 70.0058 136.445 69.9934 136.714 69.9333C136.939 69.8614 137.174 69.8239 137.41 69.8222C137.409 69.639 137.419 69.456 137.439 69.274C137.494 69.4853 137.548 69.7093 137.601 69.946C137.621 69.5562 137.605 69.1654 137.552 68.7787C137.508 68.5456 137.439 68.3726 137.347 68.0503C137.34 68.0066 137.334 67.9592 137.331 67.91C137.327 67.8645 137.323 67.819 137.32 67.7698C137.316 67.6897 137.314 67.6023 137.316 67.5149C137.322 67.3336 137.339 67.1529 137.369 66.974C137.425 66.6225 137.525 66.3239 137.639 66.262C137.499 66.1472 137.312 65.6847 137.378 65.1857C137.465 65.1183 137.519 65.2986 137.545 65.3915C137.717 63.9765 137.251 63.2863 137.499 62.3139C137.537 62.3031 137.571 62.2821 137.597 62.2532C137.624 62.2243 137.642 62.1886 137.65 62.15C137.644 63.1807 137.632 64.0257 137.615 64.0931C137.846 64.0803 137.887 63.1898 138.207 63.9073C138.031 63.1789 137.65 61.9333 137.759 61.0482ZM137.964 59.1634C138 59.4657 137.949 59.5659 137.897 59.6078C137.893 59.4657 137.884 59.2982 137.866 59.0797C137.857 59.0724 137.846 59.0542 137.835 59.0451C137.887 59.0728 137.931 59.1135 137.964 59.1634ZM127.581 17.4864C127.611 17.4962 127.641 17.5096 127.668 17.5264H127.283C127.376 17.5119 127.474 17.4991 127.581 17.4864V17.4864Z" fill="#660099"/>
<path d="M92.2644 42.2366C92.2521 42.25 92.235 42.2581 92.2168 42.2593C92.2313 42.2491 92.2474 42.2414 92.2644 42.2366Z" fill="#7F77FF"/>
<path d="M87.4372 42.8478C87.4521 42.8455 87.4666 42.842 87.4813 42.8391C87.466 42.8416 87.4512 42.8445 87.4372 42.8478Z" fill="#7F77FF"/>
<path d="M137.629 58.6225C137.62 58.5816 137.614 58.5401 137.61 58.4984C137.588 58.5599 137.568 58.6184 137.553 58.6781L137.633 58.7847L137.629 58.6225Z" fill="#7F77FF"/>
<path d="M108.409 27.2107C108.416 27.1807 108.429 27.1522 108.446 27.1265C108.433 27.1533 108.425 27.1533 108.415 27.1706L108.409 27.2107Z" fill="#7F77FF"/>
<path d="M121.086 17.2195C121.168 17.2215 121.261 17.3401 121.243 18.2115L121.298 17.1408L121.698 17.1602C121.375 17.0613 120.841 16.9284 121.58 16.9046C121.326 16.8748 121.131 16.852 120.994 16.8359C120.933 17.3494 121.005 17.2218 121.086 17.2195Z" fill="#7F77FF"/>
<path d="M121.1 21.6758C121.077 21.4718 121.042 21.4661 121.005 21.49C120.968 21.516 120.93 21.568 120.902 21.5426C120.991 21.7843 121.014 21.9015 121.1 21.6758Z" fill="#7F77FF"/>
<path d="M103.44 29.4178L103.504 29.1849C103.02 29.2184 103.499 29.2751 103.44 29.4178Z" fill="#7F77FF"/>
<path d="M95.066 28.9978L95.1063 28.9946L95.1808 28.9881L95.4787 28.9626L95.6901 28.9293L95.2865 28.9715L95.0846 28.9925L94.7549 29.0138L95.0036 29.0009L95.066 28.9978Z" fill="#7F77FF"/>
<path d="M68.5361 46.1434L68.6824 46.4301C69.0095 46.3788 69.0781 46.0565 68.5361 46.1434Z" fill="#7F77FF"/>
<path d="M62.5643 60.8289C62.4769 60.9921 62.4235 61.1715 62.4073 61.3561C62.3911 61.5408 62.4124 61.7268 62.47 61.9029C62.4897 61.4744 62.601 61.0471 62.5643 60.8289Z" fill="#7F77FF"/>
<path d="M111.359 70.5098L112.078 70.4298L111.74 70.4138L111.359 70.5098Z" fill="#7F77FF"/>
<path d="M114.887 47.0023C114.843 49.2117 114.536 51.4078 113.971 53.5436C111.773 61.702 105.758 67.6387 102.516 70.3539C101.918 70.3455 101.323 70.2611 100.746 70.1026C100.63 70.1117 100.515 70.1208 100.403 70.1299C100.35 70.1354 100.298 70.1409 100.247 70.1463C100.082 70.1627 99.9187 70.1791 99.7591 70.1973C99.7137 70.2028 99.6702 70.2082 99.6266 70.2137H99.6248C98.5763 67.4607 97.8241 64.6029 97.381 61.6893L97.3792 61.6874V61.6856C96.8187 57.9488 96.728 53.5636 97.9089 49.1821C98.4147 47.3279 99.1145 45.5327 99.9967 43.8264C104.212 35.6133 111.502 30.7201 111.502 30.7201C111.502 30.7201 115.105 38.1483 114.887 47.0023Z" fill="#F5DB39"/>
<path d="M92.7104 37.8296C92.7049 37.9024 92.6994 37.9698 92.6903 38.0518C92.6725 37.9775 92.6796 37.8995 92.7104 37.8296Z" fill="white"/>
<path d="M87.4789 42.8393C87.5441 42.8269 87.6079 42.808 87.6693 42.7829C87.8017 42.8175 87.6204 42.8157 87.4789 42.8393Z" fill="white"/>
<path d="M87.731 42.6409L88.0231 42.6736C87.925 42.6708 87.8273 42.6598 87.731 42.6409Z" fill="white"/>
<path d="M92.0938 42.1621C92.0836 42.1592 92.0732 42.1574 92.0626 42.1566C92.0901 42.1529 92.1177 42.1474 92.1397 42.1456C92.1434 42.1419 92.1452 42.1401 92.147 42.1401C92.1489 42.1401 92.1489 42.1419 92.1452 42.1456C92.1452 42.1474 92.1433 42.1492 92.1415 42.1511C92.1415 42.1548 92.114 42.1584 92.0938 42.1621Z" fill="white"/>
<path d="M92.2644 42.2366C92.2521 42.25 92.235 42.2581 92.2168 42.2593C92.2313 42.2491 92.2474 42.2414 92.2644 42.2366Z" fill="white"/>
<path d="M102.62 61.6747C102.62 61.6783 102.618 61.682 102.618 61.6856C102.179 64.5711 101.437 67.4017 100.403 70.1299C100.35 70.1354 100.298 70.1409 100.247 70.1463C100.082 70.1627 99.9187 70.1791 99.7591 70.1973C99.7137 70.2028 99.6702 70.2082 99.6266 70.2137H99.6248C98.9337 70.292 98.2807 70.3867 97.6078 70.4614C94.399 67.7971 88.2534 61.8113 86.0278 53.5436C85.4614 51.4074 85.1533 49.2106 85.1099 47.0005C85.0769 45.5564 85.1369 44.1117 85.2895 42.6754C86.0931 42.5188 86.8259 42.9413 87.4372 42.8466C87.3719 42.863 87.3265 42.8849 87.3429 42.9249C87.9342 42.8739 88.3586 42.8958 88.531 42.7337L88.0231 42.6736C88.4693 42.6882 88.5419 42.4697 89.3926 42.5953C89.8823 42.4715 90.1617 42.2056 89.6266 42.202C89.8424 42.1674 90.3177 42.313 90.1508 42.4733C91.0868 42.4788 91.016 42.1892 91.3462 42.1109H91.8014C91.8776 42.1218 91.9647 42.1364 92.0626 42.1564C91.9756 42.1728 91.8831 42.2001 91.9302 42.2329C92.0046 42.2402 92.0753 42.2475 92.1443 42.253C92.1594 42.2584 92.1753 42.2615 92.1914 42.2621C92.2 42.2619 92.2085 42.2606 92.2168 42.2584C92.1624 42.3003 92.1733 42.3841 92.2041 42.4587C92.2205 42.5024 92.2386 42.5443 92.2132 42.5662C92.1987 42.5789 92.1806 42.5862 92.1316 42.5862C92.0409 42.588 91.9193 42.5844 91.7507 42.5716C91.7765 42.6093 91.8105 42.6407 91.85 42.6634C91.8896 42.686 91.9338 42.6995 91.9792 42.7028C92.0356 42.7128 92.0925 42.7195 92.1497 42.7228C92.186 42.7246 92.2241 42.7246 92.2622 42.7228C92.4136 42.6978 92.5685 42.704 92.7175 42.741C92.8245 42.6445 92.712 42.5407 92.6177 42.4442C92.5318 42.3689 92.4561 42.2826 92.3928 42.1874C92.3992 42.195 92.4065 42.2017 92.4145 42.2074C92.4853 42.273 92.4871 42.2202 92.5234 42.1674C92.4724 42.1542 92.4231 42.1352 92.3765 42.1109H92.5089V41.8195C92.5143 41.7904 92.5179 41.7594 92.5234 41.7285C92.6066 41.2561 92.6054 40.7727 92.5198 40.3008C92.6068 40.5757 92.781 41.1221 92.8916 40.4282C92.7556 39.2937 92.9823 40.1642 93.1474 39.5232C93.1002 38.3959 92.761 39.3265 92.8952 37.662C92.897 37.4817 92.7701 37.6493 92.7102 37.8296C92.8082 36.7642 92.6812 36.1524 92.7955 35.169C92.7429 35.5387 92.6757 35.7299 92.5869 35.1744C92.7157 35.3766 92.7447 34.8066 92.7936 34.3167C92.8354 34.3568 92.8789 34.3987 92.9224 34.4405C92.9859 34.5025 93.0512 34.5662 93.1147 34.6299C95.3748 36.8571 98.025 39.9748 99.9967 43.8264C99.9969 43.8264 99.9972 43.8264 99.9974 43.8265C99.9976 43.8266 99.9978 43.8267 99.998 43.8269C99.9981 43.8271 99.9983 43.8273 99.9984 43.8275C99.9984 43.8277 99.9985 43.8279 99.9985 43.8282C100.882 45.5333 101.583 47.3281 102.088 49.1821C103.267 53.56 103.178 57.9379 102.62 61.6747Z" fill="#F5DB39"/>
<path d="M77.4396 45.4435C77.4144 45.5052 77.3757 45.5606 77.3264 45.6055C77.3812 45.4854 77.4122 45.4489 77.4396 45.4435Z" fill="#3F3D56"/>
<path d="M72.697 46.5416C72.6964 46.5463 72.6946 46.5508 72.6918 46.5546C72.689 46.5585 72.6853 46.5615 72.681 46.5635C72.689 46.5516 72.697 46.5416 72.697 46.5416Z" fill="#3F3D56"/>
<path d="M99.759 70.1973C99.7137 70.2028 99.6702 70.2083 99.6266 70.2137H99.6248C98.9337 70.292 98.2807 70.3867 97.6078 70.4614C96.7307 70.5639 95.8477 70.6071 94.9649 70.5907L94.9921 70.5342C94.2484 70.4705 92.761 70.3394 92.7646 69.9387C92.2265 69.9777 91.6919 70.055 91.1647 70.17C87.2413 68.888 82.672 66.7173 78.9336 63.0642C73.6641 57.916 71.2861 51.0378 70.2431 46.6053C71.0249 46.5944 71.7922 46.6199 72.3636 46.8621C71.9736 46.6782 72.5849 46.6363 72.681 46.5616C72.6768 46.5668 72.6739 46.5729 72.6722 46.5794C72.6706 46.5858 72.6704 46.5926 72.6716 46.5991C72.6728 46.6057 72.6754 46.6119 72.6792 46.6174C72.683 46.6229 72.688 46.6274 72.6937 46.6308C72.814 46.6424 72.9353 46.6286 73.0499 46.5903C73.1646 46.5521 73.27 46.4902 73.3594 46.4087H74.8523V46.2848C74.9022 46.282 74.9522 46.2895 74.9992 46.3067C75.0064 46.1829 75.391 46.2156 75.8209 46.2175C74.9593 46.3577 75.5434 46.4851 75.157 46.68C75.6309 46.705 76.1043 46.6235 76.5428 46.4414C76.6353 46.4087 76.7297 46.3759 76.8294 46.3449C76.853 46.3376 76.8784 46.3304 76.9038 46.3231C76.9248 46.3199 76.945 46.3131 76.9636 46.303C76.9872 46.2903 77.0108 46.2775 77.0344 46.2666C77.1374 46.2182 77.2533 46.2048 77.3645 46.2284C77.4706 46.2824 77.5796 46.3305 77.691 46.3722C77.7248 46.3527 77.7559 46.3288 77.7835 46.3012C77.6502 46.1631 77.5611 45.988 77.5278 45.7986C77.5151 45.7294 77.5096 45.6711 77.4988 45.6238C77.4879 45.509 77.4716 45.4362 77.4389 45.4435C77.5495 45.214 77.6148 44.8771 77.7944 44.9281L77.7872 44.879L77.7817 44.8079C77.7799 44.7588 77.7763 44.7096 77.7745 44.6586C77.7708 44.5566 77.769 44.4528 77.769 44.3472C77.7708 44.1687 77.7763 43.9903 77.7799 43.8191C80.3339 44.6014 82.7926 45.6685 85.1099 47.0005C87.0806 48.1347 88.9042 49.5091 90.539 51.0925C93.8112 54.2903 95.968 58.1546 97.3792 61.6856V61.6875L97.381 61.6893C98.4748 64.4317 99.2721 67.284 99.759 70.1973Z" fill="#3F3D56"/>
<path d="M108.555 70.2574H108.564C108.562 70.2587 108.559 70.2594 108.557 70.2593L108.555 70.2574Z" fill="#3F3D56"/>
<path d="M130.523 42.1638C130.523 42.1638 129.493 54.8275 121.065 63.0642C117.292 66.7519 112.676 68.9281 108.729 70.2046C108.698 69.9406 107.929 70.252 107.481 70.1755C107.12 70.2156 106.757 70.4559 107.069 70.5288C105.72 70.3667 103.935 70.4232 102.516 70.354C101.918 70.3455 101.323 70.2611 100.746 70.1026C100.63 70.1117 100.515 70.1209 100.403 70.13C100.35 70.1354 100.298 70.1409 100.247 70.1463C100.736 67.2458 101.531 64.4059 102.62 61.6747C104.034 58.1473 106.191 54.2866 109.458 51.0943C111.093 49.5106 112.916 48.1362 114.887 47.0023C122.437 42.6063 130.523 42.1638 130.523 42.1638Z" fill="#3F3D56"/>
<path d="M11.9432 34.855C11.9432 34.855 9.41676 39.9279 5.51225 41.0808C1.60773 42.2338 14.929 41.0808 14.929 41.0808C14.929 41.0808 14.24 37.3915 15.1587 36.9303C16.0774 36.4691 11.9432 34.855 11.9432 34.855Z" fill="#A0616A"/>
<path d="M7.86117 26.1399C7.72377 24.9379 8.37856 23.8753 9.32371 23.7664C9.33442 23.7652 9.34498 23.7658 9.35568 23.7648C9.23753 23.7474 9.11763 23.7454 8.99898 23.7589C8.05383 23.8678 7.39903 24.9305 7.53644 26.1324C7.67229 27.3207 8.53178 28.1985 9.46462 28.1131C8.66451 27.9964 7.98107 27.1886 7.86117 26.1399Z" fill="#2F2E41"/>
<path d="M8.70837 27.7695C7.56698 27.3815 6.88904 26.3336 7.19418 25.4289C7.19763 25.4187 7.20268 25.4094 7.20636 25.3992C7.14025 25.4991 7.08732 25.6071 7.04891 25.7206C6.74377 26.6253 7.42171 27.6732 8.5631 28.0612C9.69155 28.4448 10.8491 28.0389 11.1701 27.1554C10.7236 27.8322 9.70426 28.1081 8.70837 27.7695Z" fill="#2F2E41"/>
<path d="M0.810791 49.9917L1.1484 59.7582L6.43098 72.2097C6.43098 72.2097 5.05291 78.6661 7.80904 78.4355C10.5652 78.2049 8.03872 71.9791 8.03872 71.9791L5.51227 58.8358L5.05291 47.9984L0.810791 49.9917Z" fill="#A0616A"/>
<path d="M15.6181 38.3138C18.4087 38.3138 20.671 36.0426 20.671 33.2409C20.671 30.4393 18.4087 28.1681 15.6181 28.1681C12.8274 28.1681 10.5652 30.4393 10.5652 33.2409C10.5652 36.0426 12.8274 38.3138 15.6181 38.3138Z" fill="#A0616A"/>
<path d="M19.7523 42.0031L14.7726 40.0059C14.7726 40.0059 13.7806 40.1585 11.0245 40.389C8.26838 40.6196 7.0446 40.4021 7.0446 40.4021C7.0446 40.4021 1.14838 42.4643 1.37806 43.6172C1.60774 44.7701 4.13419 62.9863 5.28258 62.064C6.43097 61.1416 7.12 60.9111 7.12 60.9111L19.7523 59.7581V42.0031Z" fill="#CFCCE0"/>
<path d="M2.29678 43.1561H1.54933C1.54933 43.1561 0.689032 43.6172 0.689032 45.0007C0.689032 46.3842 0 50.5348 0 50.5348H3.67484L2.29678 43.1561Z" fill="#CFCCE0"/>
<path d="M9.07228 45.3466L6.29818 40.8477C6.23501 40.7453 6.14387 40.6632 6.0356 40.6112C5.92733 40.5592 5.80646 40.5395 5.68737 40.5545L4.96397 40.6452C4.87501 40.6564 4.78948 40.6866 4.71313 40.7338C4.63678 40.7809 4.5714 40.844 4.52139 40.9187C4.47139 40.9934 4.43792 41.078 4.42325 41.1668C4.40858 41.2556 4.41306 41.3465 4.43636 41.4334L5.8568 46.7301C5.8568 46.7301 8.10272 56.0873 5.94621 61.0933L5.8568 63.3322C5.8568 63.3322 3.7897 70.2498 4.24905 75.5532C4.70839 80.8567 4.93808 85.4683 4.93808 85.4683C4.93808 85.4683 3.78969 88.9271 4.24905 90.08C4.38686 90.4259 4.35929 90.9378 4.25318 91.485C3.6055 94.8248 3.4383 98.2407 3.52986 101.642L3.56001 102.762C3.56001 102.762 1.95226 104.146 3.33034 104.376C4.70841 104.607 9.07227 105.068 9.07227 105.068C9.07227 105.068 9.99099 103.454 9.53163 103.223L10.9097 95.614C10.9097 95.614 13.2065 92.3859 12.9768 90.3106C12.9768 90.3106 13.6658 86.8518 12.9768 85.2377L13.2065 75.092L14.1252 87.313L12.7471 102.532C12.7471 102.532 10.9097 103.915 12.0581 104.376C13.2065 104.837 20.3265 107.143 20.3265 105.99C20.3265 104.837 19.8671 104.376 19.8671 104.376L22.8529 73.2474L21.2452 60.3346C21.2452 60.3346 10.4503 59.4123 11.369 47.1913C11.369 47.1913 14.01 41.6845 16.6171 40.6454C16.6467 40.6344 16.6721 40.6143 16.6897 40.5879C16.7072 40.5615 16.716 40.5303 16.7148 40.4986C16.7136 40.4669 16.7025 40.4364 16.683 40.4114C16.6635 40.3865 16.6366 40.3683 16.6063 40.3596L15.5479 40.056C15.519 40.0474 15.4883 40.0479 15.4598 40.0576C15.0005 40.2138 11.0184 41.656 9.07228 45.3466Z" fill="#2F2E41"/>
<path d="M14.3548 104.146L14.3181 104.477C14.0711 106.59 13.3871 108.627 12.3098 110.458C11.7956 111.346 11.4018 112.348 11.5987 113.138C12.0581 114.983 11.8284 115.675 11.8284 115.675H15.5032V114.983L17.5549 115.545C18.0124 115.677 18.4998 115.662 18.9484 115.502C19.4077 115.329 19.8671 114.983 19.8671 114.291C19.8671 113.715 19.4285 113.178 18.9168 112.749C17.8379 111.86 17.0563 110.661 16.6773 109.313L16.6516 109.218L18.0297 104.146L14.3548 104.146Z" fill="#2F2E41"/>
<path d="M4.82321 104.261L4.78653 104.592C4.53951 106.705 3.85544 108.742 2.77821 110.573C2.26395 111.461 1.87022 112.463 2.06709 113.254C2.52644 115.098 2.29676 115.79 2.29676 115.79H5.9716V115.098L8.0233 115.66C8.4808 115.793 8.96823 115.778 9.41676 115.617C9.87612 115.444 10.3355 115.098 10.3355 114.407C10.3355 113.83 9.89685 113.294 9.38514 112.864C8.30626 111.976 7.52466 110.777 7.14572 109.429L7.12 109.334L8.49806 104.261H4.82321Z" fill="#2F2E41"/>
<path d="M16.638 34.0969C16.638 34.0969 20.2576 31.9975 21.6593 31.8702C21.6593 31.8702 22.0675 30.9478 21.6273 30.0602C21.6273 30.0602 21.4138 27.2126 17.8733 27.3232C17.8733 27.3232 13.6916 25.049 12.2877 25.9775C10.8839 26.906 7.75807 31.3615 9.07843 34.0242C9.07843 34.0242 7.5521 34.7952 7.47947 34.3802C7.40684 33.9652 6.27293 35.08 7.76998 36.0403C7.76998 36.0403 5.67452 38.1699 7.71144 39.5028C7.71144 39.5028 7.61822 37.614 8.79982 37.043C9.98143 36.4719 8.94725 37.0718 8.94725 37.0718C8.94725 37.0718 6.92442 39.6164 9.94565 40.607C9.94565 40.607 8.81825 39.318 9.95216 38.2032C9.95216 38.2032 9.60093 40.8069 11.6899 41.0811C11.6899 41.0811 10.6123 39.5346 11.1793 38.9772C11.1793 38.9772 11.42 40.8948 12.5994 41.125L13.484 41.2976L13.7832 39.7527C13.7832 39.7527 12.9419 41.7263 14.9084 41.8429C14.9084 41.8429 13.9577 38.8514 15.2163 37.0929C16.4749 35.3343 16.638 34.0969 16.638 34.0969Z" fill="#2F2E41"/>
<path d="M11.0196 27.5981C11.7472 26.6337 11.7222 25.3844 10.9638 24.8078C10.2054 24.2311 9.00083 24.5455 8.27327 25.5099C7.54571 26.4743 7.5707 27.7236 8.32908 28.3002C9.08747 28.8769 10.2921 28.5626 11.0196 27.5981Z" fill="#2F2E41"/>
<path d="M11.5217 26.4435C11.0647 26.6173 10.6671 26.9192 10.3761 27.3134C10.1173 27.6513 9.94493 28.0477 9.87408 28.468C10.3311 28.2942 10.7287 27.9923 11.0196 27.5981C11.2784 27.2602 11.4508 26.8638 11.5217 26.4435Z" fill="#6C63FF"/>
<path d="M29.0577 70.3678L28.766 69.9769L30.8837 68.3837C31.135 68.1941 31.3321 67.9414 31.4552 67.6509C31.5783 67.3605 31.623 67.0426 31.5848 66.7293L30.5358 58.2242C30.4604 57.6067 30.5484 56.9802 30.791 56.4078C31.0336 55.8353 31.4222 55.3372 31.9175 54.9635L34.2258 53.227C34.6637 52.8983 35.2135 52.7574 35.7548 52.8353C36.296 52.9131 36.7843 53.2033 37.1127 53.6422L37.6473 54.3584L37.258 54.6513L36.7234 53.9351C36.4725 53.5997 36.0993 53.378 35.6858 53.3185C35.2723 53.259 34.8521 53.3667 34.5175 53.6178L32.2093 55.3543C31.7824 55.6763 31.4476 56.1056 31.2385 56.5989C31.0295 57.0922 30.9536 57.632 31.0185 58.1641L32.0675 66.6693C32.1162 67.0679 32.0594 67.4725 31.9027 67.8421C31.7461 68.2117 31.4952 68.5333 31.1754 68.7746L29.0577 70.3678Z" fill="#CFCCE0"/>
<path d="M29.8129 71.0887L31.5395 68.8058L30.9559 68.0243L28.3672 69.1519L17.0666 76.9914L19.067 79.6714L29.8129 71.0887Z" fill="#CFCCE0"/>
<path d="M37.9522 53.1264L35.7721 54.7665C35.1762 55.2148 35.0551 56.0632 35.5016 56.6615L45.6165 70.2127C46.063 70.811 46.9081 70.9325 47.5039 70.4842L49.6841 68.8441C50.28 68.3958 50.401 67.5474 49.9545 66.9491L39.8397 53.3979C39.3931 52.7996 38.5481 52.6781 37.9522 53.1264Z" fill="#E6E6E6"/>
<path opacity="0.2" d="M49.9547 66.9494L49.6421 66.5306L49.5796 66.4468C49.6857 66.5891 49.763 66.7509 49.8068 66.923C49.8507 67.0952 49.8603 67.2744 49.8352 67.4503C49.8101 67.6262 49.7507 67.7955 49.6605 67.9483C49.5702 68.1012 49.4509 68.2348 49.3092 68.3413L47.1286 69.9819C46.8425 70.1971 46.483 70.2894 46.1291 70.2385C45.7752 70.1876 45.4559 69.9976 45.2415 69.7104L45.3041 69.7942L45.6166 70.2129C45.831 70.5002 46.1503 70.6901 46.5042 70.741C46.8581 70.7919 47.2176 70.6996 47.5037 70.4844L49.6843 68.8439C49.9704 68.6286 50.1596 68.3081 50.2103 67.9528C50.261 67.5975 50.1691 67.2366 49.9547 66.9494Z" fill="black"/>
<path d="M43.4886 58.0046C43.4684 57.9849 43.4515 57.9691 43.451 57.9778C43.4702 58.0008 43.4829 58.0069 43.4886 58.0046Z" fill="#7F77FF"/>
<path d="M43.1447 57.4611C43.1427 57.4475 43.1354 57.4353 43.1244 57.4269L43.1447 57.4611Z" fill="#7F77FF"/>
<path d="M45.6098 60.8939C45.5895 60.9003 45.6285 60.9437 45.6542 60.9853L45.6098 60.8939Z" fill="#7F77FF"/>
<path d="M46.6767 62.2723L46.6955 62.2971C46.7073 62.3001 46.7194 62.3019 46.7316 62.3024L46.6767 62.2723Z" fill="#7F77FF"/>
<path d="M47.3509 63.2815C47.3634 63.2815 47.3757 63.2841 47.3871 63.289C47.3986 63.2939 47.4089 63.3011 47.4175 63.3101C47.428 63.3017 47.4357 63.2903 47.4396 63.2774C47.4241 63.2529 47.376 63.2765 47.3509 63.2815Z" fill="#7F77FF"/>
<path d="M49.443 66.1985L49.4323 66.2172C49.4387 66.2253 49.4461 66.2328 49.4542 66.2393L49.443 66.1985Z" fill="#7F77FF"/>
<path d="M42.4811 56.4532L42.4835 56.4582C42.5076 56.4799 42.4959 56.4662 42.4811 56.4532Z" fill="#7F77FF"/>
<path d="M36.3573 58.4599C36.3217 58.3339 36.525 58.5828 36.4565 58.4042C36.4503 58.4303 36.2904 58.3197 36.3573 58.4599Z" fill="#7F77FF"/>
<path d="M40.8509 54.3214C40.8472 54.3335 40.8466 54.3464 40.8489 54.3589C40.8528 54.3547 40.8544 54.3454 40.8509 54.3214Z" fill="#7F77FF"/>
<path d="M39.996 53.7045C39.9664 53.723 39.9403 53.7464 39.9189 53.7739C39.9237 53.7729 39.9285 53.7713 39.9329 53.7691C39.9478 53.7423 39.9695 53.72 39.996 53.7045Z" fill="#7F77FF"/>
<path d="M39.1465 54.5082C39.1543 54.5068 39.1619 54.5049 39.1694 54.5026L39.194 54.4769L39.1465 54.5082Z" fill="#7F77FF"/>
<path d="M49.4926 66.2411C49.4638 66.2761 49.4075 66.3216 49.3822 66.3063L49.4323 66.2162C49.4287 66.212 49.4254 66.2073 49.422 66.2028C49.4252 66.1986 49.4285 66.1946 49.4316 66.1904L48.7116 65.2257L48.7304 65.2269L48.6973 65.2065L48.606 65.0842C48.6176 65.0817 48.6324 65.0853 48.6541 65.1068C48.617 64.9933 48.5723 65.0432 48.5483 64.9398C48.5472 64.9272 48.553 64.9289 48.5614 64.935L48.477 64.8603C48.5029 64.8679 48.5096 64.8128 48.5412 64.8739C48.4583 64.6883 48.3037 64.6526 48.3059 64.5576L48.3196 64.568C48.181 64.415 48.2153 64.4978 48.1677 64.4971L48.0908 64.3941L48.1105 64.2602L48.0491 64.2726C48.0337 64.2486 48.0036 64.2011 48.0279 64.1958C47.9337 64.1345 48.019 64.225 47.953 64.198C47.9126 64.0575 47.7085 63.9107 47.7622 63.8318C47.6985 63.8184 47.8138 63.9564 47.7027 63.8576C47.7554 63.7659 47.5886 63.7326 47.5496 63.6058C47.6126 63.6064 47.662 63.717 47.6231 63.5901C47.5104 63.5807 47.4926 63.3843 47.4168 63.3097C47.3599 63.3463 47.2574 63.1433 47.1338 63.0153C47.0605 62.8652 46.9777 62.72 46.886 62.5805L46.8979 62.5776C46.8244 62.5931 46.7333 62.4495 46.6483 62.3591C46.6838 62.3385 46.7099 62.3466 46.7645 62.3892L46.6949 62.2964C46.6486 62.2797 46.6083 62.2496 46.579 62.21L46.6371 62.2027C46.514 62.0848 46.4047 61.9531 46.3116 61.8101C46.2813 61.8234 46.2858 61.9116 46.2453 61.9215L46.1824 61.8373C46.1917 61.8333 46.202 61.8325 46.2119 61.8348C46.2217 61.8372 46.2305 61.8427 46.237 61.8504C46.2235 61.838 46.1815 61.8118 46.1686 61.7761L46.2534 61.8174C46.2144 61.7335 46.1962 61.8012 46.1561 61.7408C46.1863 61.7199 46.145 61.6822 46.1745 61.673C46.1884 61.6857 46.2001 61.7327 46.2282 61.7462C46.1855 61.6854 46.1573 61.6156 46.1458 61.5421C46.1334 61.5603 46.1063 61.5717 46.0668 61.5267C45.9723 61.4047 46.0704 61.4579 46.0316 61.3744C45.9889 61.3598 45.9511 61.265 45.9058 61.2959C45.879 61.2595 45.8944 61.2374 45.8958 61.2145C45.8287 61.165 45.6671 60.9196 45.6744 61.0269L45.6835 61.0456L45.6738 61.0366C45.4737 60.8595 45.3733 60.582 45.1991 60.3879L45.214 60.3772C45.118 60.2579 45.013 60.1461 44.8999 60.043C44.8725 60.0062 44.8619 59.9361 44.8911 59.9387C44.8123 59.8735 44.7492 59.7913 44.7065 59.6983C44.8033 59.7746 44.7045 59.6483 44.7983 59.7821C44.7188 59.6491 44.7214 59.6035 44.5824 59.5011C44.6536 59.518 44.5603 59.3726 44.5052 59.3224L44.543 59.4291C44.4937 59.3714 44.4485 59.3102 44.408 59.246L44.481 59.2406C44.3525 58.9428 44.0388 58.8618 43.9957 58.5939C43.9113 58.5531 44.0738 58.7494 43.9889 58.72C43.9373 58.6132 43.8949 58.5021 43.8623 58.388C43.7708 58.2082 43.6793 58.2937 43.5736 58.1131C43.572 58.1476 43.54 58.2031 43.4305 58.0911C43.3502 57.9699 43.3976 57.8926 43.4666 57.9554C43.4889 57.9821 43.4933 57.9998 43.4865 58.0031C43.5209 58.0359 43.5652 58.0795 43.55 58.0191L43.5211 58.0172C43.496 57.946 43.3747 57.7875 43.4316 57.8033C43.3493 57.7281 43.3747 57.7875 43.4142 57.8594C43.3284 57.6911 43.241 57.6258 43.1436 57.4594C43.1521 57.4911 43.1482 57.5292 43.1302 57.5047C42.9839 57.2632 43.0228 57.4307 42.9012 57.2839C42.8633 57.1771 42.9885 57.2668 42.8513 57.1301C42.7995 57.0227 42.8832 57.0751 42.9254 57.1016C42.8265 56.9971 42.7496 56.8737 42.6991 56.7388L42.7684 56.8018C42.7328 56.7682 42.7009 56.7311 42.673 56.691L42.6692 56.7595C42.643 56.7116 42.6158 56.6749 42.6311 56.6647C42.5747 56.6374 42.598 56.7429 42.5004 56.6781C42.4752 56.607 42.35 56.5169 42.3819 56.4618C42.5015 56.6552 42.4138 56.4064 42.536 56.5543C42.5034 56.5224 42.4762 56.4853 42.4554 56.4445C42.4557 56.4341 42.4696 56.4434 42.4811 56.4532C42.3933 56.2482 42.3687 56.4132 42.2355 56.2324C42.2789 56.2354 42.2543 56.1531 42.2268 56.128C42.2804 56.2009 42.2087 56.1957 42.1389 56.1444C42.0733 56.0136 42.03 56.0304 41.9873 55.9682L42.0292 56.0444C41.9854 56.0409 41.9458 55.9806 41.8774 55.9064C41.8928 55.8841 41.9461 55.9688 41.9337 55.9333C41.8207 55.8788 41.831 55.6955 41.7069 55.5944C41.6816 55.5233 41.7522 55.5516 41.7264 55.4918C41.5881 55.378 41.6497 55.3136 41.512 55.1881C41.5081 55.257 41.5223 55.2579 41.4107 55.1805L41.6156 55.403L41.4486 55.2869C41.5025 55.3601 41.5855 55.4238 41.612 55.4719C41.5281 55.4199 41.5426 55.4208 41.5392 55.4778C41.518 55.3382 41.3609 55.3036 41.3108 55.1615L41.4011 55.0991C41.311 54.8966 41.1266 54.8254 40.9809 54.5841L41.0196 54.6678C40.9623 54.6638 40.9112 54.5327 40.8427 54.4705C40.8771 54.4552 40.8538 54.4018 40.8488 54.357C40.8299 54.3771 40.728 54.191 40.6543 54.2146L40.618 54.0852C40.5067 53.9031 40.3572 53.9104 40.212 53.6951C40.2426 53.7027 40.2418 53.6742 40.2473 53.6564C40.2536 53.6397 40.2665 53.6343 40.3426 53.7124C40.2736 53.6194 40.2115 53.5248 40.2059 53.5599C40.201 53.5484 40.1947 53.5374 40.1873 53.5274L40.1744 53.5107C40.1698 53.5058 40.1637 53.5198 40.1579 53.5242L40.0797 53.621C40.0413 53.6799 39.9913 53.7303 39.9328 53.769C39.9071 53.8169 39.9154 53.8625 39.8401 53.9322C39.8271 53.9345 39.8289 53.9178 39.8289 53.9178C39.8323 53.9406 39.7478 54.0298 39.8268 54.0106C39.5877 54.0822 39.3794 54.4457 39.1683 54.5016C39.0596 54.6163 38.9251 54.7512 38.8179 54.846C38.8177 54.8316 38.8064 54.8318 38.8293 54.817C38.658 54.9199 38.8062 54.9775 38.6087 55.0926C38.4828 55.1205 38.6799 54.9914 38.6106 55.02C38.5098 54.947 38.4136 55.207 38.2508 55.2456L38.2747 55.2172C38.1603 55.2579 38.084 55.4288 37.9289 55.5367C37.9289 55.5367 37.9297 55.5226 37.9187 55.5215C37.8122 55.6779 37.6817 55.8163 37.5319 55.9314C37.5506 55.8602 37.5845 55.8632 37.5286 55.8442C37.4663 55.8968 37.5929 55.893 37.468 55.9984C37.41 56.0081 37.3016 56.0575 37.2594 56.0233L37.3828 55.9333C37.2818 55.925 37.2222 56.0481 37.149 56.0838L37.1413 56.0541C36.9541 56.1938 36.9898 56.2545 36.7758 56.3878L36.8094 56.3922C36.7316 56.528 36.6899 56.4189 36.6014 56.5373L36.528 56.4964C36.4113 56.6104 36.287 56.7162 36.1558 56.8131C36.2428 56.7044 36.3395 56.6039 36.4446 56.5128C36.3388 56.567 36.2432 56.6393 36.1621 56.7263C36.1901 56.7021 36.2203 56.6634 36.2568 56.6552C36.1699 56.7792 36.0524 56.8785 35.9159 56.9434C35.9028 56.8703 35.7469 56.9411 35.5581 57.0337L35.4868 57.0688L35.4505 57.0866C35.4387 57.0927 35.4197 57.097 35.4352 57.1094C35.4643 57.1511 35.4922 57.1924 35.5168 57.2318C35.5606 57.2934 35.5917 57.3632 35.6084 57.4371C35.6483 57.4826 35.6878 57.5276 35.7272 57.5726C35.7535 57.6029 35.7786 57.6341 35.8028 57.6661C35.8513 57.7302 35.8964 57.7977 35.9414 57.8673C36.0314 58.0065 36.121 58.1543 36.2359 58.3012C36.2451 58.1287 36.3035 58.3865 36.3805 58.3C36.4374 58.3642 36.4559 58.3918 36.4552 58.4028L36.4482 58.3858L36.4552 58.404L36.4555 58.4038L36.5586 58.6552C36.5695 58.7251 36.4892 58.604 36.4736 58.6258C36.5804 58.7834 36.4829 58.7186 36.5341 58.8376C36.5511 58.7925 36.6201 58.8556 36.6725 58.9518L36.6231 58.798C36.8303 58.9747 36.6843 59.0394 36.8924 59.2181L36.8132 59.1717C36.9122 59.2692 37.1159 59.5785 37.2694 59.6316C37.2735 59.659 37.2679 59.7034 37.2251 59.6599C37.4107 59.9314 37.7401 60.1876 37.8479 60.4259L37.8109 60.4227C37.8539 60.4669 37.9164 60.4768 37.9399 60.5551C37.9284 60.5588 37.903 60.552 37.9187 60.5757C37.987 60.6224 38.0455 60.6822 38.0906 60.7517L38.0241 60.7149C38.1868 60.9935 38.3791 61.0633 38.555 61.2672C38.4893 61.3157 38.6189 61.5338 38.6836 61.6426L38.6717 61.646C38.8769 61.9026 39.0993 62.1447 39.3373 62.3709C39.3947 62.5961 39.7423 62.9754 39.9087 63.2816C39.889 63.2304 39.9647 63.2502 40.0079 63.2944C40.0431 63.3692 40.187 63.4395 40.1194 63.4743L40.1033 63.4503C40.081 63.5434 40.1962 63.6648 40.2722 63.7701L40.3633 63.7283C40.4525 64.0861 40.9374 64.4098 40.9461 64.6351C41.0147 64.686 41.0752 64.7675 41.1434 64.8178L41.0987 64.8459C41.2097 65.021 41.3318 65.1888 41.4642 65.3481L41.4 65.3248C41.492 65.4537 41.6406 65.3939 41.7304 65.509L41.694 65.5914C41.8602 65.812 41.9723 66.0774 42.1924 66.2533C42.1806 66.2566 42.1575 66.2637 42.1283 66.2298C42.2044 66.3352 42.3866 66.6647 42.4444 66.5621C42.3903 66.6068 42.6094 66.7945 42.7233 66.8955L42.6681 66.908C42.7719 66.9425 42.8638 67.0061 42.9328 67.0913C42.9523 67.1288 42.9215 67.1455 42.899 67.0932C42.9604 67.2207 43.0029 67.1504 43.0815 67.3018L43.0176 67.2714C43.0349 67.3044 43.0587 67.3335 43.0875 67.357C43.1162 67.3805 43.1494 67.398 43.185 67.4084C43.2553 67.4679 43.3367 67.6334 43.3119 67.6784C43.3443 67.6839 43.3748 67.6971 43.4011 67.7169C43.4274 67.7366 43.4486 67.7624 43.463 67.792C43.4557 67.8117 43.4286 67.7937 43.4151 67.7846C43.5298 67.9971 43.6756 68.033 43.7332 68.1952C43.7283 68.2006 43.7249 68.2072 43.7234 68.2144C43.722 68.2216 43.7226 68.2291 43.7251 68.236C43.6127 68.0831 43.5235 67.959 43.5351 67.9682C43.497 67.9969 43.582 68.1247 43.4564 68.0666C43.5969 68.1532 43.7198 68.2658 43.8184 68.3984C43.8196 68.407 43.8191 68.4157 43.817 68.4242L43.8035 68.415C43.8192 68.4428 43.8406 68.467 43.8661 68.486C43.884 68.5236 43.9049 68.5596 43.9287 68.5938C43.9077 68.6317 44.0168 68.7474 44.061 68.8098C44.0989 68.7733 44.152 68.8586 44.1304 68.7575C44.1347 68.7695 44.1168 68.7497 44.0847 68.7103C44.0775 68.7019 44.0695 68.6943 44.0609 68.6874L44.0676 68.6889L43.9512 68.5388C43.9839 68.5535 44.0132 68.5749 44.0373 68.6015C44.0615 68.6281 44.0799 68.6594 44.0915 68.6935C44.1417 68.7047 44.1951 68.7186 44.2226 68.7283C44.227 68.8559 44.3161 69.0411 44.297 69.0905C44.3785 69.1752 44.4645 69.2824 44.551 69.3758C44.5927 69.4212 44.6369 69.4643 44.6833 69.5048C44.7263 69.5512 44.7779 69.5888 44.8352 69.6154C44.8588 69.6378 44.8754 69.6666 44.883 69.6982C44.8904 69.7255 44.9021 69.7228 44.9156 69.7304C44.9025 69.7384 44.8883 69.7447 44.8736 69.749L44.846 69.7187C44.8328 69.702 44.8167 69.6878 44.7986 69.6766C44.8354 69.7012 44.8602 69.7914 44.9317 69.7345L45.1161 69.6592C45.159 69.6431 45.1999 69.6223 45.2383 69.5972C45.2648 69.5786 45.2819 69.5601 45.2833 69.5412C45.4511 69.5076 45.2172 69.6357 45.4293 69.5389L45.4077 69.5701C45.8815 69.4986 46.0198 69.1216 46.5233 68.9992C46.4883 69.0086 46.471 69.0136 46.4591 69.007C46.9993 68.7787 47.4268 68.3208 47.9199 68.0274C48.0575 67.9382 48.0392 67.8902 48.0903 67.7999L48.1539 67.8178L48.2344 67.6563C48.3711 67.4569 48.628 67.4635 48.7704 67.1783L48.7159 67.181C48.7964 67.1073 48.9275 66.9092 48.9489 66.9521C48.9466 66.9378 48.949 66.9232 48.9556 66.9103C48.9623 66.8975 48.9728 66.8871 48.9857 66.8807L49.0101 66.8974C49.0561 66.8193 49.0983 66.7386 49.1422 66.6598C49.2888 66.5126 49.2143 66.7612 49.4062 66.5256C49.4665 66.4287 49.5342 66.2192 49.4926 66.2411ZM48.4964 64.9238C48.4979 64.929 48.4984 64.9343 48.4981 64.9397L48.4612 64.8903C48.4727 64.901 48.484 64.9112 48.4964 64.9238ZM43.9995 68.6776L44.0082 68.6786C43.9974 68.6814 43.9861 68.6812 43.9753 68.6783C43.939 68.642 43.937 68.6222 43.9414 68.6102C43.9565 68.6288 43.9746 68.6503 43.9995 68.6776V68.6776Z" fill="#660099"/>
<path d="M44.0857 68.7115C44.0915 68.7162 44.0971 68.7213 44.1022 68.7268C44.0997 68.7156 44.0966 68.7046 44.0929 68.6938L44.0676 68.689L44.0857 68.7115Z" fill="#7F77FF"/>
<path d="M45.6712 61.0208C45.6732 61.026 45.6741 61.0316 45.6739 61.0372C45.6737 61.0338 45.6739 61.0305 45.6745 61.0271L45.6712 61.0208Z" fill="#7F77FF"/>
<path d="M48.0312 64.101C47.9294 63.8649 48.026 64.1694 47.8764 63.9567L47.9834 64.1244C47.9788 64.0846 47.9732 64.0318 48.0312 64.101Z" fill="#7F77FF"/>
<path d="M47.568 63.4263C47.5127 63.3832 47.4991 63.3729 47.5327 63.4472C47.6042 63.5268 47.5555 63.4286 47.568 63.4263Z" fill="#7F77FF"/>
<path d="M44.8791 59.8937L44.9257 59.8729C44.8684 59.8088 44.9097 59.8838 44.8791 59.8937Z" fill="#7F77FF"/>
<path d="M44.1744 58.7804L44.0776 58.6803L44.1472 58.7555L44.1744 58.7804Z" fill="#7F77FF"/>
<path d="M39.2569 54.3447L39.3147 54.3713C39.3483 54.3262 39.3121 54.2699 39.2569 54.3447Z" fill="#7F77FF"/>
<path d="M36.6201 56.4238C36.6768 56.4018 36.7316 56.3753 36.784 56.3445C36.7524 56.3437 36.7209 56.3505 36.6924 56.3643C36.6639 56.3781 36.6391 56.3985 36.6201 56.4238Z" fill="#7F77FF"/>
<path d="M40.3465 63.8619L40.4334 63.9504L40.4015 63.9024L40.3465 63.8619Z" fill="#7F77FF"/>
<path d="M16.6585 49.2999L16.9961 59.0664L22.2787 71.5179C22.2787 71.5179 20.9007 77.9743 23.6568 77.7437C26.4129 77.5131 23.8865 71.2874 23.8865 71.2874L21.36 58.1441L20.9007 47.3066L16.6585 49.2999Z" fill="#A0616A"/>
<path d="M18.6039 42.4643L18.7301 41.5932L19.7522 42.0032L22.9677 47.076L16.307 50.5348L18.6039 42.4643Z" fill="#CFCCE0"/>
</g>
<defs>
<clipPath id="clip0_23:5">
<rect width="164" height="117" fill="white"/>
</clipPath>
</defs>
</svg>
