<svg width="136" height="114" viewBox="0 0 136 114" fill="none" xmlns="http://www.w3.org/2000/svg">
<path d="M125.206 111.805L123.176 111.804L122.21 103.967H125.206L125.206 111.805Z" fill="#9E616A"/>
<path d="M125.724 113.774L119.177 113.774V113.691C119.177 113.015 119.445 112.366 119.923 111.888C120.401 111.41 121.049 111.141 121.725 111.141H121.725L125.724 111.141L125.724 113.774Z" fill="#2F2E41"/>
<path d="M117.422 111.805L115.392 111.804L114.426 103.967H117.422L117.422 111.805Z" fill="#9E616A"/>
<path d="M117.94 113.774L111.393 113.774V113.691C111.393 113.015 111.661 112.366 112.139 111.888C112.617 111.41 113.265 111.141 113.941 111.141H113.941L117.94 111.141L117.94 113.774Z" fill="#2F2E41"/>
<path d="M29.7006 113.471V50.5194C29.7006 50.1317 29.8545 49.7598 30.1284 49.4857C30.4024 49.2115 30.7739 49.0575 31.1613 49.0575H37.68C38.0674 49.0575 38.439 49.2115 38.7129 49.4857C38.9869 49.7598 39.1408 50.1317 39.1408 50.5194V113.635L29.7006 113.471Z" fill="#3F3D56"/>
<path d="M51.2308 113.668V63.6132C51.2308 63.2255 51.3847 62.8537 51.6587 62.5795C51.9326 62.3054 52.3042 62.1514 52.6916 62.1514H59.2103C59.5977 62.1514 59.9693 62.3054 60.2432 62.5795C60.5171 62.8537 60.671 63.2255 60.671 63.6132V113.561L51.2308 113.668Z" fill="#3F3D56"/>
<path d="M12.973 54.1987C12.8771 54.1987 12.7832 54.1709 12.7027 54.1186C12.6222 54.0663 12.5586 53.9919 12.5195 53.9042C12.4804 53.8165 12.4675 53.7194 12.4823 53.6245C12.4972 53.5296 12.5392 53.4411 12.6032 53.3696L34.3994 29.0397L55.85 41.0943L77.4281 3.88483L99.4102 21.9917C99.4606 22.0332 99.5024 22.0842 99.5331 22.1418C99.5639 22.1995 99.5829 22.2626 99.5893 22.3276C99.5956 22.3927 99.5891 22.4583 99.57 22.5208C99.551 22.5833 99.5199 22.6414 99.4784 22.6919C99.4369 22.7423 99.3859 22.7841 99.3283 22.8148C99.2706 22.8455 99.2075 22.8645 99.1426 22.8708C99.0776 22.8771 99.012 22.8705 98.9496 22.8514C98.8871 22.8323 98.8291 22.8011 98.7787 22.7596L77.7002 5.39693L56.2177 42.4414L34.6075 30.2972L13.3431 54.0334C13.2966 54.0855 13.2395 54.1272 13.1757 54.1557C13.112 54.1842 13.0429 54.1988 12.973 54.1987Z" fill="#3F3D56"/>
<path d="M12.8903 58.3424C15.4515 58.3424 17.5276 56.2646 17.5276 53.7015C17.5276 51.1385 15.4515 49.0607 12.8903 49.0607C10.3292 49.0607 8.25305 51.1385 8.25305 53.7015C8.25305 56.2646 10.3292 58.3424 12.8903 58.3424Z" fill="#F5DB39"/>
<path d="M34.4206 34.3093C36.9817 34.3093 39.0579 32.2315 39.0579 29.6684C39.0579 27.1053 36.9817 25.0275 34.4206 25.0275C31.8595 25.0275 29.7833 27.1053 29.7833 29.6684C29.7833 32.2315 31.8595 34.3093 34.4206 34.3093Z" fill="#660099"/>
<path d="M55.951 46.4087C58.5121 46.4087 60.5883 44.3309 60.5883 41.7678C60.5883 39.2047 58.5121 37.127 55.951 37.127C53.3898 37.127 51.3137 39.2047 51.3137 41.7678C51.3137 44.3309 53.3898 46.4087 55.951 46.4087Z" fill="#660099"/>
<path d="M77.4813 9.28174C80.0424 9.28174 82.1186 7.20395 82.1186 4.64087C82.1186 2.07779 80.0424 0 77.4813 0C74.9202 0 72.844 2.07779 72.844 4.64087C72.844 7.20395 74.9202 9.28174 77.4813 9.28174Z" fill="#F5DB39"/>
<path d="M118.886 43.8455C121.447 43.8455 123.523 41.7677 123.523 39.2046C123.523 36.6415 121.447 34.5637 118.886 34.5637C116.325 34.5637 114.248 36.6415 114.248 39.2046C114.248 41.7677 116.325 43.8455 118.886 43.8455Z" fill="#F5DB39"/>
<path d="M117.246 75.3571C118.982 75.5664 123.42 73.9818 123.661 76.3924C125.945 83.1225 125.877 108.921 125.877 108.921L122.399 109.087C122.399 109.087 119.62 88.5883 118.306 84.2029C117.647 89.5331 117.762 109.916 117.762 109.916L114.615 110.081C114.615 110.081 111.793 92.7248 111.777 87.6305C111.434 83.899 112.275 78.3693 111.915 74.7621C113.636 75.3079 115.447 75.5101 117.246 75.3571L117.246 75.3571Z" fill="#3F3D56"/>
<path d="M94.2915 113.445V40.8896C94.2915 39.9591 94.9455 39.2046 95.7522 39.2046H102.271C103.078 39.2046 103.732 39.9589 103.732 40.8896V113.635L94.2915 113.445Z" fill="#3F3D56"/>
<path d="M111.342 55.8323C110.646 54.4081 109.795 53.0647 108.806 51.8262C108.6 51.5844 108.411 51.3273 108.243 51.0572C107.887 50.4389 107.781 49.713 107.556 49.0367C106.926 47.1406 105.356 45.6174 104.974 43.6566C104.835 42.9439 103.66 45.0154 103.969 45.8992C104.52 47.4986 104.591 49.1925 105.293 50.7373C105.996 52.282 106.82 53.7638 107.427 55.3433C107.771 56.24 108.046 57.1665 108.551 57.9953C109.056 58.824 109.845 59.5185 110.797 59.6428C110.79 59.042 110.882 58.4441 111.067 57.8726C111.274 57.2196 111.642 56.4505 111.342 55.8323Z" fill="#9E616A"/>
<path d="M121.761 56.9064C121.718 55.7344 121.901 54.5652 122.299 53.4622C122.451 53.0395 122.63 52.6102 122.615 52.1611C122.594 51.7434 122.395 51.3605 122.215 50.9826C121.592 49.6815 121.155 48.3025 120.724 46.9268L119.896 44.3329C119.626 44.1348 121.203 44.0661 121.539 44.5318C122.639 46.06 123.472 47.8152 124.343 49.4843C124.565 49.882 124.754 50.2972 124.909 50.7257C125.122 51.4202 125.223 52.1442 125.207 52.8705C125.207 54.2279 125.028 55.5804 124.843 56.9262C124.725 57.7699 124.571 58.6881 123.934 59.2467C123.271 58.3981 122.605 57.5693 121.761 56.9064Z" fill="#9E616A"/>
<path d="M117.382 55.5635C119.28 55.5635 120.818 54.0237 120.818 52.1243C120.818 50.2248 119.28 48.6851 117.382 48.6851C115.484 48.6851 113.945 50.2248 113.945 52.1243C113.945 54.0237 115.484 55.5635 117.382 55.5635Z" fill="#9E616A"/>
<path d="M114.588 48.693C114.55 48.5886 114.541 48.4755 114.563 48.3665C114.585 48.2574 114.638 48.1568 114.714 48.0759C114.8 48.0082 114.914 47.983 115.006 47.9184C115.137 47.8083 115.244 47.6728 115.32 47.5201C115.555 47.1913 115.899 46.9564 116.29 46.8569C116.681 46.7575 117.095 46.8 117.458 46.977C118.026 47.2745 118.369 47.8701 118.874 48.2712C119.131 48.479 119.428 48.6333 119.686 48.8411C120.203 49.2878 120.57 49.8824 120.739 50.5446C120.906 51.2023 121.004 51.8759 121.03 52.5542C121.057 52.7577 121.049 52.9643 121.007 53.1651C120.954 53.3336 120.877 53.4929 120.776 53.6375C120.256 54.4246 119.572 55.1395 118.715 55.5457C117.857 55.9519 116.814 56.0181 115.969 55.5929C115.884 55.5585 115.81 55.4999 115.758 55.4245C115.71 55.3095 115.698 55.1826 115.725 55.0608C115.771 54.5797 115.676 54.0955 115.451 53.6675C115.294 53.3527 115.058 53.0818 114.932 52.756C114.815 52.3912 114.765 52.0083 114.784 51.6256C114.769 50.6342 114.836 49.6471 114.588 48.693Z" fill="#2D293D"/>
<path d="M8.1701 113.544V78.5151C8.1701 78.0659 8.82413 77.7016 9.63085 77.7016H16.1496C16.9563 77.7016 17.6103 78.0662 17.6103 78.5151V113.635L8.1701 113.544Z" fill="#3F3D56"/>
<path d="M135.835 114H0.165618C0.121693 114 0.0795675 113.983 0.0485082 113.951C0.0174488 113.92 0 113.878 0 113.834C0 113.79 0.0174488 113.748 0.0485082 113.717C0.0795675 113.686 0.121693 113.669 0.165618 113.669H135.834C135.878 113.669 135.92 113.686 135.951 113.717C135.983 113.748 136 113.79 136 113.834C136 113.878 135.983 113.92 135.951 113.951C135.92 113.983 135.878 114 135.834 114H135.835Z" fill="#E6E6E6"/>
<path d="M72.761 113.421V31.0832C72.761 30.0273 73.415 29.1712 74.2217 29.1712H80.7404C81.5471 29.1712 82.2012 30.0273 82.2012 31.0832V113.635L72.761 113.421Z" fill="#660099"/>
<path d="M103.873 45.4748C104.696 45.4748 105.363 44.807 105.363 43.9831C105.363 43.1593 104.696 42.4914 103.873 42.4914C103.049 42.4914 102.382 43.1593 102.382 43.9831C102.382 44.807 103.049 45.4748 103.873 45.4748Z" fill="#A0616A"/>
<path d="M120.434 44.8119C121.258 44.8119 121.925 44.144 121.925 43.3201C121.925 42.4963 121.258 41.8284 120.434 41.8284C119.611 41.8284 118.944 42.4963 118.944 43.3201C118.944 44.144 119.611 44.8119 120.434 44.8119Z" fill="#A0616A"/>
<path d="M124.056 61.7858C124.202 61.6527 125.387 54.7129 125.381 54.5565C125.362 53.7015 122.756 52.725 122.234 53.0648C121.742 53.3853 120.885 57.0632 120.333 57.733L119.75 56.7112H115.112L114.831 57.2336C114.223 56.8667 113.675 56.5285 113.48 56.4165C113.413 56.3711 113.34 56.3351 113.263 56.3096C112.781 56.2018 112.329 55.989 111.938 55.6864C111.557 55.3931 109.789 52.3206 109.316 52.4018C108.781 52.4913 106.976 54.0526 106.997 55.551C107.224 55.5461 110.179 61.4594 110.221 61.6798C110.448 62.6113 111.197 76.1958 111.439 76.8289C112.552 76.7212 111.673 76.5289 112.751 76.8289C113.912 77.1521 115.138 76.8024 116.335 76.6731C116.834 76.6237 117.335 76.6016 117.836 76.6068C119.657 76.6151 122.258 76.7162 124.022 77.1687C124.031 76.0118 123.016 73.509 122.64 72.4168C122.591 72.0903 122.593 71.7582 122.645 71.4322C122.693 71.0328 123.663 62.2275 124.056 61.7858Z" fill="#E6E6E6"/>
</svg>
