<svg width="187" height="113" viewBox="0 0 187 113" fill="none" xmlns="http://www.w3.org/2000/svg">
<g clip-path="url(#clip0_25:227)">
<path d="M107.936 90.7836C107.499 90.7836 107.072 90.9133 106.709 91.1563C106.346 91.3994 106.063 91.7448 105.896 92.1489C105.729 92.5531 105.686 92.9978 105.771 93.4268C105.856 93.8559 106.066 94.25 106.375 94.5593C106.683 94.8686 107.077 95.0793 107.505 95.1646C107.933 95.25 108.377 95.2062 108.78 95.0388C109.184 94.8714 109.528 94.5879 109.771 94.2242C110.013 93.8604 110.143 93.4328 110.143 92.9954C110.143 92.4088 109.91 91.8462 109.496 91.4314C109.082 91.0166 108.521 90.7836 107.936 90.7836ZM107.936 94.3565C107.667 94.3565 107.404 94.2767 107.181 94.1271C106.958 93.9775 106.783 93.765 106.681 93.5162C106.578 93.2675 106.551 92.9938 106.603 92.7298C106.656 92.4658 106.785 92.2232 106.975 92.0329C107.165 91.8425 107.407 91.7129 107.671 91.6604C107.934 91.6078 108.207 91.6348 108.455 91.7378C108.704 91.8408 108.916 92.0153 109.065 92.2391C109.214 92.463 109.294 92.7261 109.294 92.9954V92.9954C109.294 93.3564 109.151 93.7026 108.896 93.9578C108.641 94.2131 108.296 94.3565 107.936 94.3565Z" fill="#E4E4E4"/>
<path d="M99.4461 89.0822H107.936V97.5017C107.936 97.7957 107.819 98.0775 107.612 98.2854C107.404 98.4932 107.123 98.6099 106.83 98.6099H100.552C100.259 98.6099 99.9774 98.4932 99.77 98.2854C99.5626 98.0775 99.4461 97.7957 99.4461 97.5017V89.0822Z" fill="#E4E4E4"/>
<path d="M127.771 98.8026H0.172175C0.124854 98.7974 0.0811164 98.7749 0.0493435 98.7393C0.0175707 98.7038 0 98.6578 0 98.6101C0 98.5624 0.0175707 98.5164 0.0493435 98.4809C0.0811164 98.4453 0.124854 98.4228 0.172175 98.4176H127.771C127.818 98.4228 127.862 98.4453 127.894 98.4809C127.925 98.5164 127.943 98.5624 127.943 98.6101C127.943 98.6578 127.925 98.7038 127.894 98.7393C127.862 98.7749 127.818 98.7974 127.771 98.8026Z" fill="#CACACA"/>
<path d="M17.1755 95.1664L16.3864 99.0766L31.0613 103.988L32.2262 98.2169L17.1755 95.1664Z" fill="#FFB6B6"/>
<path d="M18.6509 94.4273L17.0966 102.128L17.0965 102.128C16.8337 103.429 16.0658 104.573 14.9616 105.307C13.8575 106.041 12.5075 106.306 11.2088 106.043L11.0496 106.01L13.5945 93.4025L18.6509 94.4273Z" fill="#2F2E41"/>
<path d="M33.8053 41.3065C39.3084 41.3065 43.7696 36.836 43.7696 31.3215C43.7696 25.807 39.3084 21.3365 33.8053 21.3365C28.3021 21.3365 23.8409 25.807 23.8409 31.3215C23.8409 36.836 28.3021 41.3065 33.8053 41.3065Z" fill="#FEB8B8"/>
<path d="M43.112 22.7074C41.6223 20.2833 39.2903 18.4971 36.5651 17.6925L35.3418 18.5871V17.4255C34.6873 17.3252 34.0249 17.2865 33.3632 17.31L32.3078 18.2669V17.3895C30.7452 17.5841 29.2398 18.101 27.8865 18.9077C26.5332 19.7143 25.3614 20.7932 24.4449 22.0762C22.153 25.3872 21.7661 29.9934 24.0203 33.3309C24.6391 31.4252 25.3902 29.6371 26.0091 27.7316C26.4955 27.798 26.9884 27.8004 27.4754 27.7387L28.2283 25.9783L28.4386 27.6642C30.7722 27.4605 34.2334 27.0132 36.4456 26.6034L36.2305 25.31L37.5175 26.3847C38.1953 26.2284 38.5977 26.0865 38.5645 25.9781C40.2098 28.6361 42.2234 30.3337 43.8685 32.9917C44.4934 29.2438 45.2126 26.1275 43.112 22.7074Z" fill="#2F2E41"/>
<path d="M37.0474 96.6611C51.2171 96.6611 62.704 93.4414 62.704 89.4697C62.704 85.4979 51.2171 82.2782 37.0474 82.2782C22.8776 82.2782 11.3907 85.4979 11.3907 89.4697C11.3907 93.4414 22.8776 96.6611 37.0474 96.6611Z" fill="#2F2E41"/>
<path d="M55.2357 56.9982C54.8931 54.9325 54.5396 52.8272 53.5816 50.9664C52.9519 49.7475 51.9524 48.586 50.605 48.3449C50.3396 48.3212 50.0787 48.2607 49.8299 48.1652C49.4351 47.9746 44.1297 44.9397 43.2865 44.4111C42.5625 43.9573 41.4195 43.1171 40.8433 43.1171C40.2635 43.1043 38.0404 43.6228 29.3634 42.9431C27.9039 43.5302 26.4905 44.2265 25.1353 45.0263C25.1074 45.0078 16.1294 49.8389 15.7921 49.8262C15.1533 49.7993 14.5596 50.2091 14.1934 50.7252C13.8273 51.2413 13.6556 51.8801 13.4758 52.4979C15.4367 56.8739 17.2309 61.2555 19.192 65.6315C19.2838 65.7963 19.3326 65.9817 19.3338 66.1705C19.2944 66.3664 19.211 66.5507 19.0899 66.7095C18.1281 68.2575 18.1587 70.2046 18.2638 72.0241C18.3689 73.8435 18.4989 75.7654 17.6875 77.3963C17.4668 77.844 17.1798 78.2538 16.9698 78.7016C16.4782 79.7156 16.3006 82.959 16.5877 84.0485L52.5612 85.0812C51.7878 82.9507 55.2357 56.9982 55.2357 56.9982Z" fill="#6C63FF"/>
<path d="M10.3663 65.8255C10.2945 66.3458 10.2873 66.873 10.3448 67.3951L10.8604 74.815C10.9088 75.5144 10.9564 76.212 11.0219 76.9096C11.1456 78.2634 11.3304 79.6064 11.5598 80.9476C11.565 81.138 11.6453 81.3186 11.7832 81.4497C11.9211 81.5808 12.1053 81.6517 12.2953 81.6469C14.565 82.1281 16.9099 82.1089 19.2262 81.9778C22.7608 81.7801 31.8037 81.4061 32.3561 80.6869C32.9086 79.9678 32.5867 78.8045 31.8663 78.223C31.1459 77.6414 19.2126 76.2237 19.2126 76.2237C19.3292 75.2978 19.6809 74.4258 20.0146 73.5467C20.6139 71.9874 21.1737 70.377 21.1845 68.7067C21.1952 67.0364 20.5673 65.2803 19.2018 64.3234C18.0786 63.5378 16.6325 63.3921 15.2638 63.4245C14.268 63.4531 12.5474 63.2141 11.6378 63.6042C10.918 63.9219 10.5008 65.1192 10.3663 65.8255Z" fill="#FBBEBE"/>
<path d="M55.2995 82.5983C55.8969 82.37 56.5554 82.4525 57.1959 82.539C59.2575 82.8212 61.3494 83.1107 63.2602 83.9359C64.1573 84.3209 65.0114 84.8349 65.6178 85.5914C66.1557 86.2728 66.47 87.1071 66.7679 87.9287L67.457 89.8201C67.7499 90.5307 67.9519 91.2755 68.0581 92.0369C68.2734 94.3005 66.7285 96.4345 64.7855 97.6104C62.8424 98.7864 60.5549 99.2051 58.3264 99.6438C56.0978 100.082 53.8607 100.568 51.6414 101.082C50.6062 101.351 49.5559 101.558 48.4961 101.702C46.1207 101.972 43.6376 101.575 41.3804 102.362C40.4834 102.677 39.6024 103.144 38.6719 103.362C38.0533 103.492 37.428 103.588 36.7987 103.648L32.5268 104.137C31.6582 104.253 30.7836 104.32 29.9074 104.338C28.0415 104.338 26.2061 103.895 24.3942 103.453C24.2017 103.419 24.0184 103.344 23.8563 103.235C23.5693 103.008 23.5065 102.607 23.4652 102.244C23.2822 100.637 23.1221 99.028 22.985 97.4172C22.9419 96.894 22.9096 96.3277 23.1949 95.8872C23.5538 95.3482 24.2536 95.1788 24.8923 95.0745C27.6007 94.6305 30.3445 94.4397 33.0882 94.5045C34.1305 93.46 35.8494 93.4547 37.2148 92.8864C37.7171 92.6552 38.2033 92.3903 38.6699 92.0935C41.1123 90.6656 43.8416 89.8015 46.6593 89.5639C47.2111 89.5471 47.7594 89.4687 48.2939 89.3302C49.3504 89.0013 50.3142 88.1058 51.3995 88.3252C51.534 87.9531 51.6273 87.4549 51.9374 87.1997C52.0911 87.0684 52.2818 86.9804 52.4236 86.8401C52.7233 86.5363 52.7502 86.058 52.7052 85.6337C52.6603 85.2095 52.5598 84.7744 52.6693 84.3608C52.7148 84.2042 52.7819 84.0547 52.8685 83.9167C53.4048 82.9865 54.2176 82.5084 55.2995 82.5983Z" fill="#2F2E41"/>
<path d="M13.372 52.6311C13.1973 52.8145 13.0618 53.0317 12.9738 53.2694C11.5235 56.5447 10.6669 60.0525 10.4441 63.6288C10.448 63.8032 10.4079 63.9757 10.3275 64.1304C10.2482 64.2333 10.1599 64.329 10.0637 64.4163C9.97984 64.5159 9.91638 64.6311 9.87694 64.7553C9.83751 64.8795 9.82287 65.0103 9.83387 65.1402C9.84487 65.27 9.88129 65.3965 9.94105 65.5122C10.0008 65.628 10.0827 65.7308 10.1822 65.8149C10.1985 65.8286 10.2152 65.8419 10.2324 65.8546C10.5284 65.2964 11.237 65.1139 11.8669 65.0654C14.8829 64.8263 17.8289 66.2323 20.8539 66.1262C20.6404 65.3872 20.3335 64.6771 20.1594 63.9293C19.3897 60.6085 21.3095 56.9931 20.1325 53.7945C19.8974 53.1545 19.5046 52.5252 18.8856 52.2448C18.6293 52.1412 18.3611 52.07 18.0873 52.033C17.3229 51.8946 15.8013 51.3031 15.0623 51.5404C14.7895 51.6286 14.6819 51.8856 14.4558 52.0409C14.1124 52.2607 13.6567 52.3416 13.372 52.6311Z" fill="#6C63FF"/>
<path d="M55.2573 63.6042C54.3477 63.2141 52.6271 63.4531 51.6312 63.4245C50.2625 63.3921 48.8164 63.5378 47.6932 64.3234C46.3278 65.2803 45.6998 67.0364 45.7106 68.7067C45.7213 70.377 46.2811 71.9874 46.8804 73.5467C47.2141 74.4258 47.5658 75.2978 47.6825 76.2237C47.6825 76.2237 35.7491 77.6414 35.0288 78.223C34.3084 78.8045 33.9864 79.9678 34.5389 80.6869C35.0914 81.4061 52.3301 82.1281 54.5997 81.6469C54.7897 81.6517 54.9739 81.5808 55.1118 81.4497C55.2497 81.3186 55.3301 81.138 55.3353 80.9476C55.5646 79.6064 55.7494 78.2634 55.8731 76.9096C55.9386 76.212 55.9863 75.5144 56.0347 74.815L56.5503 67.3951C56.6078 66.873 56.6005 66.3458 56.5288 65.8255C56.3943 65.1192 55.9771 63.9219 55.2573 63.6042Z" fill="#FBBEBE"/>
<path d="M52.4391 52.0409C52.213 51.8856 52.1055 51.6286 51.8327 51.5404C51.0937 51.3031 49.5721 51.8946 48.8077 52.033C48.5339 52.07 48.2657 52.1412 48.0094 52.2448C47.3904 52.5252 46.9976 53.1545 46.7625 53.7945C45.5855 56.9931 47.5053 60.6085 46.7356 63.9293C46.5615 64.6771 46.2546 65.3872 46.0411 66.1262C49.0661 66.2323 52.0121 64.8263 55.028 65.0654C55.6579 65.1139 56.3666 65.2964 56.6626 65.8546C56.6798 65.8419 56.6965 65.8287 56.7128 65.8149C56.8122 65.7308 56.8942 65.628 56.9539 65.5122C57.0137 65.3965 57.0501 65.27 57.0611 65.1402C57.0721 65.0103 57.0575 64.8795 57.018 64.7553C56.9786 64.6311 56.9151 64.5159 56.8313 64.4163C56.7351 64.329 56.6468 64.2333 56.5675 64.1304C56.4871 63.9757 56.447 63.8032 56.4509 63.6288C56.2281 60.0525 55.3714 56.5447 53.9212 53.2694C53.8332 53.0317 53.6977 52.8145 53.523 52.6311C53.2383 52.3416 52.7826 52.2607 52.4391 52.0409Z" fill="#6C63FF"/>
<path d="M57.484 100.748L56.9595 104.703L41.4883 104.557L42.2625 98.7208L57.484 100.748Z" fill="#FFB6B6"/>
<path d="M61.4432 100.249L59.752 113L59.591 112.979C58.2775 112.804 57.0871 112.113 56.2818 111.059C55.4764 110.004 55.1219 108.672 55.2964 107.356L55.2964 107.356L56.3294 99.5679L61.4432 100.249Z" fill="#2F2E41"/>
<path d="M21.0865 84.5995C21.0865 84.7793 20.8049 84.5995 20.7791 84.407C20.5818 82.9525 19.4298 81.7532 18.0878 81.1707C16.7458 80.5883 15.2171 80.5576 13.7639 80.6961C11.5661 80.9045 9.09898 81.7479 8.29524 83.8064C8.10507 84.2876 6.32355 88.5726 6.4974 89.5362C6.96573 92.1072 8.72036 94.3061 10.8465 95.8289C12.9726 97.3518 15.4569 98.2615 17.9349 99.0821C24.4866 101.247 31.2086 102.856 38.0297 103.891C39.1349 104.059 40.2509 104.213 41.3094 104.569C42.2566 104.887 43.143 105.364 44.0689 105.738C46.2219 106.604 48.5382 106.914 50.8329 107.218C51.224 107.268 51.6725 107.304 51.9614 107.038C52.3347 106.691 52.2112 106.087 52.1049 105.589C51.7155 103.695 52.0423 101.724 53.0218 100.058C53.406 99.4113 53.9055 98.7478 53.8329 97.9988C53.7468 97.125 52.8783 96.5065 52.0135 96.3662C51.1487 96.2259 50.2696 96.4328 49.401 96.546C49.1033 96.6145 48.7914 96.5835 48.5129 96.4578C48.3838 96.3705 48.2668 96.2666 48.1648 96.1487C47.5666 95.5704 46.801 95.1968 45.9777 95.0815C45.1545 94.9662 44.316 95.1151 43.5825 95.5069C43.2613 95.6867 42.7757 95.2857 42.4414 95.1348L38.6682 93.4231C34.3336 91.4581 29.9773 89.4839 25.3914 88.2398C25.0255 88.1677 24.6777 88.0228 24.3687 87.8136C24.1408 87.6338 23.9776 87.3901 23.7676 87.1897C23.31 86.7564 22.6726 86.5837 22.1242 86.2763C21.5757 85.9689 20.9608 85.2161 21.0865 84.5995Z" fill="#2F2E41"/>
<path d="M30.8542 82.0013C32.3395 82.0013 33.5435 80.7948 33.5435 79.3064C33.5435 77.818 32.3395 76.6115 30.8542 76.6115C29.3689 76.6115 28.1648 77.818 28.1648 79.3064C28.1648 80.7948 29.3689 82.0013 30.8542 82.0013Z" fill="#FBBEBE"/>
<path d="M36.8092 82.0013C38.2945 82.0013 39.4986 80.7948 39.4986 79.3064C39.4986 77.818 38.2945 76.6115 36.8092 76.6115C35.3239 76.6115 34.1199 77.818 34.1199 79.3064C34.1199 80.7948 35.3239 82.0013 36.8092 82.0013Z" fill="#FBBEBE"/>
<path d="M53.4101 85.3791H16.4621C16.0308 85.3786 15.6172 85.2067 15.3122 84.901C15.0071 84.5954 14.8355 84.181 14.835 83.7487V61.287C14.8355 60.8547 15.0071 60.4403 15.3122 60.1347C15.6172 59.829 16.0308 59.6571 16.4621 59.6566H53.4101C53.8414 59.6571 54.255 59.829 54.56 60.1347C54.8651 60.4403 55.0367 60.8547 55.0372 61.287V83.7487C55.0367 84.181 54.8651 84.5954 54.56 84.901C54.255 85.2067 53.8414 85.3786 53.4101 85.3791Z" fill="#3F3D56"/>
<path d="M34.8465 73.5967C35.441 73.5967 35.923 73.1137 35.923 72.518C35.923 71.9222 35.441 71.4392 34.8465 71.4392C34.2519 71.4392 33.77 71.9222 33.77 72.518C33.77 73.1137 34.2519 73.5967 34.8465 73.5967Z" fill="white"/>
<path d="M166.747 40.5111H118.743C118.488 40.5108 118.244 40.4093 118.064 40.2289C117.884 40.0484 117.783 39.8038 117.782 39.5486V30.4821H118.167V39.5486C118.167 39.7017 118.227 39.8485 118.335 39.9568C118.444 40.065 118.59 40.1259 118.743 40.1261H166.747C166.9 40.1259 167.046 40.065 167.154 39.9568C167.262 39.8485 167.323 39.7017 167.323 39.5486V30.4187H167.707V39.5486C167.707 39.8038 167.606 40.0484 167.426 40.2289C167.246 40.4093 167.001 40.5108 166.747 40.5111Z" fill="#3F3D56"/>
<path d="M184.148 30.2897H71.3446V30.6747H184.148V30.2897Z" fill="#3F3D56"/>
<path d="M71.3528 33.7634C73.1778 33.7634 74.6572 32.2809 74.6572 30.4521C74.6572 28.6233 73.1778 27.1407 71.3528 27.1407C69.5277 27.1407 68.0483 28.6233 68.0483 30.4521C68.0483 32.2809 69.5277 33.7634 71.3528 33.7634Z" fill="#6C63FF"/>
<path d="M104.932 33.7634C106.757 33.7634 108.237 32.2809 108.237 30.4521C108.237 28.6233 106.757 27.1407 104.932 27.1407C103.107 27.1407 101.628 28.6233 101.628 30.4521C101.628 32.2809 103.107 33.7634 104.932 33.7634Z" fill="#6C63FF"/>
<path d="M127.721 43.4962C129.546 43.4962 131.026 42.0136 131.026 40.1849C131.026 38.3561 129.546 36.8735 127.721 36.8735C125.896 36.8735 124.417 38.3561 124.417 40.1849C124.417 42.0136 125.896 43.4962 127.721 43.4962Z" fill="#3F3D56"/>
<path d="M145.046 43.4962C146.871 43.4962 148.351 42.0136 148.351 40.1849C148.351 38.3561 146.871 36.8735 145.046 36.8735C143.221 36.8735 141.742 38.3561 141.742 40.1849C141.742 42.0136 143.221 43.4962 145.046 43.4962Z" fill="#CCCCCC"/>
<path d="M136.651 33.7634C138.476 33.7634 139.955 32.2809 139.955 30.4521C139.955 28.6233 138.476 27.1407 136.651 27.1407C134.826 27.1407 133.346 28.6233 133.346 30.4521C133.346 32.2809 134.826 33.7634 136.651 33.7634Z" fill="#6C63FF"/>
<path d="M183.696 33.7634C185.521 33.7634 187 32.2809 187 30.4521C187 28.6233 185.521 27.1407 183.696 27.1407C181.871 27.1407 180.391 28.6233 180.391 30.4521C180.391 32.2809 181.871 33.7634 183.696 33.7634Z" fill="#6C63FF"/>
<path d="M167.515 33.7634C169.34 33.7634 170.82 32.2809 170.82 30.4521C170.82 28.6233 169.34 27.1407 167.515 27.1407C165.69 27.1407 164.211 28.6233 164.211 30.4521C164.211 32.2809 165.69 33.7634 167.515 33.7634Z" fill="#6C63FF"/>
<path d="M130.712 0H124.583V4.23296H130.712V0Z" fill="#3F3D56"/>
<path d="M74.4415 0H68.3124V4.23296H74.4415V0Z" fill="#6C63FF"/>
<path d="M95.2021 0H89.0729V4.23296H95.2021V0Z" fill="#CCCCCC"/>
<path d="M81.5998 30.6746C81.5489 30.6746 81.5 30.6543 81.464 30.6182C81.428 30.5821 81.4077 30.5332 81.4077 30.4821V20.9801C81.408 20.7249 81.5093 20.4802 81.6894 20.2998C81.8694 20.1194 82.1136 20.0179 82.3682 20.0176H91.7185C91.7695 20.0176 91.8184 20.0379 91.8544 20.074C91.8904 20.1101 91.9106 20.159 91.9106 20.2101C91.9106 20.2611 91.8904 20.3101 91.8544 20.3462C91.8184 20.3823 91.7695 20.4026 91.7185 20.4026H82.3682C82.2154 20.4027 82.0689 20.4636 81.9609 20.5719C81.8528 20.6802 81.7921 20.827 81.7919 20.9801V30.4821C81.7919 30.5332 81.7717 30.5821 81.7356 30.6182C81.6996 30.6543 81.6508 30.6746 81.5998 30.6746Z" fill="#3F3D56"/>
<path d="M92.1579 23.4495C93.9829 23.4495 95.4624 21.967 95.4624 20.1382C95.4624 18.3094 93.9829 16.8269 92.1579 16.8269C90.3329 16.8269 88.8535 18.3094 88.8535 20.1382C88.8535 21.967 90.3329 23.4495 92.1579 23.4495Z" fill="#E6E6E6"/>
<path d="M155.558 30.4821H155.173V20.9801C155.174 20.7249 155.275 20.4802 155.455 20.2998C155.635 20.1194 155.879 20.0179 156.134 20.0176H165.484V20.4026H156.134C155.981 20.4027 155.835 20.4636 155.727 20.5719C155.618 20.6802 155.558 20.827 155.558 20.9801V30.4821Z" fill="#3F3D56"/>
<path d="M165.924 23.4495C167.749 23.4495 169.228 21.967 169.228 20.1382C169.228 18.3094 167.749 16.8269 165.924 16.8269C164.099 16.8269 162.619 18.3094 162.619 20.1382C162.619 21.967 164.099 23.4495 165.924 23.4495Z" fill="#E6E6E6"/>
</g>
<defs>
<clipPath id="clip0_25:227">
<rect width="187" height="113" fill="white"/>
</clipPath>
</defs>
</svg>
