<svg width="130" height="110" viewBox="0 0 130 110" fill="none" xmlns="http://www.w3.org/2000/svg">
<g clip-path="url(#clip0_11:2)">
<path d="M14.3647 104.812C14.3647 108.276 12.3124 109.485 9.78046 109.485C9.7218 109.485 9.66324 109.484 9.60477 109.483C9.48746 109.481 9.37127 109.475 9.25647 109.467C6.97145 109.305 5.19617 108.033 5.19617 104.812C5.19617 101.478 9.44249 97.2713 9.76146 96.96L9.76202 96.9594C9.77431 96.9474 9.78046 96.9415 9.78046 96.9415C9.78046 96.9415 14.3647 101.348 14.3647 104.812Z" fill="#660099"/>
<path d="M9.61341 108.955L11.2901 106.605L9.60922 109.213L9.60476 109.483C9.48744 109.481 9.37125 109.475 9.25646 109.467L9.43717 106.002L9.43577 105.975L9.43885 105.97L9.45588 105.642L7.77081 103.027L9.46119 105.397L9.4651 105.466L9.60168 102.848L8.15906 100.146L9.61928 102.388L9.76144 96.96L9.762 96.9415V96.9594L9.73827 101.24L11.1745 99.543L9.7324 101.609L9.69441 103.953L11.0354 101.703L9.68883 104.298L9.6676 105.601L11.6144 102.47L9.66034 106.056L9.61341 108.955Z" fill="#3F3D56"/>
<path d="M112.647 60.8001C112.647 87.9603 100.356 109.387 85.2188 109.978C65.4792 110.749 39.6804 91.0028 57.7904 60.8001C71.7455 37.5265 70.0705 11.622 85.2188 11.622C100.367 11.622 112.647 33.6398 112.647 60.8001Z" fill="#F2F2F2"/>
<path d="M96.7233 75.2391H57.6146V109.313H96.7233V75.2391Z" fill="#660099"/>
<path d="M0 109.313H130" stroke="#3F3D56" stroke-width="2" stroke-miterlimit="10"/>
<path d="M85.8528 -5.9859e-05C84.9931 1.47507e-05 84.1596 0.296907 83.4923 0.84075C82.8249 1.38459 82.3645 2.14226 82.1882 2.98649C82.012 3.83072 82.1307 4.71008 82.5243 5.47689C82.918 6.24369 83.5627 6.85123 84.3502 7.19745C84.3344 6.90851 84.3564 6.61874 84.4154 6.33549C84.4872 6.03028 84.8967 4.28793 84.8967 4.28793C84.815 4.1009 84.7739 3.8985 84.7764 3.69428C84.7764 3.13753 85.0973 2.72164 85.4985 2.72164C85.8395 2.72164 86.0033 2.97822 86.0033 3.2851C86.0033 3.62889 85.7843 4.14203 85.6723 4.61829C85.65 4.70651 85.6487 4.79877 85.6684 4.88761C85.6882 4.97645 85.7285 5.05938 85.7861 5.12972C85.8437 5.20006 85.9169 5.25583 86 5.29254C86.083 5.32925 86.1734 5.34587 86.264 5.34105C86.9727 5.34105 87.4508 4.42711 87.4508 3.3438C87.4508 2.52041 86.8975 1.90497 85.893 1.90497C85.6526 1.89549 85.4127 1.93517 85.1881 2.02159C84.9635 2.10802 84.7587 2.23938 84.5862 2.40769C84.4138 2.576 84.2772 2.77775 84.1849 3.00066C84.0926 3.22357 84.0465 3.46298 84.0493 3.70434C84.0382 3.97199 84.1263 4.23428 84.2967 4.44053C84.3266 4.46528 84.3479 4.49892 84.3575 4.53659C84.3671 4.57427 84.3645 4.61403 84.3502 4.65015C84.3318 4.7189 84.2917 4.88492 84.2733 4.952C84.2701 4.97228 84.2621 4.99151 84.25 5.00807C84.2379 5.02464 84.2221 5.03808 84.2038 5.04726C84.1855 5.05644 84.1652 5.06111 84.1448 5.06088C84.1243 5.06064 84.1042 5.05551 84.0861 5.04591C83.5629 4.83126 83.3189 4.25774 83.3189 3.61043C83.3189 2.54389 84.2165 1.26437 85.9949 1.26437C87.424 1.26437 88.3651 2.3024 88.3651 3.4159C88.3651 4.88995 87.5477 5.99004 86.3443 5.99004C85.9398 5.99004 85.5603 5.77035 85.43 5.52217C85.43 5.52217 85.2127 6.38748 85.1659 6.55517C85.0794 6.84011 84.9528 7.11117 84.7898 7.36011C85.3048 7.51271 85.8464 7.55242 86.378 7.47653C86.9096 7.40065 87.4187 7.21096 87.8709 6.92032C88.323 6.62968 88.7075 6.24489 88.9983 5.79205C89.2892 5.33921 89.4796 4.82891 89.5566 4.29576C89.6336 3.76261 89.5954 3.21908 89.4447 2.70203C89.2939 2.18499 89.034 1.70652 88.6828 1.29908C88.3315 0.891641 87.897 0.56476 87.4087 0.340606C86.9204 0.116453 86.3898 0.000270911 85.8528 -6.10352e-05L85.8528 -5.9859e-05Z" fill="#F5DB39"/>
<path d="M122.817 27.167C122.522 27.2981 122.209 27.3846 121.888 27.4236C122.226 27.2206 122.479 26.9011 122.6 26.5248C122.283 26.7144 121.935 26.8477 121.572 26.9188C121.35 26.6808 121.062 26.5152 120.745 26.4436C120.429 26.3721 120.098 26.3979 119.795 26.5176C119.493 26.6374 119.234 26.8456 119.052 27.1152C118.869 27.3847 118.772 27.7031 118.772 28.029C118.772 28.1537 118.786 28.2781 118.814 28.3996C118.17 28.3676 117.54 28.1998 116.965 27.9071C116.391 27.6144 115.884 27.2034 115.478 26.7008C115.271 27.0589 115.208 27.4826 115.301 27.8858C115.394 28.289 115.638 28.6412 115.981 28.8708C115.723 28.8644 115.47 28.7948 115.245 28.6679V28.688C115.245 29.0632 115.375 29.4268 115.611 29.7172C115.848 30.0076 116.178 30.2068 116.544 30.2812C116.405 30.319 116.262 30.3381 116.118 30.3382C116.016 30.3383 115.914 30.3282 115.814 30.308C115.917 30.6309 116.119 30.9132 116.39 31.1156C116.661 31.318 116.989 31.4302 117.326 31.4366C116.753 31.8887 116.045 32.1338 115.316 32.1325C115.187 32.1323 115.058 32.1245 114.93 32.109C115.667 32.5902 116.527 32.8455 117.407 32.8436C120.387 32.8436 122.015 30.3667 122.015 28.2185C122.015 28.1481 122.013 28.0776 122.01 28.0089C122.327 27.7786 122.6 27.4935 122.817 27.167V27.167Z" fill="#F5DB39"/>
<path d="M60.5304 4.78152H54.8205C54.7266 4.78157 54.6365 4.81904 54.57 4.88571C54.5036 4.95237 54.4662 5.04277 54.4662 5.13704V10.8655C54.4662 10.9598 54.5036 11.0502 54.57 11.1169C54.6365 11.1835 54.7266 11.221 54.8205 11.221H57.6755V8.67207H56.9082V7.73297H57.6755V7.03871C57.6755 6.20694 58.2505 5.75416 58.9909 5.75416C59.3453 5.75416 59.7264 5.78099 59.815 5.79273V6.6614H59.2249C58.8221 6.6614 58.7452 6.85257 58.7452 7.1343V7.73297H59.7047L59.5793 8.67207H58.7452V11.221H60.5304C60.6243 11.221 60.7144 11.1835 60.7809 11.1169C60.8473 11.0502 60.8847 10.9598 60.8847 10.8655V5.13704C60.8847 5.04276 60.8473 4.95236 60.7809 4.8857C60.7144 4.81904 60.6243 4.78157 60.5304 4.78152Z" fill="#F5DB39"/>
<path d="M61.2503 28.6269C61.6046 28.6279 61.9442 28.7696 62.1947 29.021C62.4453 29.2723 62.5865 29.6129 62.5875 29.9684V32.6516C62.5865 33.0071 62.4453 33.3477 62.1947 33.599C61.9442 33.8504 61.6046 33.9921 61.2503 33.9931H58.5759C58.2216 33.9921 57.8821 33.8504 57.6315 33.599C57.381 33.3477 57.2398 33.0071 57.2387 32.6516V29.9684C57.2398 29.6129 57.381 29.2723 57.6315 29.021C57.8821 28.7696 58.2216 28.6279 58.5759 28.6269H61.2503ZM61.2503 28.0902H58.5759C58.0799 28.0917 57.6045 28.29 57.2538 28.642C56.903 28.9939 56.7053 29.4708 56.7039 29.9684V32.6516C56.7053 33.1492 56.903 33.6261 57.2538 33.978C57.6045 34.33 58.0799 34.5283 58.5759 34.5298H61.2503C61.7464 34.5283 62.2217 34.33 62.5725 33.978C62.9232 33.6261 63.1209 33.1492 63.1224 32.6516V29.9684C63.1209 29.4708 62.9232 28.9939 62.5725 28.642C62.2217 28.29 61.7464 28.0917 61.2503 28.0902V28.0902Z" fill="#F5DB39"/>
<path d="M61.6515 29.9685C61.5721 29.9685 61.4946 29.9449 61.4286 29.9006C61.3626 29.8564 61.3112 29.7935 61.2808 29.72C61.2505 29.6465 61.2425 29.5655 61.258 29.4875C61.2735 29.4094 61.3117 29.3377 61.3678 29.2814C61.4239 29.2251 61.4954 29.1868 61.5732 29.1712C61.651 29.1557 61.7317 29.1637 61.805 29.1941C61.8783 29.2246 61.9409 29.2762 61.985 29.3424C62.0291 29.4086 62.0526 29.4864 62.0526 29.566C62.0528 29.6189 62.0425 29.6713 62.0223 29.7202C62.0022 29.769 61.9727 29.8135 61.9354 29.8509C61.8981 29.8883 61.8539 29.9179 61.8051 29.9381C61.7564 29.9583 61.7042 29.9686 61.6515 29.9685ZM59.9131 30.2368C60.1247 30.2368 60.3315 30.2997 60.5074 30.4176C60.6834 30.5356 60.8205 30.7032 60.9014 30.8993C60.9824 31.0954 61.0036 31.3112 60.9623 31.5194C60.921 31.7276 60.8191 31.9188 60.6695 32.0689C60.5199 32.219 60.3293 32.3212 60.1218 32.3626C59.9143 32.4041 59.6992 32.3828 59.5037 32.3016C59.3083 32.2203 59.1412 32.0828 59.0236 31.9063C58.9061 31.7298 58.8434 31.5223 58.8434 31.31C58.8436 31.0255 58.9564 30.7526 59.157 30.5514C59.3575 30.3502 59.6295 30.237 59.9131 30.2368ZM59.9131 29.7001C59.5957 29.7001 59.2855 29.7946 59.0216 29.9714C58.7577 30.1483 58.5521 30.3998 58.4306 30.6939C58.3092 30.9881 58.2774 31.3118 58.3393 31.6241C58.4012 31.9364 58.554 32.2232 58.7785 32.4484C59.0029 32.6735 59.2888 32.8268 59.6001 32.889C59.9113 32.9511 60.234 32.9192 60.5272 32.7974C60.8204 32.6755 61.071 32.4692 61.2473 32.2044C61.4236 31.9397 61.5177 31.6284 61.5177 31.31C61.5176 30.8831 61.3485 30.4737 61.0476 30.1718C60.7467 29.8699 60.3387 29.7002 59.9131 29.7001Z" fill="#F5DB39"/>
<path d="M107.96 1.62061H102.604C102.535 1.61727 102.466 1.6276 102.402 1.65102C102.337 1.67444 102.277 1.71047 102.226 1.75706C102.175 1.80365 102.134 1.85987 102.105 1.9225C102.075 1.98513 102.059 2.05293 102.056 2.12202V7.50674C102.059 7.65161 102.118 7.78954 102.22 7.89217C102.322 7.99479 102.46 8.0543 102.604 8.05846H107.958C108.099 8.05293 108.232 7.99191 108.328 7.88864C108.425 7.78537 108.476 7.64815 108.473 7.50674V2.12202C108.474 2.05472 108.461 1.9879 108.436 1.92567C108.41 1.86344 108.372 1.80712 108.324 1.76015C108.276 1.71319 108.219 1.67659 108.156 1.65259C108.093 1.62859 108.027 1.61771 107.96 1.62061V1.62061ZM104.045 6.98687H103.126V4.11928H104.045V6.98687ZM103.617 3.68326H103.61C103.478 3.68238 103.351 3.62892 103.258 3.53462C103.165 3.44031 103.113 3.31285 103.114 3.18014C103.114 3.04744 103.167 2.92032 103.261 2.82664C103.354 2.73296 103.481 2.68036 103.614 2.68036C103.746 2.68036 103.873 2.73296 103.966 2.82664C104.06 2.92032 104.113 3.04744 104.113 3.18014C104.114 3.31285 104.062 3.44031 103.969 3.53462C103.876 3.62892 103.749 3.68238 103.617 3.68326V3.68326ZM107.405 6.98687H106.485V5.41892C106.485 5.04328 106.352 4.7867 106.019 4.7867C105.915 4.78759 105.814 4.8208 105.729 4.88176C105.645 4.94273 105.581 5.02845 105.548 5.12713C105.523 5.19997 105.512 5.27673 105.516 5.35352V6.98687H104.596V4.11928H105.516V4.51839C105.599 4.37311 105.721 4.25315 105.867 4.17111C106.012 4.08907 106.178 4.04799 106.345 4.05221C106.948 4.05221 107.405 4.45132 107.405 5.3116V6.98687Z" fill="#F5DB39"/>
<path d="M82.5843 41.3339C82.5843 41.3339 89.0913 41.5114 90.166 41.9037C91.2406 42.2959 91.7212 45.101 91.7212 45.101L86.6689 46.6941L82.8901 46.4794L80.0462 46.681L81.6342 42.5085L82.5843 41.3339Z" fill="#2F2E41"/>
<path d="M82.865 39.1918C82.865 39.1918 83.2931 40.8507 82.343 42.0254C81.3928 43.2 86.4276 47.3856 86.4276 47.3856L89.0837 46.9275C89.0837 46.9275 88.4983 41.8303 89.2846 40.5395C90.071 39.2488 82.865 39.1918 82.865 39.1918Z" fill="#9F616A"/>
<path opacity="0.1" d="M82.865 39.1918C82.865 39.1918 83.2931 40.8507 82.343 42.0254C81.3928 43.2 86.4276 47.3856 86.4276 47.3856L89.0837 46.9275C89.0837 46.9275 88.4983 41.8303 89.2846 40.5395C90.071 39.2488 82.865 39.1918 82.865 39.1918Z" fill="black"/>
<path d="M100.529 87.6946L94.6691 95.4917L98.6684 97.8344L104.173 88.799L100.529 87.6946Z" fill="#9F616A"/>
<path d="M96.4186 95.6231C96.4186 95.6231 94.2605 93.1074 94.3566 93.6684C94.4527 94.2294 92.8211 98.987 94.3392 99.4472C95.8573 99.9074 108.876 101.128 109.055 99.6531C109.234 98.1783 105.171 97.1461 105.171 97.1461C105.171 97.1461 102.757 94.8189 102.222 95.0556C101.687 95.2922 96.4186 95.6231 96.4186 95.6231Z" fill="#2F2E41"/>
<path d="M99.2145 95.141L103.895 103.142L107.43 101.089L102.709 94.5383L99.2145 95.141Z" fill="#9F616A"/>
<path d="M106.604 76.1063L105.215 78.0785C105.215 78.0785 98.5919 87.3067 99.2953 88.0518C99.9986 88.7968 102.928 91.6128 104.417 91.0671C105.907 90.5215 111.2 81.0896 111.2 81.0896L109.819 75.5518L106.604 76.1063Z" fill="#2F2E41"/>
<path d="M78.075 74.2393C78.075 74.2393 79.5581 77.0158 83.3172 77.9559C87.0764 78.896 91.0037 80.8179 91.1435 80.7938C91.2833 80.7697 91.6787 80.5571 91.7748 81.1181C91.8709 81.6791 92.9019 82.6565 92.9019 82.6565C92.9019 82.6565 97.0542 96.8131 98.64 96.8284C100.226 96.8437 103.485 95.7042 103.552 95.2593C103.62 94.8145 98.6968 80.3577 98.6487 80.0772L98.072 76.7111C98.072 76.7111 104.583 77.7542 105.191 77.9383C105.798 78.1224 111.2 81.0896 111.2 81.0896C111.2 81.0896 116.706 77.1077 111.556 73.0865C106.405 69.0653 97.5522 66.1156 97.5522 66.1156L94.3762 65.2193L91.6083 65.0536L91.2007 63.4856L84.6452 63.8651L77.8041 66.7775L78.075 74.2393Z" fill="#2F2E41"/>
<path d="M86.7268 42.4938C89.547 42.4938 91.8332 40.2001 91.8332 37.3708C91.8332 34.5414 89.547 32.2477 86.7268 32.2477C83.9066 32.2477 81.6204 34.5414 81.6204 37.3708C81.6204 40.2001 83.9066 42.4938 86.7268 42.4938Z" fill="#9F616A"/>
<path d="M82.1071 41.4884L82.7212 41.3825C82.7212 41.3825 83.8305 45.6675 87.262 46.3753C87.262 46.3753 88.9552 44.3403 88.8829 43.9969C88.8106 43.6535 90.2238 41.8215 90.9752 42.8471C91.7266 43.8727 90.7918 61.9388 91.4231 62.2631C92.0543 62.5874 93.4086 62.9315 92.3186 64.1302C91.2287 65.3289 86.8994 66.9418 85.9405 66.3852C84.9816 65.8286 83.0223 61.1126 82.1748 59.5261C81.3273 57.9395 79.9709 52.542 79.9709 52.542C79.9709 52.542 78.2387 46.6317 79.3046 45.2928C80.3706 43.9538 82.1071 41.4884 82.1071 41.4884Z" fill="#D0CDE1"/>
<path d="M86.9942 63.7297C86.88 64.9881 86.6846 66.2378 86.4092 67.4709C86.1588 68.4742 85.8672 69.0799 85.5345 69.0541C84.6854 68.9905 84.2994 70.2398 84.1005 71.6802C83.8878 73.2084 83.8878 74.9517 83.7711 75.5678C83.6168 76.3818 82.6287 77.003 80.6544 76.8206C79.4786 76.6864 78.3247 76.4025 77.2204 75.9756C74.5548 75.0033 74.6337 67.1181 75.0797 61.267C75.3524 57.6807 75.7624 54.8567 75.7624 54.8567C75.7624 54.8567 74.9528 52.4336 74.6938 50.773C74.6422 50.47 74.6164 50.1631 74.6166 49.8557C74.656 48.405 77.2959 44.4848 78.8911 42.0428C80.488 39.6009 82.6665 41.3923 82.6665 41.3923L81.9083 43.688C81.9083 43.688 83.0833 45.507 83.0919 47.2382C83.1005 48.9695 85.905 50.2188 86.9118 51.0569C87.5448 51.5835 87.5293 58.6134 86.9942 63.7297Z" fill="#2F2E41"/>
<path d="M89.2114 42.2127C89.2114 42.2127 89.3954 42.4309 90.238 42.3244C91.2485 42.1968 92.6379 42.5475 92.9607 43.5155C93.5527 45.2905 95.2215 52.5113 95.2215 52.5113C95.2215 52.5113 95.9161 60.7663 96.2285 62.5896C96.5408 64.4129 96.3858 66.0279 96.6937 66.9856C97.0017 67.9432 93.6532 65.1996 92.4191 65.5568C91.185 65.914 90.3921 61.2857 90.5472 59.6706C90.7022 58.0556 90.8333 56.3002 90.4052 54.6413C89.977 52.9824 90.7361 48.5919 90.7077 47.586C90.6793 46.5802 87.9864 44.0451 89.2114 42.2127Z" fill="#2F2E41"/>
<path d="M92.8246 67.8694C92.8246 67.8694 98.2312 70.8287 98.7487 75.0407C99.2661 79.2527 91.5171 70.9623 91.5171 70.9623L92.8246 67.8694Z" fill="#9F616A"/>
<path d="M95.9109 64.8825C95.9109 64.8825 97.5676 73.2604 100.148 72.8154C102.729 72.3704 98.7068 64.4004 98.7068 64.4004L95.9109 64.8825Z" fill="#9F616A"/>
<path d="M104.749 101.406C104.749 101.406 103.428 102.934 103.1 102.701C102.773 102.469 102.019 105.631 102.698 106.236C103.378 106.841 105.995 107.834 106.023 108.84C106.051 109.845 113.069 109.646 113.321 108.592C113.572 107.538 112.44 105.134 111.645 104.693C110.85 104.253 107.91 100.199 107.91 100.199C107.91 100.199 105.608 100.536 104.749 101.406Z" fill="#2F2E41"/>
<path opacity="0.1" d="M91.9633 72.9933C90.7094 72.1053 87.2085 71.885 84.1004 71.6802C82.7367 71.5925 81.4486 71.5064 80.4588 71.367C79.5051 71.2345 78.6475 70.3603 77.8859 69.0576C76.7315 67.0837 75.7984 64.1237 75.0797 61.267C75.3524 57.6807 75.7624 54.8567 75.7624 54.8567C75.7624 54.8567 74.9527 52.4336 74.6937 50.773C74.8763 50.518 75.1115 50.3055 75.3833 50.15C78.6801 48.7302 81.8276 62.7023 82.2273 64.8947C82.2342 64.9308 82.2393 64.9652 82.2445 64.9945C82.4383 66.1234 84.5326 67.0889 86.4092 67.4709C87.5653 67.7067 88.6408 67.7221 89.1365 67.4158C90.4384 66.6139 94.4419 69.8234 94.7455 69.9146C95.0491 70.0075 93.7644 74.2719 91.9633 72.9933Z" fill="black"/>
<path d="M75.3839 49.2899C75.3839 49.2899 72.9877 50.4251 74.0406 55.7305C75.0934 61.0359 77.2144 70.0558 80.458 70.5073C83.7017 70.9587 90.1606 70.8557 91.9626 72.1333C93.7647 73.4109 95.049 69.1464 94.7454 69.0543C94.4418 68.9623 90.438 65.754 89.1362 66.5561C87.8343 67.3582 82.5571 65.9579 82.2447 64.1346C81.9324 62.3113 78.7346 47.8458 75.3839 49.2899Z" fill="#2F2E41"/>
<path d="M92.6506 46.7456L95.284 52.8762C95.284 52.8762 95.5492 52.7435 95.8571 53.7012C96.1651 54.6589 96.3093 55.5004 96.8488 56.1293C97.3883 56.7582 99.7889 65.7299 99.861 66.1507C99.933 66.5714 96.5454 68.0219 95.7885 66.8529C95.0315 65.6839 92.6506 46.7456 92.6506 46.7456Z" fill="#2F2E41"/>
<path d="M83.8216 37.2994C84.0173 37.247 84.0461 36.9863 84.0526 36.7832C84.0878 35.6955 84.7406 34.5795 85.7784 34.2628C86.1766 34.1533 86.5935 34.1302 87.0013 34.1953C87.5834 34.2731 88.1454 34.4612 88.6575 34.7496C88.9278 34.9021 89.1929 35.0857 89.4995 35.1323C89.7019 35.163 90.5786 35.4188 90.7803 35.4547C91.2235 35.5339 91.6355 35.9318 92.0608 35.7837C92.4678 35.642 92.5579 35.1134 92.5677 34.6814C92.5901 33.6971 91.8453 32.3349 91.1894 31.6027C90.6916 31.047 89.942 30.7905 89.2093 30.6571C88.3534 30.5191 87.486 30.4662 86.6197 30.4991C85.4471 30.5201 84.242 30.6109 83.1846 31.1199C82.1273 31.6289 81.2391 32.642 81.1884 33.8175C81.1779 34.0624 81.203 34.3083 81.1825 34.5525C81.1324 35.1484 80.8171 35.6865 80.6692 36.2657C80.5634 36.6907 80.5476 37.1332 80.6228 37.5647C80.6979 37.9962 80.8624 38.4071 81.1055 38.7709C81.4979 39.3503 82.1147 39.8743 82.092 40.5745L82.9429 39.6901C83.07 39.5927 83.16 39.4546 83.1978 39.2987C83.2356 39.1428 83.219 38.9786 83.1507 38.8336L82.8495 37.655C82.7721 37.4446 82.763 37.215 82.8235 36.9991C83.1463 36.1986 83.4953 37.3868 83.8216 37.2994Z" fill="#2F2E41"/>
<path d="M44.9584 72.2923C44.9584 88.6257 35.2801 94.3287 23.3413 94.3287C11.4025 94.3287 1.72424 88.6257 1.72424 72.2923C1.72424 55.9589 23.3413 35.1802 23.3413 35.1802C23.3413 35.1802 44.9584 55.9589 44.9584 72.2923Z" fill="#F2F2F2"/>
<path d="M22.5539 91.8302L22.7753 78.1607L31.9889 61.2494L22.81 76.0163L22.9094 69.8698L29.2596 57.6348L22.9359 68.2434L23.1149 57.1888L29.9147 47.4481L23.143 55.4504L23.2549 35.1803L22.552 62.0142L22.6097 60.9074L15.6963 50.2906L22.4989 63.0323L21.8547 75.3785L21.8355 75.0507L13.8656 63.8782L21.8114 76.2084L21.7309 77.7525L21.7164 77.7756L21.723 77.9023L20.0887 109.225H22.2722L22.5342 93.0464L30.4605 80.7465L22.5539 91.8302Z" fill="#3F3D56"/>
</g>
<defs>
<clipPath id="clip0_11:2">
<rect width="130" height="110" fill="white"/>
</clipPath>
</defs>
</svg>
