<svg width="176" height="97" viewBox="0 0 176 97" fill="none" xmlns="http://www.w3.org/2000/svg">
<path d="M26.8481 82.8825C22.9399 85.8034 21.8322 90.9427 21.8322 90.9427C21.8322 90.9427 27.0611 91.3462 30.9693 88.4253C34.8776 85.5043 35.9852 80.3651 35.9852 80.3651C35.9852 80.3651 30.7564 79.9616 26.8481 82.8825Z" fill="#F5DB39"/>
<path d="M28.4761 84.2538C26.5978 88.7637 21.8935 91.0877 21.8935 91.0877C21.8935 91.0877 20.2347 86.0998 22.113 81.5899C23.9913 77.0801 28.6956 74.7561 28.6956 74.7561C28.6956 74.7561 30.3545 79.744 28.4761 84.2538Z" fill="#F5DB39"/>
<path d="M140.92 71.2165C140.505 68.4121 140.395 65.5707 140.593 62.7425L140.92 58.0618C139.117 61.6583 139.524 66.3919 140.92 71.2165V71.2165Z" fill="#0E0E0E"/>
<path d="M142.326 71.9995C142.126 70.3261 142.073 68.6382 142.168 66.9555L142.326 64.1693C141.458 66.3101 141.654 69.1277 142.326 71.9995Z" fill="black"/>
<path d="M148.574 75.4452V77.0112C148.574 77.1356 148.524 77.2547 148.436 77.3427C148.349 77.4307 148.23 77.4804 148.106 77.481H147.325C147.304 77.4809 147.284 77.4849 147.265 77.4928C147.246 77.5006 147.229 77.5122 147.214 77.5267C147.2 77.5413 147.188 77.5586 147.18 77.5776C147.172 77.5966 147.169 77.617 147.169 77.6376V90.4791C147.168 90.6036 147.118 90.7227 147.031 90.8107C146.943 90.8986 146.824 90.9483 146.7 90.949H137.172C137.047 90.9489 136.928 90.8993 136.84 90.8113C136.753 90.7232 136.703 90.6037 136.703 90.4791V77.6376C136.703 77.5961 136.686 77.5564 136.657 77.527C136.628 77.4977 136.588 77.4811 136.547 77.481H135.61C135.485 77.4809 135.366 77.4314 135.278 77.3433C135.191 77.2552 135.141 77.1358 135.141 77.0112V75.4452C135.141 75.3834 135.153 75.3223 135.177 75.2653C135.2 75.2082 135.235 75.1564 135.278 75.1128C135.322 75.0691 135.373 75.0345 135.43 75.0109C135.487 74.9874 135.548 74.9753 135.61 74.9753H148.106C148.23 74.9757 148.349 75.0253 148.437 75.1134C148.525 75.2014 148.574 75.3207 148.574 75.4452Z" fill="#660099"/>
<path d="M147.183 77.8099H136.717V78.2797H147.183V77.8099Z" fill="#E6E6E6"/>
<path d="M147.169 84.7231C143.667 86.1761 140.126 86.1921 136.547 84.7231V81.4132C139.993 80.2529 143.723 80.2529 147.169 81.4132V84.7231Z" fill="#F5DB39"/>
<path d="M88.5083 34.1159C96.326 34.1159 102.663 27.7621 102.663 19.9242C102.663 12.0864 96.326 5.73254 88.5083 5.73254C80.6906 5.73254 74.3531 12.0864 74.3531 19.9242C74.3531 27.7621 80.6906 34.1159 88.5083 34.1159Z" fill="#FEB8B8"/>
<path d="M101.729 7.68087C99.6131 4.23543 96.3004 1.69662 92.4289 0.553143L90.6911 1.82454V0.173666C89.7614 0.0309957 88.8203 -0.0239651 87.8804 0.00950674L86.3811 1.36956V0.1225C84.1613 0.399058 82.0227 1.13374 80.1002 2.28022C78.1777 3.4267 76.513 4.9601 75.211 6.78375C71.9552 11.4896 71.4055 18.0365 74.6079 22.7801C75.4869 20.0715 76.5539 17.5301 77.4332 14.8217C78.1241 14.9161 78.8244 14.9196 79.5162 14.8318L80.5857 12.3298L80.8845 14.726C84.1996 14.4365 89.1166 13.8007 92.2592 13.2182L91.9535 11.3799L93.7819 12.9074C94.7447 12.6852 95.3164 12.4836 95.2692 12.3296C97.6065 16.1074 100.467 18.5202 102.804 22.298C103.692 16.9711 104.713 12.5418 101.729 7.68087Z" fill="#2F2E41"/>
<path d="M118.952 56.4188C118.465 53.4828 117.963 50.4905 116.602 47.8456C115.708 46.1132 114.288 44.4623 112.374 44.1198C111.997 44.0861 111.626 44.0001 111.273 43.8643C110.712 43.5934 103.175 39.2799 101.977 38.5286C100.949 37.8836 99.3251 36.6894 98.5064 36.6894C97.6828 36.6713 94.5246 37.4082 82.1982 36.4421C82.1982 36.4421 78.812 37.7803 76.1918 39.4029C76.1521 39.3767 63.3981 46.2432 62.919 46.2251C62.0115 46.1868 61.1681 46.7693 60.6479 47.5028C60.1278 48.2363 59.8838 49.1444 59.6284 50.0224C62.4141 56.242 64.9628 62.4696 67.7488 68.6893C67.8792 68.9235 67.9485 69.187 67.9503 69.4553C67.8943 69.7338 67.7758 69.9958 67.6037 70.2214C66.2375 72.4217 66.2809 75.1891 66.4302 77.7751C66.5795 80.3612 66.7642 83.0927 65.6115 85.4106C65.298 86.047 64.8902 86.6295 64.592 87.2659C63.8937 88.7072 63.6413 93.317 64.0492 94.8656L115.153 96.3334C114.054 93.3052 118.952 56.4188 118.952 56.4188Z" fill="#6C63FF"/>
<path d="M55.211 68.965C55.1091 69.7045 55.0988 70.4539 55.1805 71.1959L55.9129 81.742C55.9817 82.7359 56.0494 83.7275 56.1424 84.719C56.3182 86.6432 56.5807 88.5521 56.9065 90.4582C56.9139 90.7288 57.028 90.9855 57.2239 91.1718C57.4198 91.3582 57.6815 91.459 57.9514 91.4522C61.1756 92.1362 64.5069 92.1088 67.7974 91.9225C72.8186 91.6415 85.6648 91.1099 86.4496 90.0877C87.2344 89.0656 86.7771 87.4122 85.7537 86.5857C84.7303 85.7592 67.778 83.7441 67.778 83.7441C67.9436 82.4281 68.4433 81.1887 68.9173 79.9392C69.7688 77.7231 70.564 75.4342 70.5793 73.0602C70.5945 70.6862 69.7024 68.1902 67.7627 66.8301C66.1671 65.7136 64.1128 65.5065 62.1684 65.5525C60.7537 65.5932 58.3094 65.2534 57.0173 65.808C55.9948 66.2594 55.4021 67.9612 55.211 68.965Z" fill="#FBBEBE"/>
<path d="M59.4809 50.2117C59.2327 50.4723 59.0402 50.781 58.9152 51.1189C56.855 55.7741 55.6381 60.7598 55.3215 65.8428C55.3271 66.0906 55.2701 66.3359 55.1559 66.5558C55.0432 66.702 54.9178 66.838 54.7812 66.962C54.6621 67.1036 54.5719 67.2674 54.5159 67.4439C54.4598 67.6204 54.4391 67.8063 54.4547 67.9909C54.4703 68.1755 54.522 68.3552 54.6069 68.5197C54.6918 68.6842 54.8082 68.8304 54.9495 68.9499C54.9726 68.9695 54.9964 68.9883 55.0208 69.0063C55.4413 68.2129 56.448 67.9535 57.3428 67.8846C61.6272 67.5448 65.8123 69.5431 70.1096 69.3924C69.8064 68.3421 69.3703 67.3328 69.1231 66.2698C68.0296 61.55 70.7569 56.4113 69.0849 51.8653C68.7508 50.9556 68.1928 50.0612 67.3135 49.6626C66.9494 49.5153 66.5684 49.4142 66.1794 49.3616C65.0935 49.1649 62.9319 48.3241 61.8821 48.6615C61.4946 48.7868 61.3418 49.152 61.0206 49.3728C60.5327 49.6853 59.8854 49.8002 59.4809 50.2117Z" fill="#6C63FF"/>
<path d="M118.983 65.808C117.691 65.2534 115.246 65.5932 113.832 65.5525C111.887 65.5065 109.833 65.7136 108.237 66.8302C106.298 68.1902 105.405 70.6862 105.421 73.0602C105.436 75.4342 106.231 77.7231 107.083 79.9392C107.557 81.1887 108.056 82.4281 108.222 83.7441C108.222 83.7441 91.2696 85.7592 90.2463 86.5857C89.2229 87.4122 88.7656 89.0656 89.5504 90.0877C90.3352 91.1099 114.824 92.1361 118.049 91.4522C118.319 91.459 118.58 91.3582 118.776 91.1718C118.972 90.9855 119.086 90.7288 119.094 90.4582C119.419 88.552 119.682 86.6432 119.858 84.719C119.951 83.7275 120.018 82.7359 120.087 81.742L120.82 71.1959C120.901 70.4539 120.891 69.7046 120.789 68.965C120.598 67.9612 120.005 66.2594 118.983 65.808Z" fill="#FBBEBE"/>
<path d="M114.979 49.3728C114.658 49.152 114.505 48.7868 114.118 48.6615C113.068 48.3241 110.906 49.1649 109.821 49.3616C109.432 49.4142 109.051 49.5153 108.686 49.6626C107.807 50.0612 107.249 50.9556 106.915 51.8653C105.243 56.4114 107.97 61.55 106.877 66.2698C106.63 67.3328 106.194 68.3421 105.89 69.3924C110.188 69.5431 114.373 67.5448 118.657 67.8846C119.552 67.9535 120.559 68.2129 120.979 69.0063C121.004 68.9883 121.027 68.9695 121.051 68.9499C121.192 68.8304 121.308 68.6843 121.393 68.5197C121.478 68.3552 121.53 68.1755 121.545 67.9909C121.561 67.8063 121.54 67.6204 121.484 67.4439C121.428 67.2674 121.338 67.1036 121.219 66.962C121.082 66.838 120.957 66.702 120.844 66.5558C120.73 66.3359 120.673 66.0906 120.678 65.8428C120.362 60.7598 119.145 55.7741 117.085 51.1189C116.96 50.781 116.767 50.4723 116.519 50.2117C116.115 49.8002 115.467 49.6853 114.979 49.3728Z" fill="#6C63FF"/>
<path d="M84.316 91.9559C86.426 91.9559 88.1365 90.241 88.1365 88.1255C88.1365 86.0101 86.426 84.2952 84.316 84.2952C82.206 84.2952 80.4955 86.0101 80.4955 88.1255C80.4955 90.241 82.206 91.9559 84.316 91.9559Z" fill="#FBBEBE"/>
<path d="M92.7756 91.9559C94.8856 91.9559 96.5961 90.241 96.5961 88.1255C96.5961 86.0101 94.8856 84.2952 92.7756 84.2952C90.6656 84.2952 88.9551 86.0101 88.9551 88.1255C88.9551 90.241 90.6656 91.9559 92.7756 91.9559Z" fill="#FBBEBE"/>
<path d="M116.359 96.7567H63.8708C63.258 96.756 62.6704 96.5116 62.2371 96.0772C61.8038 95.6428 61.56 95.0538 61.5593 94.4394V62.5144C61.56 61.9 61.8038 61.311 62.2371 60.8766C62.6704 60.4422 63.258 60.1978 63.8708 60.1971H116.359C116.971 60.1978 117.559 60.4422 117.992 60.8766C118.426 61.311 118.669 61.9 118.67 62.5144V94.4394C118.669 95.0538 118.426 95.6428 117.992 96.0772C117.559 96.5116 116.971 96.756 116.359 96.7567Z" fill="#3F3D56"/>
<path d="M89.9874 80.0101C90.832 80.0101 91.5167 79.3236 91.5167 78.4768C91.5167 77.6301 90.832 76.9436 89.9874 76.9436C89.1428 76.9436 88.4581 77.6301 88.4581 78.4768C88.4581 79.3236 89.1428 80.0101 89.9874 80.0101Z" fill="white"/>
<path d="M176 90.3173H0V95.7396H10.4102V97H165.594V95.7396H176V90.3173Z" fill="#660099"/>
<path d="M75.4916 25.2139C73.2172 25.2139 71.3734 23.2151 71.3734 20.7496V18.5174C71.3734 16.0518 73.2172 14.0531 75.4916 14.0531V25.2139H75.4916Z" fill="#6C63FF"/>
<path d="M101.777 14.0531C104.052 14.0531 105.896 16.0518 105.896 18.5174V20.7496C105.896 23.2151 104.052 25.2139 101.777 25.2139V14.0531Z" fill="#6C63FF"/>
<path d="M103.935 18.8682H103.282C103.282 9.88512 96.5401 2.57684 88.2533 2.57684C79.9665 2.57684 73.2247 9.88512 73.2247 18.8682H72.5713C72.5713 9.49453 79.6062 1.86853 88.2533 1.86853C96.9004 1.86853 103.935 9.49453 103.935 18.8682Z" fill="#6C63FF"/>
</svg>
