<svg width="165" height="122" viewBox="0 0 165 122" fill="none" xmlns="http://www.w3.org/2000/svg">
<g clip-path="url(#clip0_12:107)">
<path d="M28.3811 44.5884C30.2116 43.7486 31.3654 42.3458 30.9583 41.455C30.5511 40.5643 28.7371 40.523 26.9066 41.3628C25.0761 42.2026 23.9223 43.6054 24.3294 44.4962C24.7366 45.3869 26.5506 45.4282 28.3811 44.5884Z" fill="#F1F1F1"/>
<path d="M95.8071 55.3292C95.8875 55.412 95.9612 55.501 96.0276 55.5954L106.355 55.3422L107.56 53.1366L111.12 54.5232L109.366 58.6355C109.224 58.9677 108.979 59.2449 108.667 59.4255C108.354 59.606 107.992 59.6802 107.634 59.6369L95.9656 58.2248C95.6904 58.5738 95.3156 58.8307 94.8911 58.9612C94.4666 59.0917 94.0124 59.0896 93.5892 58.9552C93.1659 58.8208 92.7934 58.5605 92.5214 58.2089C92.2494 57.8573 92.0907 57.431 92.0664 56.9868C92.042 56.5426 92.1533 56.1015 92.3853 55.7222C92.6173 55.3429 92.9591 55.0434 93.3652 54.8634C93.7713 54.6835 94.2224 54.6317 94.6587 54.7149C95.0949 54.7981 95.4955 55.0123 95.8071 55.3292Z" fill="#FFB7B7"/>
<path d="M129.474 118.165L126.078 118.165L124.462 105.043L129.474 105.043L129.474 118.165Z" fill="#FFB7B7"/>
<path d="M130.34 121.463L119.39 121.462V121.324C119.39 120.191 119.839 119.105 120.639 118.305C121.438 117.504 122.522 117.054 123.652 117.054H123.652L130.34 117.054L130.34 121.463Z" fill="#2F2E41"/>
<path d="M98.6386 118.089L95.5158 116.753L99.1756 104.05L103.784 106.022L98.6386 118.089Z" fill="#FFB7B7"/>
<path d="M98.142 121.463L88.0729 117.153L88.1273 117.026C88.5714 115.984 89.4102 115.162 90.4591 114.741C91.5081 114.319 92.6813 114.332 93.7207 114.776L93.721 114.777L99.8708 117.409L98.142 121.463Z" fill="#2F2E41"/>
<path d="M112.968 58.1719L112.722 62.1583L119.9 62.9277L127.411 63.7331L125.2 57.6796L112.968 58.1719Z" fill="#FFB7B7"/>
<path d="M112.596 59.6495L109.708 42.7346L114.541 41.1478L115.96 39.1974L122.868 39.6069L123.883 41.8829L127.566 43.6266L127 54.1589L126.007 59.0577L125.884 58.9941C120.904 56.4108 112.797 59.5702 112.716 59.6022L112.596 59.6495Z" fill="#6C63FF"/>
<path d="M110.741 56.9907L105.825 55.0201L105.846 54.9325C105.867 54.8442 107.959 46.0844 108.237 44.6768C108.527 43.2102 109.584 42.8048 109.629 42.7882L109.662 42.7761L111.607 43.3694L112.462 50.0954L110.741 56.9907Z" fill="#6C63FF"/>
<path d="M101.168 115.783L94.6237 114.438L105.083 85.524L108.663 75.6618C108.663 75.6618 110.933 67.7544 111.959 64.6943L112.578 60.5884L127.232 62.2134C127.232 62.2134 131.325 68.2353 130.082 78.0505L130.644 114.943L124.1 115.279L118.619 78.0714L108.998 98.4682C108.998 98.4682 105.966 107.172 103.797 109.059L101.168 115.783Z" fill="#2F2E41"/>
<path d="M121.356 63.5827C121.471 63.58 121.586 63.5863 121.7 63.6017L128.537 55.8425L127.742 53.4578L131.177 51.785L132.995 55.8696C133.141 56.1996 133.177 56.5684 133.097 56.9206C133.017 57.2729 132.825 57.5896 132.55 57.8231L123.583 65.435C123.651 65.8746 123.584 66.3246 123.391 66.7251C123.198 67.1257 122.888 67.4579 122.502 67.6775C122.116 67.8971 121.672 67.9937 121.229 67.9545C120.787 67.9153 120.367 67.742 120.026 67.4579C119.684 67.1737 119.437 66.7921 119.317 66.3638C119.197 65.9354 119.21 65.4807 119.354 65.06C119.499 64.6393 119.768 64.2727 120.125 64.0088C120.483 63.7449 120.912 63.5963 121.356 63.5827H121.356Z" fill="#FFB7B7"/>
<path d="M127.991 56.5976L125.139 49.8771L126.252 45.1959L127.45 43.679C127.538 43.6414 127.633 43.6225 127.728 43.6234C127.823 43.6243 127.918 43.645 128.005 43.6842C128.447 43.8625 128.823 44.4086 129.124 45.3077L131.796 52.9345L127.991 56.5976Z" fill="#6C63FF"/>
<path d="M113.195 36.7071V31.6405C113.195 29.8399 113.909 28.113 115.18 26.8397C116.451 25.5665 118.175 24.8512 119.972 24.8512C121.769 24.8512 123.493 25.5665 124.764 26.8397C126.035 28.113 126.749 29.8399 126.749 31.6405V36.7071C126.749 36.9489 126.653 37.1807 126.482 37.3517C126.311 37.5227 126.08 37.6189 125.839 37.6191H114.106C113.864 37.6189 113.633 37.5227 113.462 37.3517C113.292 37.1807 113.196 36.9489 113.195 36.7071Z" fill="#2F2E41"/>
<path d="M118.58 37.5012C121.324 37.5012 123.548 35.2726 123.548 32.5235C123.548 29.7744 121.324 27.5458 118.58 27.5458C115.836 27.5458 113.611 29.7744 113.611 32.5235C113.611 35.2726 115.836 37.5012 118.58 37.5012Z" fill="#FFB7B7"/>
<path d="M111.592 32.0459C111.594 30.622 112.159 29.2569 113.164 28.25C114.169 27.2432 115.532 26.6768 116.953 26.6752H117.964C119.386 26.6768 120.748 27.2432 121.753 28.25C122.758 29.2569 123.324 30.622 123.325 32.0459V32.1472H121.188L120.458 30.1019L120.313 32.1472H119.208L118.84 31.1153L118.767 32.1472H111.592V32.0459Z" fill="#2F2E41"/>
<path d="M118.091 38.1889C117.99 38.0527 117.93 37.8909 117.918 37.7222C117.905 37.5534 117.94 37.3845 118.019 37.2349C119.091 35.1924 120.592 31.4184 118.6 29.0909L118.457 28.9236H124.24V37.622L118.986 38.5507C118.933 38.5601 118.879 38.5649 118.825 38.5649C118.682 38.5649 118.54 38.5308 118.413 38.4654C118.285 38.4001 118.175 38.3053 118.091 38.1889Z" fill="#2F2E41"/>
<path d="M89.3413 101.093H27.3976C25.9294 101.091 24.5218 100.506 23.4836 99.4661C22.4455 98.426 21.8615 97.0159 21.8599 95.545V5.54787C21.8615 4.077 22.4455 2.66684 23.4836 1.62677C24.5218 0.586703 25.9294 0.00166093 27.3976 0H89.3413C90.8095 0.00166093 92.2171 0.586703 93.2552 1.62677C94.2934 2.66684 94.8774 4.077 94.879 5.54787V95.545C94.8774 97.0159 94.2934 98.426 93.2552 99.4661C92.2171 100.506 90.8095 101.091 89.3413 101.093Z" fill="#3F3D56"/>
<path d="M89.4503 97.5532H27.2885C26.8359 97.5527 26.402 97.3724 26.082 97.0517C25.762 96.7311 25.5819 96.2964 25.5814 95.843V5.24987C25.5819 4.79645 25.762 4.36176 26.082 4.04115C26.402 3.72054 26.8359 3.54019 27.2885 3.53967H89.4503C89.9028 3.54019 90.3367 3.72054 90.6568 4.04115C90.9768 4.36176 91.1568 4.79645 91.1573 5.24987V95.843C91.1568 96.2964 90.9768 96.7311 90.6568 97.0517C90.3367 97.3724 89.9028 97.5527 89.4503 97.5532Z" fill="white"/>
<path d="M58.1339 2.17102C58.394 2.17102 58.605 1.95972 58.605 1.69907C58.605 1.43841 58.394 1.22711 58.1339 1.22711C57.8737 1.22711 57.6628 1.43841 57.6628 1.69907C57.6628 1.95972 57.8737 2.17102 58.1339 2.17102Z" fill="white"/>
<path d="M72.172 60.9379C69.4446 60.9378 66.8217 59.8868 64.8465 58.0026C62.8713 56.1185 61.695 53.5454 61.5613 50.8163C61.5531 50.9893 61.5482 51.1631 61.5482 51.3381C61.5482 54.1608 62.6675 56.868 64.6598 58.864C66.6522 60.86 69.3544 61.9813 72.172 61.9813C74.9896 61.9813 77.6918 60.86 79.6841 58.864C81.6764 56.868 82.7957 54.1608 82.7957 51.3381C82.7957 51.1631 82.7909 50.9893 82.7826 50.8163C82.6489 53.5454 81.4727 56.1185 79.4974 58.0026C77.5222 59.8868 74.8994 60.9378 72.172 60.9379Z" fill="#CBCBCB"/>
<path d="M44.4669 35.8949C41.7395 35.8948 39.1166 34.8439 37.1414 32.9597C35.1662 31.0755 33.9899 28.5025 33.8562 25.7734C33.848 25.9463 33.8431 26.1201 33.8431 26.2951C33.8431 29.1179 34.9624 31.825 36.9547 33.821C38.9471 35.817 41.6493 36.9384 44.4669 36.9384C47.2845 36.9384 49.9867 35.817 51.979 33.821C53.9713 31.825 55.0906 29.1179 55.0906 26.2951C55.0906 26.1201 55.0857 25.9463 55.0775 25.7734C54.9438 28.5025 53.7676 31.0755 51.7923 32.9597C49.8171 34.8439 47.1942 35.8948 44.4669 35.8949Z" fill="#CBCBCB"/>
<path d="M45.0918 85.9808C42.3644 85.9807 39.7415 84.9298 37.7663 83.0456C35.7911 81.1615 34.6148 78.5884 34.4811 75.8593C34.4729 76.0322 34.468 76.2061 34.468 76.381C34.468 79.2038 35.5873 81.911 37.5796 83.907C39.572 85.903 42.2742 87.0243 45.0918 87.0243C47.9094 87.0243 50.6116 85.903 52.6039 83.907C54.5963 81.911 55.7156 79.2038 55.7156 76.381C55.7156 76.2061 55.7107 76.0322 55.7024 75.8593C55.5687 78.5884 54.3925 81.1615 52.4173 83.0456C50.442 84.9298 47.8192 85.9807 45.0918 85.9808Z" fill="#CBCBCB"/>
<path d="M72.1754 61.0954C70.0516 61.0954 67.9755 60.4645 66.2097 59.2824C64.4438 58.1004 63.0675 56.4202 62.2548 54.4545C61.442 52.4888 61.2294 50.3258 61.6437 48.239C62.058 46.1522 63.0807 44.2354 64.5825 42.7309C66.0842 41.2264 67.9975 40.2018 70.0805 39.7867C72.1635 39.3716 74.3225 39.5847 76.2847 40.3989C78.2468 41.2131 79.9238 42.592 81.1037 44.3611C82.2836 46.1302 82.9134 48.2101 82.9134 50.3377C82.9134 53.1909 81.7821 55.9271 79.7683 57.9446C77.7545 59.962 75.0233 61.0954 72.1754 61.0954ZM72.1754 40.0923C70.1527 40.0923 68.1755 40.6932 66.4938 41.819C64.812 42.9447 63.5012 44.5449 62.7272 46.417C61.9531 48.2891 61.7506 50.3491 62.1452 52.3365C62.5398 54.3239 63.5138 56.1495 64.944 57.5823C66.3743 59.0152 68.1965 59.991 70.1803 60.3863C72.164 60.7816 74.2203 60.5787 76.089 59.8033C77.9576 59.0278 79.5548 57.7146 80.6786 56.0298C81.8023 54.3449 82.4021 52.3641 82.4021 50.3377C82.4021 48.9923 82.1376 47.66 81.6236 46.417C81.1097 45.1739 80.3564 44.0445 79.4067 43.0931C78.4571 42.1417 77.3297 41.3871 76.089 40.8722C74.8482 40.3573 73.5184 40.0923 72.1754 40.0923Z" fill="#3F3D56"/>
<path d="M78.3114 47.3916L79.5897 47.1355C79.5897 47.1355 78.5159 48.3393 78.3114 48.4161C78.2923 48.6719 78.2923 48.9288 78.3114 49.1845C75.857 59.7373 66.8064 55.0757 66.8064 55.0757C70.1045 55.1525 70.3857 53.795 70.3857 53.795C68.4682 53.5132 68.0847 52.2582 68.0847 52.2582C68.2568 52.3491 68.4562 52.3732 68.6449 52.326C68.8336 52.2787 68.9983 52.1634 69.1074 52.002C67.0365 51.4642 67.3177 49.4407 67.3177 49.4407C67.6868 49.7077 68.1182 49.8752 68.5705 49.9273C68.3404 49.6456 66.3973 47.3147 67.5734 46.1109C67.5734 46.1109 69.0051 48.6723 72.7634 48.9028L73.0191 48.8516C72.9756 48.6671 72.9584 48.4774 72.968 48.2881C72.968 47.5748 73.2508 46.8907 73.7542 46.3864C74.2577 45.882 74.9405 45.5986 75.6525 45.5986C77.4421 45.5986 77.8256 46.6232 77.8256 46.6232L79.104 45.8548C79.0784 45.8548 78.9506 47.1355 78.3114 47.3916Z" fill="#660099"/>
<path d="M44.5635 36.1222C42.4397 36.1222 40.3636 35.4913 38.5977 34.3092C36.8319 33.1271 35.4556 31.447 34.6428 29.4813C33.8301 27.5156 33.6174 25.3526 34.0318 23.2658C34.4461 21.179 35.4688 19.2622 36.9705 17.7577C38.4723 16.2532 40.3856 15.2286 42.4686 14.8135C44.5515 14.3984 46.7106 14.6115 48.6727 15.4257C50.6348 16.2399 52.3119 17.6188 53.4918 19.3879C54.6717 21.157 55.3015 23.2368 55.3015 25.3645C55.3015 26.7772 55.0237 28.1761 54.4841 29.4813C53.9444 30.7865 53.1535 31.9724 52.1564 32.9714C51.1593 33.9703 49.9755 34.7627 48.6727 35.3033C47.3699 35.844 45.9736 36.1222 44.5635 36.1222ZM44.5635 15.1191C42.5408 15.1191 40.5636 15.72 38.8818 16.8458C37.2001 17.9715 35.8893 19.5717 35.1152 21.4438C34.3412 23.3159 34.1387 25.3759 34.5333 27.3633C34.9279 29.3507 35.9019 31.1763 37.3321 32.6091C38.7623 34.042 40.5845 35.0178 42.5683 35.4131C44.5521 35.8084 46.6083 35.6055 48.477 34.8301C50.3457 34.0546 51.9429 32.7414 53.0666 31.0566C54.1903 29.3717 54.7901 27.3909 54.7901 25.3645C54.7901 22.6473 53.7127 20.0413 51.7948 18.1199C49.8769 16.1985 47.2757 15.1191 44.5635 15.1191V15.1191Z" fill="#3F3D56"/>
<path d="M47.488 20.0427C48.2033 20.0449 48.8887 20.3305 49.3945 20.8372C49.9002 21.3439 50.1853 22.0305 50.1875 22.7471V28.1554C50.1853 28.872 49.9002 29.5586 49.3945 30.0653C48.8887 30.572 48.2033 30.8576 47.488 30.8598H42.0897C41.3744 30.8576 40.689 30.572 40.1832 30.0653C39.6775 29.5586 39.3924 28.872 39.3902 28.1554V22.7471C39.3924 22.0305 39.6775 21.3439 40.1832 20.8372C40.689 20.3305 41.3744 20.0449 42.0897 20.0427H47.488ZM47.488 18.9611H42.0897C41.0883 18.964 40.1288 19.3639 39.4207 20.0732C38.7126 20.7826 38.3135 21.7439 38.3106 22.7471V28.1554C38.3135 29.1586 38.7126 30.1199 39.4207 30.8292C40.1288 31.5386 41.0883 31.9384 42.0897 31.9414H47.488C48.4894 31.9384 49.4489 31.5386 50.157 30.8292C50.8651 30.1199 51.2642 29.1586 51.2671 28.1554V22.7471C51.2642 21.7439 50.8651 20.7826 50.157 20.0732C49.4489 19.3639 48.4894 18.964 47.488 18.9611Z" fill="#660099"/>
<path d="M48.2978 22.7471C48.0837 22.7467 47.8785 22.661 47.7273 22.5091C47.5761 22.3571 47.4913 22.1513 47.4915 21.9367C47.4917 21.7222 47.577 21.5165 47.7285 21.3648C47.88 21.2132 48.0854 21.1281 48.2996 21.1281C48.5137 21.1281 48.7191 21.2132 48.8707 21.3648C49.0222 21.5165 49.1074 21.7222 49.1076 21.9367C49.1079 22.1513 49.0231 22.3571 48.8719 22.5091C48.7207 22.661 48.5155 22.7467 48.3013 22.7471C48.3002 22.7471 48.299 22.7471 48.2978 22.7471Z" fill="#660099"/>
<path d="M44.7889 23.2878C45.216 23.2878 45.6335 23.4147 45.9886 23.6524C46.3438 23.8901 46.6206 24.228 46.784 24.6233C46.9474 25.0186 46.9902 25.4536 46.9069 25.8733C46.8236 26.293 46.6179 26.6785 46.3159 26.981C46.0139 27.2836 45.6291 27.4897 45.2102 27.5731C44.7913 27.6566 44.3571 27.6138 43.9625 27.45C43.5679 27.2863 43.2306 27.009 42.9933 26.6532C42.756 26.2974 42.6294 25.8791 42.6294 25.4512C42.6294 25.1671 42.6852 24.8858 42.7937 24.6233C42.9023 24.3608 43.0613 24.1223 43.2619 23.9214C43.4624 23.7205 43.7005 23.5612 43.9625 23.4524C44.2245 23.3437 44.5053 23.2878 44.7889 23.2878ZM44.7889 22.2062C44.1482 22.2062 43.522 22.3965 42.9893 22.7531C42.4566 23.1096 42.0415 23.6164 41.7963 24.2094C41.5511 24.8023 41.487 25.4548 41.612 26.0843C41.737 26.7138 42.0455 27.292 42.4985 27.7458C42.9515 28.1997 43.5286 28.5087 44.1569 28.6339C44.7853 28.7592 45.4365 28.6949 46.0284 28.4493C46.6203 28.2037 47.1262 27.7877 47.4821 27.2541C47.838 26.7205 48.028 26.0931 48.028 25.4512C48.028 24.5906 47.6867 23.7652 47.0793 23.1567C46.4718 22.5481 45.6479 22.2062 44.7889 22.2062V22.2062Z" fill="#660099"/>
<path d="M45.0747 86.0687C42.951 86.0687 40.8749 85.4377 39.109 84.2557C37.3432 83.0736 35.9668 81.3935 35.1541 79.4278C34.3414 77.4621 34.1287 75.299 34.5431 73.2123C34.9574 71.1255 35.9801 69.2086 37.4818 67.7041C38.9836 66.1997 40.8969 65.1751 42.9799 64.76C45.0628 64.3449 47.2219 64.5579 49.184 65.3722C51.1461 66.1864 52.8232 67.5652 54.0031 69.3343C55.183 71.1034 55.8127 73.1833 55.8127 75.311C55.8127 78.1641 54.6814 80.9004 52.6677 82.9178C50.6539 84.9353 47.9226 86.0687 45.0747 86.0687ZM45.0747 65.0656C43.0521 65.0656 41.0749 65.6664 39.3931 66.7922C37.7113 67.918 36.4006 69.5181 35.6265 71.3902C34.8525 73.2623 34.65 75.3223 35.0446 77.3098C35.4392 79.2972 36.4132 81.1227 37.8434 82.5556C39.2736 83.9884 41.0958 84.9642 43.0796 85.3595C45.0634 85.7549 47.1196 85.552 48.9883 84.7765C50.857 84.0011 52.4542 82.6879 53.5779 81.003C54.7016 79.3182 55.3014 77.3373 55.3014 75.311C55.3014 73.9655 55.0369 72.6333 54.523 71.3902C54.009 70.1472 53.2557 69.0177 52.3061 68.0664C51.3565 67.115 50.2291 66.3603 48.9883 65.8454C47.7476 65.3306 46.4177 65.0656 45.0747 65.0656Z" fill="#3F3D56"/>
<path fill-rule="evenodd" clip-rule="evenodd" d="M52.0944 75.3532C52.0941 74.0093 51.7095 72.6936 50.9861 71.5619C50.2627 70.4302 49.2307 69.5298 48.0124 68.9674C46.7941 68.405 45.4404 68.2041 44.1117 68.3885C42.7829 68.5728 41.5347 69.1348 40.5149 70.0078C39.495 70.8807 38.7462 72.0282 38.357 73.3143C37.9678 74.6004 37.9547 75.9713 38.319 77.2646C38.6834 78.558 39.41 79.7197 40.4129 80.6122C41.4158 81.5047 42.653 82.0906 43.9779 82.3006V77.3867H42.1951V75.3532H43.9779V73.8035C43.9779 72.0413 45.0262 71.0671 46.6294 71.0671C47.1559 71.0745 47.6812 71.1204 48.201 71.2046V72.9355H47.3154C46.4439 72.9355 46.1713 73.4773 46.1713 74.0343V75.3535H48.1179L47.8071 77.387H46.1712V82.3013C47.8226 82.0392 49.3264 81.1955 50.4121 79.9218C51.4979 78.6482 52.0944 77.0281 52.0944 75.3532L52.0944 75.3532Z" fill="#660099"/>
<path d="M164.792 121.876H85.4259C85.3707 121.876 85.3177 121.854 85.2786 121.815C85.2395 121.775 85.2176 121.722 85.2176 121.667C85.2176 121.612 85.2395 121.559 85.2786 121.52C85.3177 121.48 85.3707 121.458 85.4259 121.458H164.792C164.847 121.458 164.9 121.48 164.939 121.52C164.978 121.559 165 121.612 165 121.667C165 121.722 164.978 121.775 164.939 121.815C164.9 121.854 164.847 121.876 164.792 121.876Z" fill="#CBCBCB"/>
</g>
<defs>
<clipPath id="clip0_12:107">
<rect width="165" height="122" fill="white"/>
</clipPath>
</defs>
</svg>
