<svg width="138" height="118" viewBox="0 0 138 118" fill="none" xmlns="http://www.w3.org/2000/svg">
<g clip-path="url(#clip0_11:2)" filter="url(#filter0_d_11:2)">
<path d="M18.3647 104.812C18.3647 108.276 16.3124 109.485 13.7805 109.485C13.7218 109.485 13.6632 109.484 13.6048 109.483C13.4875 109.481 13.3713 109.475 13.2565 109.467C10.9715 109.305 9.19617 108.033 9.19617 104.812C9.19617 101.478 13.4425 97.2713 13.7615 96.96L13.762 96.9594C13.7743 96.9474 13.7805 96.9415 13.7805 96.9415C13.7805 96.9415 18.3647 101.348 18.3647 104.812Z" fill="#660099"/>
<path d="M13.6134 108.955L15.2901 106.605L13.6092 109.213L13.6048 109.483C13.4874 109.481 13.3713 109.475 13.2565 109.467L13.4372 106.002L13.4358 105.975L13.4388 105.97L13.4559 105.642L11.7708 103.027L13.4612 105.397L13.4651 105.466L13.6017 102.848L12.1591 100.146L13.6193 102.388L13.7614 96.96L13.762 96.9415V96.9594L13.7383 101.24L15.1745 99.543L13.7324 101.609L13.6944 103.953L15.0354 101.703L13.6888 104.298L13.6676 105.601L15.6144 102.47L13.6603 106.056L13.6134 108.955Z" fill="#3F3D56"/>
<path d="M116.647 60.8001C116.647 87.9604 104.356 109.387 89.2188 109.978C69.4792 110.749 43.6804 91.0028 61.7904 60.8001C75.7455 37.5265 74.0705 11.622 89.2188 11.622C104.367 11.622 116.647 33.6398 116.647 60.8001Z" fill="#F2F2F2"/>
<path d="M100.723 75.2391H61.6146V109.313H100.723V75.2391Z" fill="#660099"/>
<path d="M4 109.313H134" stroke="#3F3D56" stroke-width="2" stroke-miterlimit="10"/>
<path d="M89.8528 -5.9859e-05C88.9931 1.47507e-05 88.1596 0.296907 87.4923 0.84075C86.8249 1.38459 86.3645 2.14226 86.1882 2.98649C86.012 3.83072 86.1307 4.71008 86.5243 5.47689C86.918 6.24369 87.5627 6.85123 88.3502 7.19745C88.3344 6.90851 88.3564 6.61874 88.4154 6.33549C88.4872 6.03028 88.8967 4.28793 88.8967 4.28793C88.815 4.1009 88.7739 3.8985 88.7764 3.69428C88.7764 3.13753 89.0973 2.72164 89.4985 2.72164C89.8395 2.72164 90.0033 2.97822 90.0033 3.2851C90.0033 3.62889 89.7843 4.14203 89.6723 4.61829C89.65 4.70651 89.6487 4.79877 89.6684 4.88761C89.6882 4.97645 89.7285 5.05938 89.7861 5.12972C89.8437 5.20006 89.9169 5.25583 90 5.29254C90.083 5.32925 90.1734 5.34587 90.264 5.34105C90.9727 5.34105 91.4508 4.42711 91.4508 3.3438C91.4508 2.52041 90.8975 1.90497 89.893 1.90497C89.6526 1.89549 89.4127 1.93517 89.1881 2.0216C88.9635 2.10802 88.7587 2.23938 88.5862 2.40769C88.4138 2.576 88.2772 2.77775 88.1849 3.00066C88.0926 3.22357 88.0465 3.46298 88.0493 3.70434C88.0382 3.97199 88.1263 4.23428 88.2967 4.44053C88.3266 4.46528 88.3479 4.49892 88.3575 4.53659C88.3671 4.57427 88.3645 4.61403 88.3502 4.65015C88.3318 4.7189 88.2917 4.88492 88.2733 4.952C88.2701 4.97228 88.2621 4.99151 88.25 5.00807C88.2379 5.02464 88.2221 5.03808 88.2038 5.04726C88.1855 5.05644 88.1652 5.06111 88.1448 5.06088C88.1243 5.06064 88.1042 5.05551 88.0861 5.04591C87.5629 4.83126 87.3189 4.25774 87.3189 3.61043C87.3189 2.54389 88.2165 1.26437 89.9949 1.26437C91.424 1.26437 92.3651 2.3024 92.3651 3.4159C92.3651 4.88995 91.5477 5.99004 90.3443 5.99004C89.9398 5.99004 89.5603 5.77035 89.43 5.52217C89.43 5.52217 89.2127 6.38748 89.1659 6.55517C89.0794 6.84011 88.9528 7.11117 88.7898 7.36011C89.3048 7.51271 89.8464 7.55242 90.378 7.47653C90.9096 7.40065 91.4187 7.21096 91.8709 6.92032C92.323 6.62968 92.7075 6.24489 92.9983 5.79205C93.2892 5.33921 93.4796 4.82891 93.5566 4.29576C93.6336 3.76261 93.5954 3.21908 93.4447 2.70203C93.2939 2.18499 93.034 1.70652 92.6828 1.29908C92.3315 0.891641 91.897 0.56476 91.4087 0.340606C90.9204 0.116453 90.3898 0.000270911 89.8528 -6.10352e-05L89.8528 -5.9859e-05Z" fill="#F5DB39"/>
<path d="M126.817 27.167C126.522 27.2981 126.209 27.3846 125.888 27.4236C126.226 27.2206 126.479 26.9011 126.6 26.5248C126.283 26.7144 125.935 26.8477 125.572 26.9188C125.35 26.6808 125.062 26.5152 124.745 26.4436C124.429 26.3721 124.098 26.3979 123.795 26.5176C123.493 26.6374 123.234 26.8456 123.052 27.1152C122.869 27.3847 122.772 27.7031 122.772 28.029C122.772 28.1537 122.786 28.2781 122.814 28.3996C122.17 28.3676 121.54 28.1998 120.965 27.9071C120.391 27.6144 119.884 27.2034 119.478 26.7008C119.271 27.0589 119.208 27.4826 119.301 27.8858C119.394 28.289 119.638 28.6412 119.981 28.8708C119.723 28.8644 119.47 28.7948 119.245 28.6679V28.688C119.245 29.0632 119.375 29.4268 119.611 29.7172C119.848 30.0076 120.178 30.2068 120.544 30.2812C120.405 30.319 120.262 30.3381 120.118 30.3382C120.016 30.3383 119.914 30.3282 119.814 30.308C119.917 30.6309 120.119 30.9132 120.39 31.1156C120.661 31.318 120.989 31.4302 121.326 31.4366C120.753 31.8887 120.045 32.1338 119.316 32.1325C119.187 32.1323 119.058 32.1245 118.93 32.109C119.667 32.5902 120.527 32.8455 121.407 32.8436C124.387 32.8436 126.015 30.3667 126.015 28.2185C126.015 28.1481 126.013 28.0776 126.01 28.0089C126.327 27.7786 126.6 27.4935 126.817 27.167Z" fill="#F5DB39"/>
<path d="M64.5304 4.78152H58.8205C58.7266 4.78157 58.6365 4.81904 58.57 4.88571C58.5036 4.95237 58.4662 5.04277 58.4662 5.13704V10.8655C58.4662 10.9598 58.5036 11.0502 58.57 11.1169C58.6365 11.1835 58.7266 11.221 58.8205 11.221H61.6755V8.67207H60.9082V7.73297H61.6755V7.03871C61.6755 6.20694 62.2505 5.75416 62.9909 5.75416C63.3453 5.75416 63.7264 5.78099 63.815 5.79273V6.6614H63.2249C62.8221 6.6614 62.7452 6.85257 62.7452 7.1343V7.73297H63.7047L63.5793 8.67207H62.7452V11.221H64.5304C64.6243 11.221 64.7144 11.1835 64.7809 11.1169C64.8473 11.0502 64.8847 10.9598 64.8847 10.8655V5.13704C64.8847 5.04276 64.8473 4.95236 64.7809 4.8857C64.7144 4.81904 64.6243 4.78157 64.5304 4.78152Z" fill="#F5DB39"/>
<path d="M65.2503 28.6269C65.6046 28.6279 65.9442 28.7696 66.1947 29.021C66.4453 29.2723 66.5865 29.6129 66.5875 29.9684V32.6516C66.5865 33.0071 66.4453 33.3477 66.1947 33.599C65.9442 33.8504 65.6046 33.9921 65.2503 33.9931H62.5759C62.2216 33.9921 61.8821 33.8504 61.6315 33.599C61.381 33.3477 61.2398 33.0071 61.2387 32.6516V29.9684C61.2398 29.6129 61.381 29.2723 61.6315 29.021C61.8821 28.7696 62.2216 28.6279 62.5759 28.6269H65.2503ZM65.2503 28.0902H62.5759C62.0799 28.0917 61.6045 28.29 61.2538 28.642C60.903 28.9939 60.7053 29.4708 60.7039 29.9684V32.6516C60.7053 33.1492 60.903 33.6261 61.2538 33.978C61.6045 34.33 62.0799 34.5283 62.5759 34.5298H65.2503C65.7464 34.5283 66.2217 34.33 66.5725 33.978C66.9232 33.6261 67.1209 33.1492 67.1224 32.6516V29.9684C67.1209 29.4708 66.9232 28.9939 66.5725 28.642C66.2217 28.29 65.7464 28.0917 65.2503 28.0902Z" fill="#F5DB39"/>
<path d="M65.6515 29.9685C65.5721 29.9685 65.4946 29.9449 65.4286 29.9006C65.3626 29.8564 65.3112 29.7935 65.2808 29.72C65.2505 29.6465 65.2425 29.5655 65.258 29.4875C65.2735 29.4094 65.3117 29.3377 65.3678 29.2814C65.4239 29.2251 65.4954 29.1868 65.5732 29.1712C65.651 29.1557 65.7317 29.1637 65.805 29.1941C65.8783 29.2246 65.9409 29.2762 65.985 29.3424C66.0291 29.4086 66.0526 29.4864 66.0526 29.566C66.0528 29.6189 66.0425 29.6713 66.0223 29.7202C66.0022 29.769 65.9727 29.8135 65.9354 29.8509C65.8981 29.8883 65.8539 29.9179 65.8051 29.9381C65.7564 29.9583 65.7042 29.9686 65.6515 29.9685ZM63.9131 30.2368C64.1247 30.2368 64.3315 30.2997 64.5074 30.4176C64.6834 30.5356 64.8205 30.7032 64.9014 30.8993C64.9824 31.0954 65.0036 31.3112 64.9623 31.5194C64.921 31.7276 64.8191 31.9188 64.6695 32.0689C64.5199 32.219 64.3293 32.3212 64.1218 32.3626C63.9143 32.4041 63.6992 32.3828 63.5037 32.3016C63.3083 32.2203 63.1412 32.0828 63.0236 31.9063C62.9061 31.7298 62.8434 31.5223 62.8434 31.31C62.8436 31.0255 62.9564 30.7526 63.157 30.5514C63.3575 30.3502 63.6295 30.237 63.9131 30.2368ZM63.9131 29.7001C63.5957 29.7001 63.2855 29.7946 63.0216 29.9714C62.7577 30.1483 62.5521 30.3998 62.4306 30.6939C62.3092 30.9881 62.2774 31.3118 62.3393 31.6241C62.4012 31.9364 62.554 32.2232 62.7785 32.4484C63.0029 32.6735 63.2888 32.8268 63.6001 32.889C63.9113 32.9511 64.234 32.9192 64.5272 32.7974C64.8204 32.6755 65.071 32.4692 65.2473 32.2044C65.4236 31.9397 65.5177 31.6284 65.5177 31.31C65.5176 30.8831 65.3485 30.4737 65.0476 30.1718C64.7467 29.8699 64.3387 29.7002 63.9131 29.7001Z" fill="#F5DB39"/>
<path d="M111.96 1.62061H106.604C106.535 1.61727 106.466 1.6276 106.402 1.65102C106.337 1.67444 106.277 1.71047 106.226 1.75706C106.175 1.80365 106.134 1.85987 106.105 1.9225C106.075 1.98513 106.059 2.05293 106.056 2.12202V7.50674C106.059 7.65161 106.118 7.78954 106.22 7.89217C106.322 7.99479 106.46 8.0543 106.604 8.05846H111.958C112.099 8.05293 112.232 7.99191 112.328 7.88864C112.425 7.78537 112.476 7.64815 112.473 7.50674V2.12202C112.474 2.05472 112.461 1.9879 112.436 1.92567C112.41 1.86344 112.372 1.80712 112.324 1.76015C112.276 1.71319 112.219 1.67659 112.156 1.65259C112.093 1.62859 112.027 1.61771 111.96 1.62061ZM108.045 6.98688H107.126V4.11928H108.045V6.98688ZM107.617 3.68326H107.61C107.478 3.68238 107.351 3.62892 107.258 3.53462C107.165 3.44031 107.113 3.31285 107.114 3.18014C107.114 3.04744 107.167 2.92032 107.261 2.82664C107.354 2.73296 107.481 2.68036 107.614 2.68036C107.746 2.68036 107.873 2.73296 107.966 2.82664C108.06 2.92032 108.113 3.04744 108.113 3.18014C108.114 3.31285 108.062 3.44031 107.969 3.53462C107.876 3.62892 107.749 3.68238 107.617 3.68326ZM111.405 6.98688H110.485V5.41892C110.485 5.04328 110.352 4.7867 110.019 4.7867C109.915 4.78759 109.814 4.8208 109.729 4.88176C109.645 4.94273 109.581 5.02845 109.548 5.12713C109.523 5.19997 109.512 5.27673 109.516 5.35352V6.98688H108.596V4.11928H109.516V4.51839C109.599 4.37311 109.721 4.25315 109.867 4.17111C110.012 4.08907 110.178 4.04799 110.345 4.05221C110.948 4.05221 111.405 4.45132 111.405 5.3116V6.98688Z" fill="#F5DB39"/>
<path d="M86.5843 41.3339C86.5843 41.3339 93.0913 41.5114 94.166 41.9037C95.2406 42.2959 95.7212 45.101 95.7212 45.101L90.6689 46.6941L86.8901 46.4794L84.0462 46.681L85.6342 42.5085L86.5843 41.3339Z" fill="#2F2E41"/>
<path d="M86.865 39.1918C86.865 39.1918 87.2931 40.8507 86.343 42.0254C85.3928 43.2 90.4276 47.3856 90.4276 47.3856L93.0837 46.9275C93.0837 46.9275 92.4983 41.8303 93.2846 40.5395C94.071 39.2488 86.865 39.1918 86.865 39.1918Z" fill="#9F616A"/>
<path opacity="0.1" d="M86.865 39.1918C86.865 39.1918 87.2931 40.8507 86.343 42.0254C85.3928 43.2 90.4276 47.3856 90.4276 47.3856L93.0837 46.9275C93.0837 46.9275 92.4983 41.8303 93.2846 40.5395C94.071 39.2488 86.865 39.1918 86.865 39.1918Z" fill="black"/>
<path d="M104.529 87.6946L98.6691 95.4917L102.668 97.8344L108.173 88.799L104.529 87.6946Z" fill="#9F616A"/>
<path d="M100.419 95.6231C100.419 95.6231 98.2605 93.1074 98.3566 93.6684C98.4527 94.2294 96.8211 98.987 98.3392 99.4472C99.8573 99.9074 112.876 101.128 113.055 99.6531C113.234 98.1783 109.171 97.1461 109.171 97.1461C109.171 97.1461 106.757 94.8189 106.222 95.0556C105.687 95.2922 100.419 95.6231 100.419 95.6231Z" fill="#2F2E41"/>
<path d="M103.215 95.141L107.895 103.142L111.43 101.089L106.709 94.5383L103.215 95.141Z" fill="#9F616A"/>
<path d="M110.604 76.1063L109.215 78.0785C109.215 78.0785 102.592 87.3067 103.295 88.0518C103.999 88.7968 106.928 91.6128 108.417 91.0671C109.907 90.5215 115.2 81.0896 115.2 81.0896L113.819 75.5518L110.604 76.1063Z" fill="#2F2E41"/>
<path d="M82.075 74.2393C82.075 74.2393 83.5581 77.0158 87.3172 77.9559C91.0764 78.896 95.0037 80.8179 95.1435 80.7938C95.2833 80.7697 95.6787 80.5571 95.7748 81.1181C95.8709 81.6791 96.9019 82.6565 96.9019 82.6565C96.9019 82.6565 101.054 96.8131 102.64 96.8284C104.226 96.8437 107.485 95.7042 107.552 95.2593C107.62 94.8145 102.697 80.3577 102.649 80.0772L102.072 76.7111C102.072 76.7111 108.583 77.7542 109.191 77.9383C109.798 78.1224 115.2 81.0896 115.2 81.0896C115.2 81.0896 120.706 77.1077 115.556 73.0865C110.405 69.0653 101.552 66.1156 101.552 66.1156L98.3762 65.2193L95.6083 65.0536L95.2007 63.4856L88.6452 63.8651L81.8041 66.7775L82.075 74.2393Z" fill="#2F2E41"/>
<path d="M90.7268 42.4938C93.547 42.4938 95.8332 40.2001 95.8332 37.3708C95.8332 34.5414 93.547 32.2477 90.7268 32.2477C87.9066 32.2477 85.6204 34.5414 85.6204 37.3708C85.6204 40.2001 87.9066 42.4938 90.7268 42.4938Z" fill="#9F616A"/>
<path d="M86.1071 41.4884L86.7212 41.3825C86.7212 41.3825 87.8305 45.6675 91.262 46.3753C91.262 46.3753 92.9552 44.3403 92.8829 43.9969C92.8106 43.6535 94.2238 41.8215 94.9752 42.8471C95.7266 43.8727 94.7918 61.9388 95.4231 62.2631C96.0543 62.5875 97.4086 62.9315 96.3186 64.1302C95.2287 65.3289 90.8994 66.9418 89.9405 66.3852C88.9816 65.8286 87.0223 61.1126 86.1748 59.5261C85.3273 57.9395 83.9709 52.542 83.9709 52.542C83.9709 52.542 82.2387 46.6317 83.3046 45.2928C84.3706 43.9538 86.1071 41.4884 86.1071 41.4884Z" fill="#D0CDE1"/>
<path d="M90.9942 63.7297C90.88 64.9881 90.6846 66.2378 90.4092 67.4709C90.1588 68.4742 89.8672 69.0799 89.5345 69.0541C88.6854 68.9905 88.2994 70.2398 88.1005 71.6802C87.8878 73.2084 87.8878 74.9517 87.7711 75.5678C87.6168 76.3818 86.6287 77.003 84.6544 76.8206C83.4786 76.6864 82.3247 76.4025 81.2204 75.9756C78.5548 75.0033 78.6337 67.1181 79.0797 61.267C79.3524 57.6807 79.7624 54.8567 79.7624 54.8567C79.7624 54.8567 78.9528 52.4336 78.6938 50.773C78.6422 50.47 78.6164 50.1631 78.6166 49.8557C78.656 48.405 81.2959 44.4848 82.8911 42.0428C84.488 39.6009 86.6665 41.3923 86.6665 41.3923L85.9083 43.688C85.9083 43.688 87.0833 45.507 87.0919 47.2382C87.1005 48.9694 89.905 50.2188 90.9118 51.0569C91.5448 51.5835 91.5293 58.6134 90.9942 63.7297Z" fill="#2F2E41"/>
<path d="M93.2114 42.2127C93.2114 42.2127 93.3954 42.4309 94.238 42.3244C95.2485 42.1968 96.6379 42.5475 96.9607 43.5155C97.5527 45.2905 99.2215 52.5113 99.2215 52.5113C99.2215 52.5113 99.9161 60.7663 100.228 62.5896C100.541 64.4129 100.386 66.0279 100.694 66.9856C101.002 67.9432 97.6532 65.1996 96.4191 65.5568C95.185 65.914 94.3921 61.2857 94.5472 59.6706C94.7022 58.0556 94.8333 56.3002 94.4052 54.6413C93.977 52.9824 94.7361 48.5919 94.7077 47.586C94.6793 46.5802 91.9864 44.0451 93.2114 42.2127Z" fill="#2F2E41"/>
<path d="M96.8246 67.8694C96.8246 67.8694 102.231 70.8287 102.749 75.0407C103.266 79.2527 95.5171 70.9623 95.5171 70.9623L96.8246 67.8694Z" fill="#9F616A"/>
<path d="M99.9109 64.8825C99.9109 64.8825 101.568 73.2604 104.148 72.8154C106.729 72.3704 102.707 64.4004 102.707 64.4004L99.9109 64.8825Z" fill="#9F616A"/>
<path d="M108.749 101.406C108.749 101.406 107.428 102.934 107.1 102.701C106.773 102.469 106.019 105.631 106.698 106.236C107.378 106.841 109.995 107.834 110.023 108.84C110.051 109.845 117.069 109.646 117.321 108.592C117.572 107.538 116.44 105.134 115.645 104.693C114.85 104.253 111.91 100.199 111.91 100.199C111.91 100.199 109.608 100.536 108.749 101.406Z" fill="#2F2E41"/>
<path opacity="0.1" d="M95.9633 72.9933C94.7094 72.1053 91.2085 71.885 88.1004 71.6802C86.7367 71.5925 85.4486 71.5064 84.4588 71.367C83.5051 71.2345 82.6475 70.3603 81.8859 69.0576C80.7315 67.0837 79.7984 64.1237 79.0797 61.267C79.3524 57.6807 79.7624 54.8567 79.7624 54.8567C79.7624 54.8567 78.9527 52.4336 78.6937 50.773C78.8763 50.518 79.1115 50.3055 79.3833 50.15C82.6801 48.7302 85.8276 62.7023 86.2273 64.8947C86.2342 64.9308 86.2393 64.9652 86.2445 64.9945C86.4383 66.1234 88.5326 67.0889 90.4092 67.4709C91.5653 67.7067 92.6408 67.7221 93.1365 67.4158C94.4384 66.6139 98.4419 69.8234 98.7455 69.9146C99.0491 70.0075 97.7644 74.2719 95.9633 72.9933Z" fill="black"/>
<path d="M79.3839 49.2899C79.3839 49.2899 76.9877 50.4251 78.0406 55.7305C79.0934 61.0359 81.2144 70.0558 84.458 70.5073C87.7017 70.9587 94.1606 70.8557 95.9626 72.1333C97.7647 73.4109 99.049 69.1464 98.7454 69.0543C98.4418 68.9623 94.438 65.754 93.1362 66.5561C91.8343 67.3582 86.5571 65.9579 86.2447 64.1346C85.9324 62.3113 82.7346 47.8458 79.3839 49.2899Z" fill="#2F2E41"/>
<path d="M96.6506 46.7456L99.284 52.8762C99.284 52.8762 99.5492 52.7435 99.8571 53.7012C100.165 54.6589 100.309 55.5004 100.849 56.1293C101.388 56.7582 103.789 65.7299 103.861 66.1507C103.933 66.5714 100.545 68.0219 99.7885 66.8529C99.0315 65.6839 96.6506 46.7456 96.6506 46.7456Z" fill="#2F2E41"/>
<path d="M87.8216 37.2994C88.0173 37.247 88.0461 36.9863 88.0526 36.7832C88.0878 35.6955 88.7406 34.5795 89.7784 34.2628C90.1766 34.1533 90.5935 34.1302 91.0013 34.1953C91.5834 34.2731 92.1454 34.4612 92.6575 34.7496C92.9278 34.9021 93.1929 35.0857 93.4995 35.1323C93.7019 35.163 94.5786 35.4188 94.7803 35.4547C95.2235 35.5339 95.6355 35.9318 96.0608 35.7837C96.4678 35.642 96.5579 35.1134 96.5677 34.6814C96.5901 33.6971 95.8453 32.3349 95.1894 31.6027C94.6916 31.047 93.942 30.7905 93.2093 30.6571C92.3534 30.5191 91.486 30.4662 90.6197 30.4991C89.4471 30.5201 88.242 30.6109 87.1846 31.1199C86.1273 31.6289 85.2391 32.642 85.1884 33.8175C85.1779 34.0624 85.203 34.3083 85.1825 34.5525C85.1324 35.1484 84.8171 35.6865 84.6692 36.2657C84.5634 36.6907 84.5476 37.1332 84.6228 37.5647C84.6979 37.9962 84.8624 38.4071 85.1055 38.7709C85.4979 39.3503 86.1147 39.8743 86.092 40.5745L86.9429 39.6901C87.07 39.5927 87.16 39.4546 87.1978 39.2987C87.2356 39.1428 87.219 38.9786 87.1507 38.8336L86.8495 37.655C86.7721 37.4446 86.763 37.215 86.8235 36.9991C87.1463 36.1986 87.4953 37.3868 87.8216 37.2994Z" fill="#2F2E41"/>
<path d="M48.9584 72.2923C48.9584 88.6257 39.2801 94.3287 27.3413 94.3287C15.4025 94.3287 5.72424 88.6257 5.72424 72.2923C5.72424 55.9589 27.3413 35.1802 27.3413 35.1802C27.3413 35.1802 48.9584 55.9589 48.9584 72.2923Z" fill="#F2F2F2"/>
<path d="M26.5539 91.8302L26.7753 78.1607L35.9889 61.2494L26.81 76.0163L26.9094 69.8698L33.2596 57.6348L26.9359 68.2434L27.1149 57.1888L33.9147 47.4481L27.143 55.4504L27.2549 35.1803L26.552 62.0142L26.6097 60.9074L19.6963 50.2906L26.4989 63.0323L25.8547 75.3785L25.8355 75.0507L17.8656 63.8782L25.8114 76.2084L25.7309 77.7525L25.7164 77.7756L25.723 77.9023L24.0887 109.225H26.2722L26.5342 93.0464L34.4605 80.7465L26.5539 91.8302Z" fill="#3F3D56"/>
</g>
<defs>
<filter id="filter0_d_11:2" x="0" y="-6.10352e-05" width="138" height="118" filterUnits="userSpaceOnUse" color-interpolation-filters="sRGB">
<feFlood flood-opacity="0" result="BackgroundImageFix"/>
<feColorMatrix in="SourceAlpha" type="matrix" values="0 0 0 0 0 0 0 0 0 0 0 0 0 0 0 0 0 0 127 0" result="hardAlpha"/>
<feOffset dy="4"/>
<feGaussianBlur stdDeviation="2"/>
<feComposite in2="hardAlpha" operator="out"/>
<feColorMatrix type="matrix" values="0 0 0 0 0 0 0 0 0 0 0 0 0 0 0 0 0 0 0.25 0"/>
<feBlend mode="normal" in2="BackgroundImageFix" result="effect1_dropShadow_11:2"/>
<feBlend mode="normal" in="SourceGraphic" in2="effect1_dropShadow_11:2" result="shape"/>
</filter>
<clipPath id="clip0_11:2">
<rect width="130" height="110" fill="white" transform="translate(4)"/>
</clipPath>
</defs>
</svg>
