<svg width="134" height="117" viewBox="0 0 134 117" fill="none" xmlns="http://www.w3.org/2000/svg">
<g clip-path="url(#clip0_11:37)">
<path d="M22.2257 40.7298C21.9121 40.7614 21.5967 40.7688 21.282 40.7518C21.2284 40.7459 21.1746 40.7614 21.1322 40.7949C21.0899 40.8283 21.0623 40.8771 21.0555 40.9307L20.4536 45.4511C20.4073 45.7792 20.2731 46.0887 20.0653 46.3466C19.8939 46.5518 19.7666 46.7902 19.6911 47.0468C19.6156 47.3034 19.5936 47.5728 19.6265 47.8383V55.517C19.6265 55.517 19.5876 56.5408 20.3733 56.5408C21.3137 56.6591 22.2652 56.6591 23.2055 56.5408C23.2055 56.5408 23.8346 56.4216 23.8346 55.4768V47.916C23.8826 47.6522 23.8727 47.3811 23.8057 47.1216C23.7386 46.862 23.616 46.6201 23.4463 46.4127C23.2454 46.1538 23.1156 45.8469 23.0696 45.5223L22.4444 40.9073C22.4373 40.8555 22.4107 40.8082 22.3701 40.7752C22.3295 40.7423 22.2778 40.726 22.2257 40.7298Z" fill="white"/>
<path d="M21.7867 56.7589C21.3114 56.7589 20.8366 56.7294 20.365 56.6704C20.2596 56.6729 20.1549 56.6535 20.0573 56.6135C19.9598 56.5736 19.8716 56.5138 19.7982 56.4381C19.4784 56.1056 19.4962 55.5361 19.4971 55.512L19.497 47.8462C19.4637 47.5643 19.488 47.2786 19.5687 47.0065C19.6493 46.7344 19.7845 46.4816 19.9659 46.2635C20.1583 46.0242 20.2825 45.7372 20.3254 45.433L20.9272 40.9135C20.9389 40.8266 20.984 40.7477 21.0529 40.6934C21.1217 40.6392 21.209 40.6139 21.2961 40.623C21.6018 40.6392 21.9082 40.6318 22.2127 40.6009L22.2163 40.6006C22.3013 40.5944 22.3854 40.6208 22.4516 40.6746C22.5178 40.7283 22.5611 40.8052 22.5727 40.8897L23.1979 45.505C23.2409 45.8068 23.3617 46.0923 23.5485 46.3331C23.7284 46.5532 23.8587 46.8097 23.9304 47.0848C24.0021 47.36 24.0136 47.6475 23.9641 47.9275V55.4768C23.9641 56.5169 23.237 56.6668 23.2296 56.6682C22.751 56.7286 22.2691 56.7589 21.7867 56.7589ZM21.2644 40.8807C21.2452 40.8798 21.2263 40.886 21.2114 40.8983C21.1965 40.9106 21.1867 40.9279 21.1839 40.947L20.5819 45.4682C20.5324 45.8199 20.3887 46.1515 20.166 46.428C20.006 46.6199 19.8869 46.8427 19.8162 47.0825C19.7455 47.3223 19.7247 47.5741 19.7549 47.8223L19.7559 47.8383V55.517C19.7557 55.5265 19.7419 56.0067 19.9853 56.2589C20.0356 56.3102 20.0962 56.3503 20.1631 56.3766C20.23 56.4028 20.3016 56.4146 20.3734 56.4112L20.3895 56.4123C21.3192 56.5291 22.2597 56.5291 23.1894 56.4123C23.2017 56.4092 23.7052 56.2942 23.7052 55.4768L23.7073 47.8928C23.7521 47.6475 23.743 47.3954 23.6806 47.154C23.6183 46.9125 23.5041 46.6876 23.3462 46.4948C23.1305 46.2175 22.991 45.8885 22.9415 45.5405L22.3162 40.9247C22.3134 40.9058 22.3037 40.8886 22.289 40.8764C22.2742 40.8643 22.2555 40.858 22.2364 40.859C21.917 40.891 21.5956 40.8984 21.2751 40.8813C21.2716 40.8809 21.268 40.8807 21.2644 40.8807H21.2644Z" fill="#3F3D56"/>
<path d="M21.2755 47.9756H22.2295C22.6089 47.9756 22.9727 48.1265 23.2409 48.3951C23.5092 48.6636 23.6599 49.0279 23.6599 49.4077V53.0015C23.6599 53.3813 23.5092 53.7455 23.2409 54.0141C22.9727 54.2827 22.6089 54.4335 22.2295 54.4335H21.2755C20.8962 54.4335 20.5324 54.2827 20.2641 54.0141C19.9959 53.7455 19.8452 53.3813 19.8452 53.0015V49.4077C19.8452 49.2196 19.8822 49.0334 19.9541 48.8597C20.026 48.6859 20.1313 48.5281 20.2641 48.3951C20.397 48.2621 20.5546 48.1566 20.7282 48.0847C20.9017 48.0127 21.0877 47.9756 21.2755 47.9756Z" fill="#6C63FF"/>
<path d="M3.737 113.981H6.84721L8.32686 101.97L3.73645 101.97L3.737 113.981Z" fill="#9F616A"/>
<path d="M2.9437 112.965L9.06882 112.964H9.06906C10.1043 112.965 11.0971 113.376 11.8291 114.109C12.5611 114.842 12.9724 115.836 12.9725 116.873V117L2.94388 117L2.9437 112.965Z" fill="#2F2E41"/>
<path d="M1.78171 71.0807C1.78171 71.0807 0.433772 72.6063 2.66576 78.553L2.27261 111.16L9.50577 111.019L11.0957 95.1133L13.9905 71.9027L1.78171 71.0807Z" fill="#2F2E41"/>
<path d="M16.4712 75.5889L16.392 75.5768C7.13883 74.1638 0.156194 72.8093 0.0867416 72.7958L0 72.7789L2.42566 66.872C2.4065 66.2547 1.88143 48.9218 2.88658 43.9419C3.85963 39.1211 8.44627 38.331 8.96894 38.2567L9.49376 36.5157L16.1241 39.97L17.2805 43.9547L17.5154 54.8759L16.4712 75.5889Z" fill="#3F3D56"/>
<path d="M20.4646 53.1108C20.1661 53.1107 19.8707 53.1725 19.5971 53.2923C19.3236 53.4121 19.0777 53.5873 18.8751 53.8068H7.73052L3.64832 54.6768L4.31855 59.8525L18.8401 56.7257C19.0805 56.9975 19.3851 57.2048 19.7261 57.3284C20.0671 57.4521 20.4336 57.4883 20.7921 57.4337C21.1506 57.3791 21.4898 57.2354 21.7786 57.0158C22.0675 56.7962 22.2967 56.5077 22.4456 56.1766C22.5944 55.8454 22.658 55.4823 22.6305 55.1202C22.6031 54.7581 22.4855 54.4087 22.2885 54.1038C22.0916 53.799 21.8214 53.5484 21.5028 53.3749C21.1842 53.2014 20.8273 53.1106 20.4646 53.1108H20.4646Z" fill="#9F616A"/>
<path d="M20.5613 34.5592C21.9841 31.9532 21.0276 28.6857 18.4247 27.2612C15.8219 25.8366 12.5584 26.7943 11.1356 29.4003C9.71271 32.0063 10.6693 35.2738 13.2721 36.6983C15.875 38.1229 19.1385 37.1652 20.5613 34.5592Z" fill="#9F616A"/>
<path d="M10.7969 27.6807L10.5365 27.1559L11.8467 26.5042C11.8467 26.5042 13.292 24.1496 15.9075 24.8113C18.5229 25.473 19.6996 25.869 19.6996 25.869L21.0065 26.5274L20.3506 27.1808L21.5273 27.5768L20.7412 27.9678L21.6558 28.4942L21.1635 31.1926C21.1635 31.1926 20.3456 29.146 18.7734 29.9281C17.2012 30.7102 14.3253 29.5238 14.3253 29.5238L11.8269 34.365C11.8269 34.365 11.3114 32.6679 10.3924 33.1204C10.3924 33.1204 8.04462 29.3769 10.7969 27.6807Z" fill="#2F2E41"/>
<path d="M4.38989 60.8227L3.11541 57.0271L2.80713 44.3746L3.35016 42.5794C3.54561 41.9333 3.86934 41.3333 4.30194 40.8155C4.73454 40.2977 5.2671 39.8726 5.86772 39.5657C6.46833 39.2589 7.12463 39.0766 7.79729 39.0299C8.46995 38.9831 9.14512 39.0727 9.78235 39.2935C10.4196 39.5142 11.0057 39.8614 11.5057 40.3144C12.0056 40.7674 12.4091 41.3168 12.6919 41.9296C12.9748 42.5425 13.1311 43.2062 13.1516 43.8809C13.1721 44.5557 13.0563 45.2277 12.8111 45.8566L9.90054 53.3241L10.0485 53.6116L16.3543 53.5605L18.5942 57.5972L4.38989 60.8227Z" fill="#3F3D56"/>
<path d="M67.4805 59.2631C67.7158 59.1044 67.9135 58.896 68.0597 58.6525C68.2059 58.409 68.2969 58.1364 68.3265 57.8539C68.3561 57.5714 68.3234 57.2858 68.2308 57.0173C68.1382 56.7487 67.9879 56.5038 67.7905 56.2997L70.8988 50.1354L67.3386 50.5489L64.9328 56.3392C64.6124 56.6939 64.433 57.154 64.4287 57.6322C64.4244 58.1105 64.5955 58.5737 64.9095 58.9341C65.2236 59.2945 65.6587 59.5271 66.1326 59.5877C66.6064 59.6483 67.086 59.5329 67.4805 59.2631Z" fill="#FFB7B7"/>
<path d="M92.4081 102.928L89.6069 102.928L88.2743 92.1097L92.4085 92.1101L92.4081 102.928Z" fill="#FFB7B7"/>
<path d="M93.1225 105.646L84.0902 105.646V105.532C84.0902 104.598 84.4607 103.703 85.12 103.043C85.7792 102.383 86.6734 102.012 87.6058 102.012H87.606L93.1226 102.012L93.1225 105.646Z" fill="#2F2E41"/>
<path d="M77.0995 102.928L74.2982 102.928L72.9655 92.1097L77.1 92.1101L77.0995 102.928Z" fill="#FFB7B7"/>
<path d="M77.1284 105.646L68.0961 105.646V105.532C68.0962 104.598 68.4666 103.703 69.1259 103.043C69.7852 102.383 70.6794 102.012 71.6117 102.012H71.612L77.1286 102.012L77.1284 105.646Z" fill="#2F2E41"/>
<path d="M76.8699 57.2385L74.1281 63.5628L71.8663 99.9134L77.5785 99.6847L79.1386 82.3561L83.9512 66.9223L86.718 84.1286L87.8605 99.2271L92.587 99.432L94.4705 57.2385H76.8699Z" fill="#2F2E41"/>
<path d="M90.5756 26.0314L82.6288 26.2305L77.9632 28.6285L77.7072 46.3205L74.7973 58.5354C74.7973 58.5354 92.9783 59.7882 95.4916 57.9581L92.5213 44.0035L96.5052 28.9225L90.5756 26.0314Z" fill="#6C63FF"/>
<path d="M79.1904 28.9218L78.4506 28.4215C78.4506 28.4215 75.3858 29.3412 74.4799 33.4329C74.4799 33.4329 73.7867 35.4857 73.4825 36.8971C73.1337 38.5159 65.4302 53.3856 65.4302 53.3856L70.0424 54.7103L78.4982 41.0191L79.1904 28.9218Z" fill="#6C63FF"/>
<path d="M96.3807 61.5318C96.1982 61.3143 96.0656 61.0593 95.9921 60.7849C95.9187 60.5105 95.9062 60.2234 95.9556 59.9436C96.005 59.6639 96.1151 59.3984 96.278 59.1659C96.441 58.9333 96.6529 58.7394 96.8988 58.5977L95.6089 51.8142L98.9171 53.1946L99.6349 59.4246C99.8452 59.8541 99.8909 60.3458 99.7633 60.8067C99.6357 61.2676 99.3437 61.6656 98.9426 61.9254C98.5414 62.1851 98.0591 62.2885 97.5869 62.2159C97.1148 62.1434 96.6856 61.9 96.3807 61.5318Z" fill="#FFB7B7"/>
<path d="M95.3095 29.1338L96.1583 28.8573C96.1583 28.8573 98.851 30.5875 98.5948 34.7706C98.5948 34.7706 98.6957 36.9352 98.5994 38.3758C98.4888 40.0282 99.9703 56.4482 99.9703 56.4482H95.1721L93.1157 41.5785L95.3095 29.1338Z" fill="#6C63FF"/>
<path d="M92.5263 18.6089C92.5263 19.6997 92.2032 20.7661 91.5979 21.6731C90.9926 22.5801 90.1322 23.2871 89.1256 23.7045C88.119 24.122 87.0114 24.2312 85.9428 24.0184C84.8742 23.8056 83.8926 23.2803 83.1222 22.5089C82.3517 21.7376 81.8271 20.7548 81.6145 19.6849C81.402 18.615 81.511 17.506 81.928 16.4982C82.3449 15.4904 83.051 14.629 83.957 14.0229C84.8629 13.4169 85.928 13.0934 87.0175 13.0934C88.4749 13.0897 89.874 13.6659 90.9071 14.6951C91.9402 15.7243 92.5227 17.1222 92.5263 18.5814C92.5263 18.5906 92.5264 18.5997 92.5263 18.6089Z" fill="#FFB7B7"/>
<path d="M81.527 11.2005C82.1723 9.81118 83.4212 10.0859 84.5134 10.5568C85.8965 10.2497 87.2119 9.33005 88.7021 9.8739C90.17 12.0115 95.0985 11.3826 94.05 14.8626C94.0486 15.6965 95.6172 15.2111 95.3433 16.5768C96.1743 19.2051 92.344 24.1828 90.1451 23.1346C90.6889 22.1367 91.9312 19.8702 90.047 19.6454C85.9939 23.4213 89.6289 12.4552 84.5362 15.6443C82.8499 17.1894 80.5415 12.746 81.527 11.2005Z" fill="#2F2E41"/>
<path d="M97.345 62.0818C97.6074 62.1346 97.8782 62.1292 98.1382 62.0659C98.3983 62.0026 98.6413 61.883 98.8502 61.7155C99.0591 61.548 99.2288 61.3367 99.3473 61.0964C99.4658 60.8562 99.5303 60.5928 99.5361 60.3249L113.368 47.2899L110.256 44.8042L97.6146 58.4317C97.1644 58.4517 96.7372 58.6364 96.414 58.9506C96.0907 59.2649 95.8938 59.687 95.8605 60.1369C95.8273 60.5868 95.9601 61.0333 96.2337 61.3917C96.5073 61.7502 96.9027 61.9957 97.345 62.0818Z" fill="#9F616A"/>
<path d="M111.408 49.3969L108.717 46.2394C108.641 46.1495 108.584 46.0442 108.552 45.9306C108.52 45.817 108.512 45.6978 108.53 45.5811C108.548 45.4643 108.591 45.3529 108.656 45.2542C108.721 45.1555 108.806 45.072 108.906 45.0093L112.409 42.8135C112.871 42.4238 113.468 42.2332 114.069 42.2835C114.671 42.3337 115.228 42.6207 115.618 43.0816C116.008 43.5424 116.2 44.1395 116.152 44.7418C116.103 45.3441 115.818 45.9026 115.359 46.2947L112.651 49.4038C112.574 49.4927 112.478 49.564 112.37 49.6125C112.263 49.6611 112.146 49.6859 112.028 49.6853C111.91 49.6846 111.794 49.6586 111.687 49.6088C111.58 49.559 111.485 49.4868 111.408 49.3969V49.3969Z" fill="#CBCBCB"/>
<path d="M104.172 113.718L100.79 113.717L99.1809 100.657L104.172 100.657L104.172 113.718Z" fill="#9F616A"/>
<path d="M105.034 117L94.1295 117V116.861C94.1296 115.734 94.5768 114.654 95.3728 113.857C96.1687 113.06 97.2483 112.612 98.374 112.612H98.3742L105.035 112.612L105.034 117Z" fill="#2F2E41"/>
<path d="M131.206 113.718L127.824 113.717L126.215 100.657L131.206 100.657L131.206 113.718Z" fill="#9F616A"/>
<path d="M132.068 117L121.163 117V116.861C121.164 115.734 121.611 114.654 122.407 113.857C123.203 113.06 124.282 112.612 125.408 112.612H125.408L132.068 112.612L132.068 117Z" fill="#2F2E41"/>
<path d="M122.109 56.3201L125.518 43.7098L121.095 41.2209H114.922L112.521 43.7928C112.521 43.7928 108.51 46.5871 109.481 49.6831L111.047 56.7349L108.652 67.9348L96.582 84.6932L93.7249 101.154L104.972 104.106L117.134 80.1303L123.03 106.678L134 106.126L130.22 73.9365C130.22 73.9365 129.142 64.1304 123.494 58.0077L122.109 56.3201Z" fill="#2F2E41"/>
<path d="M129.149 67.4775C129.339 67.2889 129.486 67.0609 129.578 66.8095C129.671 66.5581 129.707 66.2894 129.685 66.0223C129.662 65.7553 129.582 65.4965 129.449 65.264C129.316 65.0315 129.133 64.8311 128.914 64.6768L126.269 46.8107L122.473 48.0109L126.273 65.2179C126.039 65.6031 125.954 66.0611 126.034 66.5051C126.114 66.949 126.354 67.348 126.709 67.6266C127.063 67.9051 127.507 68.0438 127.957 68.0163C128.407 67.9888 128.831 67.7971 129.149 67.4775Z" fill="#9F616A"/>
<path d="M126.923 49.6147L122.805 50.0902C122.687 50.1037 122.569 50.0918 122.457 50.0552C122.344 50.0187 122.241 49.9583 122.155 49.8783C122.068 49.7984 121.999 49.7006 121.954 49.5917C121.908 49.4828 121.886 49.3653 121.89 49.2472L122.024 45.1112C121.958 44.5105 122.133 43.9083 122.51 43.4366C122.887 42.9648 123.436 42.662 124.035 42.5946C124.635 42.5271 125.237 42.7005 125.709 43.0767C126.181 43.453 126.485 44.0013 126.554 44.6016L127.622 48.5856C127.653 48.6996 127.658 48.819 127.638 48.9354C127.619 49.0519 127.574 49.1627 127.508 49.2604C127.442 49.358 127.355 49.4402 127.254 49.5014C127.153 49.5625 127.04 49.6012 126.923 49.6147V49.6147Z" fill="#CBCBCB"/>
<path d="M111.106 37.6348V32.3216C111.106 30.4333 111.855 28.6224 113.188 27.2872C114.522 25.952 116.331 25.2018 118.217 25.2018C120.103 25.2018 121.911 25.952 123.245 27.2872C124.579 28.6224 125.328 30.4333 125.328 32.3216V37.6348C125.327 37.8884 125.227 38.1314 125.048 38.3107C124.869 38.49 124.626 38.5909 124.373 38.5912H112.061C111.807 38.5909 111.565 38.49 111.386 38.3107C111.207 38.1314 111.106 37.8884 111.106 37.6348Z" fill="#2F2E41"/>
<path d="M119.256 37.8278C121.783 36.445 122.711 33.2734 121.33 30.7438C119.949 28.2142 116.781 27.2845 114.255 28.6673C111.728 30.0501 110.8 33.2218 112.181 35.7514C113.562 38.281 116.73 39.2106 119.256 37.8278Z" fill="#9F616A"/>
<path d="M109.423 32.7466C109.425 31.2534 110.018 29.8219 111.073 28.7661C112.127 27.7102 113.557 27.1163 115.048 27.1146H116.11C117.601 27.1163 119.031 27.7102 120.086 28.7661C121.14 29.8219 121.733 31.2535 121.735 32.7466V32.8529H119.492L118.727 30.7081L118.574 32.8529H117.415L117.029 31.7707L116.952 32.8529H109.423V32.7466Z" fill="#2F2E41"/>
<path d="M116.242 39.1887C116.137 39.0459 116.074 38.8763 116.061 38.6993C116.048 38.5223 116.085 38.3452 116.168 38.1883C117.292 36.0464 118.867 32.0887 116.777 29.6479L116.627 29.4725H122.695V38.5943L117.182 39.5681C117.126 39.578 117.07 39.583 117.013 39.583C116.863 39.583 116.714 39.5473 116.58 39.4787C116.446 39.4102 116.33 39.3108 116.242 39.1887Z" fill="#2F2E41"/>
<path d="M60.4664 44.0459C60.3895 44.1251 60.3189 44.2103 60.2554 44.3006L50.3679 44.0584L49.2145 41.9481L45.806 43.2747L47.4853 47.2093C47.621 47.5272 47.856 47.7924 48.155 47.9651C48.4541 48.1379 48.801 48.2089 49.1438 48.1674L60.3147 46.8163C60.5782 47.1503 60.937 47.3961 61.3435 47.5209C61.7499 47.6458 62.1846 47.6438 62.5899 47.5152C62.9951 47.3866 63.3517 47.1375 63.6121 46.8011C63.8725 46.4647 64.0245 46.0569 64.0478 45.6319C64.071 45.2069 63.9645 44.7849 63.7424 44.422C63.5203 44.0591 63.1931 43.7725 62.8043 43.6003C62.4155 43.4281 61.9836 43.3786 61.566 43.4582C61.1484 43.5378 60.7648 43.7428 60.4664 44.0459H60.4664Z" fill="#FFB7B7"/>
<path d="M28.235 104.166H31.486L33.0326 91.6108L28.2344 91.611L28.235 104.166Z" fill="#FFB7B7"/>
<path d="M27.4057 103.103L33.8082 103.103H33.8084C34.8905 103.103 35.9283 103.533 36.6935 104.3C37.4586 105.066 37.8885 106.105 37.8886 107.188V107.321L27.4059 107.321L27.4057 103.103Z" fill="#2F2E41"/>
<path d="M57.7556 104.094L60.7453 102.815L57.2415 90.6607L52.8292 92.5481L57.7556 104.094Z" fill="#FFB7B7"/>
<path d="M56.576 103.442L62.4637 100.924L62.464 100.924C63.4591 100.498 64.5823 100.486 65.5866 100.89C66.5908 101.293 67.3938 102.08 67.8189 103.076L67.871 103.198L58.2311 107.321L56.576 103.442Z" fill="#2F2E41"/>
<path d="M44.0373 46.7656L44.2723 50.5798L37.4006 51.3162L30.2101 52.0865L32.3264 46.2948L44.0373 46.7656Z" fill="#FFB7B7"/>
<path d="M44.2787 48.1342C44.2008 48.1036 36.4391 45.0808 31.6715 47.5525L31.5542 47.6133L30.6031 42.9262L30.0612 32.8491L33.5877 31.1807L34.5586 29.0032L41.1722 28.6113L42.5312 30.4774L47.1584 31.9957L44.3929 48.1795L44.2787 48.1342Z" fill="#E4E4E4"/>
<path d="M44.5217 39.0383L45.3397 32.603L47.2024 32.0354L47.2338 32.047C47.2768 32.0628 48.2891 32.4507 48.5662 33.8539C48.8322 35.2007 50.8353 43.5819 50.8555 43.6664L50.8756 43.7502L46.169 45.6356L44.5217 39.0383Z" fill="#E4E4E4"/>
<path d="M55.3342 101.887L61.5994 100.6L51.5858 72.9358L48.1587 63.4998C48.1587 63.4998 45.985 55.9341 45.003 53.0063L44.4103 49.0779L30.3806 50.6326C30.3806 50.6326 26.4622 56.3942 27.6526 65.7853L27.1142 101.083L33.3793 101.404L38.6271 65.8052L47.8374 85.3205C47.8374 85.3205 50.7404 93.6484 52.8174 95.4534L55.3342 101.887Z" fill="#2F2E41"/>
<path d="M36.0069 51.9428C35.8966 51.9401 35.7862 51.9462 35.6768 51.961L29.1317 44.5371L29.8931 42.2554L26.6039 40.6549L24.864 44.563C24.7235 44.8788 24.689 45.2316 24.7658 45.5686C24.8426 45.9056 25.0265 46.2086 25.2899 46.4321L33.8747 53.715C33.8092 54.1356 33.8732 54.5661 34.0581 54.9494C34.243 55.3326 34.54 55.6504 34.9097 55.8606C35.2794 56.0707 35.7043 56.1631 36.1277 56.1256C36.5512 56.088 36.9532 55.9223 37.2803 55.6505C37.6074 55.3786 37.8441 55.0135 37.9588 54.6036C38.0736 54.1938 38.061 53.7587 37.9228 53.3562C37.7846 52.9537 37.5272 52.6029 37.185 52.3504C36.8427 52.0979 36.4318 51.9557 36.0069 51.9428Z" fill="#FFB7B7"/>
<path d="M26.0114 41.7548L28.5701 34.4576C28.8577 33.5974 29.218 33.0748 29.6412 32.9043C29.7246 32.8667 29.8148 32.8469 29.9062 32.846C29.9976 32.8452 30.0882 32.8633 30.1722 32.8993L31.3196 34.3506L32.3844 38.8295L29.6542 45.2596L26.0114 41.7548Z" fill="#E4E4E4"/>
<path d="M42.9479 27.1013H31.715C31.4839 27.101 31.2624 27.009 31.099 26.8454C30.9356 26.6819 30.8437 26.4601 30.8435 26.2287V21.3811C30.8435 19.6582 31.527 18.006 32.7438 16.7878C33.9605 15.5696 35.6107 14.8852 37.3315 14.8852C39.0522 14.8852 40.7024 15.5696 41.9192 16.7878C43.1359 18.006 43.8195 19.6582 43.8195 21.3811V26.2287C43.8192 26.4601 43.7273 26.6818 43.5639 26.8454C43.4005 27.009 43.179 27.101 42.9479 27.1013Z" fill="#2F2E41"/>
<path d="M38.6647 26.9884C41.2918 26.9884 43.4215 24.8562 43.4215 22.2259C43.4215 19.5956 41.2918 17.4633 38.6647 17.4633C36.0376 17.4633 33.9079 19.5956 33.9079 22.2259C33.9079 24.8562 36.0376 26.9884 38.6647 26.9884Z" fill="#FFB7B7"/>
<path d="M45.3544 21.8658H38.4857L38.4153 20.8785L38.0631 21.8658H37.0055L36.8659 19.9089L36.1679 21.8658H34.1214V21.7689C34.123 20.4065 34.6642 19.1004 35.6263 18.1371C36.5885 17.1738 37.893 16.6319 39.2537 16.6303H40.2221C41.5828 16.6319 42.8873 17.1737 43.8495 18.1371C44.8116 19.1004 45.3528 20.4065 45.3544 21.7689L45.3544 21.8658Z" fill="#2F2E41"/>
<path d="M38.4295 28.0062C38.3778 28.0061 38.3262 28.0016 38.2752 27.9926L33.2457 27.1041V18.7816H38.7823L38.6452 18.9416C36.7381 21.1685 38.1749 24.7795 39.2011 26.7337C39.2767 26.8768 39.3104 27.0384 39.2983 27.1999C39.2863 27.3614 39.2289 27.5161 39.1328 27.6464C39.0524 27.7578 38.9467 27.8485 38.8244 27.911C38.7021 27.9736 38.5668 28.0062 38.4295 28.0062Z" fill="#2F2E41"/>
<path d="M98.6776 48.0108C98.3641 48.0424 98.0487 48.0497 97.734 48.0328C97.6804 48.0269 97.6266 48.0424 97.5842 48.0758C97.5419 48.1093 97.5143 48.158 97.5075 48.2116L96.9056 52.732C96.8593 53.0602 96.7251 53.3696 96.5173 53.6276C96.3459 53.8328 96.2186 54.0711 96.1431 54.3278C96.0676 54.5844 96.0456 54.8538 96.0785 55.1192V62.7979C96.0785 62.7979 96.0396 63.8218 96.8253 63.8218C97.7657 63.9401 98.7172 63.9401 99.6575 63.8218C99.6575 63.8218 100.287 63.7025 100.287 62.7578V55.197C100.335 54.9332 100.325 54.6621 100.258 54.4025C100.191 54.1429 100.068 53.9011 99.8983 53.6937C99.6974 53.4348 99.5676 53.1279 99.5216 52.8033L98.8964 48.1883C98.8893 48.1364 98.8627 48.0892 98.8221 48.0562C98.7815 48.0232 98.7298 48.007 98.6776 48.0108Z" fill="white"/>
<path d="M98.2387 64.0399C97.7634 64.0399 97.2886 64.0103 96.817 63.9513C96.7116 63.9538 96.6069 63.9345 96.5093 63.8945C96.4118 63.8545 96.3236 63.7948 96.2502 63.719C95.9304 63.3865 95.9482 62.8171 95.9491 62.793L95.949 55.1271C95.9157 54.8453 95.94 54.5595 96.0207 54.2874C96.1013 54.0153 96.2365 53.7625 96.4179 53.5445C96.6103 53.3051 96.7345 53.0181 96.7774 52.7139L97.3792 48.1945C97.3909 48.1076 97.436 48.0286 97.5049 47.9744C97.5737 47.9202 97.661 47.8949 97.7481 47.904C98.0537 47.9201 98.3602 47.9127 98.6647 47.8818L98.6683 47.8815C98.7533 47.8753 98.8374 47.9018 98.9036 47.9555C98.9698 48.0092 99.0131 48.0862 99.0247 48.1707L99.6499 52.7859C99.6929 53.0878 99.8137 53.3732 100 53.6141C100.18 53.8342 100.311 54.0906 100.382 54.3658C100.454 54.641 100.466 54.9284 100.416 55.2085V62.7577C100.416 63.7978 99.689 63.9477 99.6816 63.9491C99.203 64.0095 98.7211 64.0398 98.2387 64.0399ZM97.7164 48.1616C97.6972 48.1607 97.6783 48.167 97.6634 48.1792C97.6485 48.1915 97.6387 48.2089 97.6359 48.228L97.0339 52.7492C96.9844 53.1008 96.8407 53.4325 96.618 53.7089C96.458 53.9009 96.3389 54.1236 96.2682 54.3635C96.1975 54.6033 96.1767 54.8551 96.2069 55.1033L96.2079 55.1192V62.7979C96.2077 62.8075 96.1939 63.2876 96.4373 63.5399C96.4876 63.5912 96.5482 63.6313 96.6151 63.6575C96.6819 63.6837 96.7536 63.6956 96.8254 63.6922L96.8415 63.6932C97.7711 63.81 98.7117 63.81 99.6414 63.6932C99.6537 63.6902 100.157 63.5752 100.157 62.7577L100.159 55.1737C100.204 54.9284 100.195 54.6763 100.133 54.4349C100.07 54.1935 99.9561 53.9685 99.7981 53.7758C99.5825 53.4984 99.443 53.1694 99.3935 52.8215L98.7681 48.2057C98.7654 48.1867 98.7557 48.1695 98.7409 48.1574C98.7262 48.1452 98.7074 48.139 98.6884 48.1399C98.369 48.1719 98.0476 48.1794 97.7271 48.1622C97.7235 48.1618 97.72 48.1616 97.7164 48.1616Z" fill="#3F3D56"/>
<path d="M97.7276 55.2567H98.6816C99.0609 55.2567 99.4247 55.4075 99.693 55.6761C99.9612 55.9447 100.112 56.3089 100.112 56.6887V60.2825C100.112 60.6623 99.9612 61.0265 99.6929 61.2951C99.4247 61.5637 99.0609 61.7145 98.6815 61.7145H97.7276C97.3482 61.7145 96.9844 61.5637 96.7162 61.2951C96.4479 61.0265 96.2972 60.6623 96.2972 60.2825V56.6887C96.2972 56.3089 96.4479 55.9447 96.7162 55.6761C96.9844 55.4075 97.3482 55.2567 97.7276 55.2567Z" fill="#6C63FF"/>
<path d="M66.3044 41.7847C65.9909 41.8163 65.6755 41.8236 65.3608 41.8067C65.3072 41.8008 65.2534 41.8163 65.211 41.8497C65.1687 41.8832 65.1411 41.9319 65.1343 41.9855L64.5324 46.5059C64.4861 46.8341 64.3519 47.1435 64.1441 47.4015C63.9727 47.6067 63.8454 47.845 63.7699 48.1017C63.6944 48.3583 63.6724 48.6277 63.7053 48.8931V56.5718C63.7053 56.5718 63.6664 57.5957 64.4521 57.5957C65.3925 57.714 66.344 57.714 67.2843 57.5957C67.2843 57.5957 67.9134 57.4764 67.9134 56.5317V48.9709C67.9614 48.7071 67.9515 48.436 67.8845 48.1764C67.8174 47.9168 67.6948 47.675 67.5251 47.4676C67.3242 47.2087 67.1944 46.9018 67.1484 46.5772L66.5232 41.9622C66.5161 41.9103 66.4895 41.8631 66.4489 41.8301C66.4083 41.7971 66.3566 41.7809 66.3044 41.7847Z" fill="white"/>
<path d="M65.8655 57.8138C65.3902 57.8138 64.9154 57.7842 64.4438 57.7252C64.3384 57.7277 64.2337 57.7084 64.1361 57.6684C64.0386 57.6284 63.9503 57.5687 63.8769 57.4929C63.5572 57.1605 63.575 56.591 63.5759 56.5669L63.5758 48.901C63.5424 48.6192 63.5668 48.3335 63.6474 48.0614C63.7281 47.7892 63.8632 47.5364 64.0447 47.3184C64.2371 47.079 64.3613 46.7921 64.4042 46.4878L65.006 41.9684C65.0177 41.8815 65.0628 41.8025 65.1316 41.7483C65.2005 41.6941 65.2877 41.6688 65.3749 41.6779C65.6805 41.694 65.987 41.6866 66.2915 41.6557L66.2951 41.6554C66.3801 41.6492 66.4642 41.6757 66.5304 41.7294C66.5966 41.7831 66.6399 41.8601 66.6514 41.9446L67.2767 46.5598C67.3197 46.8617 67.4405 47.1472 67.6273 47.388C67.8072 47.6081 67.9374 47.8645 68.0092 48.1397C68.0809 48.4149 68.0924 48.7024 68.0428 48.9824V56.5316C68.0428 57.5717 67.3157 57.7216 67.3084 57.723C66.8298 57.7834 66.3479 57.8137 65.8655 57.8138ZM65.3432 41.9356C65.324 41.9346 65.3051 41.9409 65.2902 41.9532C65.2753 41.9654 65.2655 41.9828 65.2627 42.0019L64.6607 46.5231C64.6112 46.8747 64.4675 47.2064 64.2448 47.4829C64.0847 47.6748 63.9657 47.8976 63.895 48.1374C63.8243 48.3772 63.8034 48.629 63.8337 48.8772L63.8347 48.8931V56.5718C63.8344 56.5814 63.8207 57.0616 64.064 57.3138C64.1144 57.3651 64.175 57.4052 64.2418 57.4314C64.3087 57.4577 64.3804 57.4695 64.4521 57.4661L64.4683 57.4671C65.3979 57.5839 66.3385 57.5839 67.2681 57.4671C67.2804 57.4641 67.784 57.3491 67.784 56.5316L67.786 48.9477C67.8309 48.7024 67.8218 48.4502 67.7594 48.2088C67.697 47.9674 67.5829 47.7425 67.4249 47.5497C67.2093 47.2723 67.0698 46.9434 67.0203 46.5954L66.3949 41.9796C66.3922 41.9607 66.3825 41.9434 66.3677 41.9313C66.353 41.9191 66.3342 41.9129 66.3151 41.9139C65.9957 41.9459 65.6744 41.9533 65.3539 41.9361C65.3503 41.9358 65.3468 41.9356 65.3432 41.9356Z" fill="#3F3D56"/>
<path d="M65.3543 49.0305H66.3083C66.6877 49.0305 67.0515 49.1814 67.3197 49.45C67.588 49.7185 67.7387 50.0828 67.7387 50.4626V54.0563C67.7387 54.4362 67.588 54.8004 67.3197 55.069C67.0515 55.3375 66.6877 55.4884 66.3083 55.4884H65.3543C64.975 55.4884 64.6112 55.3375 64.3429 55.069C64.0747 54.8004 63.924 54.4362 63.924 54.0563V50.4626C63.924 50.0828 64.0747 49.7185 64.3429 49.45C64.6112 49.1814 64.975 49.0305 65.3543 49.0305Z" fill="#6C63FF"/>
<path d="M60.8175 35.1923C60.5039 35.2239 60.1885 35.2313 59.8738 35.2143C59.8202 35.2085 59.7664 35.2239 59.724 35.2574C59.6817 35.2908 59.6541 35.3396 59.6473 35.3932L59.0454 39.9136C58.9991 40.2417 58.8649 40.5512 58.6571 40.8091C58.4857 41.0144 58.3584 41.2527 58.2829 41.5093C58.2074 41.7659 58.1854 42.0353 58.2183 42.3008V49.9795C58.2183 49.9795 58.1794 51.0033 58.9651 51.0033C59.9055 51.1216 60.857 51.1216 61.7973 51.0033C61.7973 51.0033 62.4264 50.8841 62.4264 49.9393V42.3785C62.4744 42.1148 62.4645 41.8437 62.3975 41.5841C62.3304 41.3245 62.2078 41.0826 62.0381 40.8752C61.8372 40.6163 61.7074 40.3094 61.6614 39.9849L61.0362 35.3699C61.0291 35.318 61.0025 35.2707 60.9619 35.2378C60.9213 35.2048 60.8696 35.1885 60.8175 35.1923Z" fill="white"/>
<path d="M60.3785 51.2214C59.9032 51.2214 59.4284 51.1918 58.9568 51.1329C58.8514 51.1353 58.7467 51.116 58.6491 51.076C58.5516 51.036 58.4634 50.9763 58.39 50.9006C58.0702 50.5681 58.088 49.9986 58.0889 49.9745L58.0888 42.3087C58.0555 42.0268 58.0798 41.7411 58.1605 41.469C58.2411 41.1969 58.3763 40.9441 58.5578 40.726C58.7501 40.4867 58.8744 40.1997 58.9172 39.8955L59.519 35.376C59.5307 35.2891 59.5758 35.2102 59.6447 35.1559C59.7135 35.1017 59.8008 35.0764 59.8879 35.0855C60.1936 35.1017 60.5 35.0942 60.8045 35.0634L60.8081 35.063C60.8931 35.0569 60.9772 35.0833 61.0434 35.1371C61.1096 35.1908 61.1529 35.2677 61.1645 35.3522L61.7897 39.9675C61.8327 40.2693 61.9535 40.5548 62.1403 40.7956C62.3202 41.0157 62.4505 41.2721 62.5222 41.5473C62.5939 41.8225 62.6054 42.11 62.5559 42.39V49.9393C62.5559 50.9793 61.8288 51.1292 61.8214 51.1306C61.3428 51.191 60.8609 51.2213 60.3785 51.2214ZM59.8562 35.3432C59.837 35.3423 59.8181 35.3485 59.8032 35.3608C59.7883 35.3731 59.7785 35.3904 59.7757 35.4095L59.1737 39.9307C59.1242 40.2824 58.9805 40.614 58.7578 40.8905C58.5978 41.0824 58.4787 41.3052 58.408 41.545C58.3373 41.7848 58.3165 42.0366 58.3467 42.2848L58.3477 42.3007V49.9794C58.3475 49.989 58.3337 50.4692 58.5771 50.7214C58.6274 50.7727 58.688 50.8128 58.7549 50.839C58.8218 50.8653 58.8934 50.8771 58.9652 50.8737L58.9813 50.8747C59.911 50.9915 60.8515 50.9915 61.7812 50.8747C61.7935 50.8717 62.297 50.7567 62.297 49.9393L62.2991 42.3553C62.3439 42.11 62.3348 41.8579 62.2724 41.6164C62.2101 41.375 62.0959 41.1501 61.938 40.9573C61.7223 40.68 61.5828 40.351 61.5333 40.003L60.908 35.3872C60.9052 35.3683 60.8955 35.3511 60.8808 35.3389C60.866 35.3268 60.8473 35.3205 60.8282 35.3215C60.5088 35.3535 60.1874 35.3609 59.8669 35.3438C59.8634 35.3434 59.8598 35.3432 59.8562 35.3432Z" fill="#3F3D56"/>
<path d="M59.8674 42.4381H60.8213C61.2007 42.4381 61.5645 42.589 61.8327 42.8576C62.101 43.1261 62.2517 43.4904 62.2517 43.8702V47.4639C62.2517 47.8437 62.101 48.208 61.8327 48.4766C61.5645 48.7451 61.2007 48.896 60.8213 48.896H59.8674C59.488 48.896 59.1242 48.7451 58.856 48.4766C58.5877 48.208 58.437 47.8437 58.437 47.4639V43.8702C58.437 43.4904 58.5877 43.1261 58.856 42.8576C59.1242 42.589 59.488 42.4381 59.8674 42.4381Z" fill="#6C63FF"/>
<path d="M10.2766 13.0016C12.802 13.0016 14.8491 10.9519 14.8491 8.42352C14.8491 5.89514 12.802 3.84549 10.2766 3.84549C7.75133 3.84549 5.70416 5.89514 5.70416 8.42352C5.70416 10.9519 7.75133 13.0016 10.2766 13.0016Z" fill="#F0F0F0"/>
<path d="M115.627 9.156C118.152 9.156 120.199 7.10635 120.199 4.57797C120.199 2.04959 118.152 -6.10352e-05 115.627 -6.10352e-05C113.101 -6.10352e-05 111.054 2.04959 111.054 4.57797C111.054 7.10635 113.101 9.156 115.627 9.156Z" fill="#F0F0F0"/>
<path d="M63.3175 20.6926C65.1358 20.6926 66.6097 19.2169 66.6097 17.3965C66.6097 15.576 65.1358 14.1003 63.3175 14.1003C61.4993 14.1003 60.0253 15.576 60.0253 17.3965C60.0253 19.2169 61.4993 20.6926 63.3175 20.6926Z" fill="#F0F0F0"/>
</g>
<defs>
<clipPath id="clip0_11:37">
<rect width="134" height="117" fill="white"/>
</clipPath>
</defs>
</svg>
